G04 #@! TF.GenerationSoftware,KiCad,Pcbnew,(6.0.5)*
G04 #@! TF.CreationDate,2023-08-18T19:29:43-04:00*
G04 #@! TF.ProjectId,Ki_PCB,4b695f50-4342-42e6-9b69-6361645f7063,rev?*
G04 #@! TF.SameCoordinates,Original*
G04 #@! TF.FileFunction,Legend,Top*
G04 #@! TF.FilePolarity,Positive*
%FSLAX46Y46*%
G04 Gerber Fmt 4.6, Leading zero omitted, Abs format (unit mm)*
G04 Created by KiCad (PCBNEW (6.0.5)) date 2023-08-18 19:29:43*
%MOMM*%
%LPD*%
G01*
G04 APERTURE LIST*
G04 Aperture macros list*
%AMRoundRect*
0 Rectangle with rounded corners*
0 $1 Rounding radius*
0 $2 $3 $4 $5 $6 $7 $8 $9 X,Y pos of 4 corners*
0 Add a 4 corners polygon primitive as box body*
4,1,4,$2,$3,$4,$5,$6,$7,$8,$9,$2,$3,0*
0 Add four circle primitives for the rounded corners*
1,1,$1+$1,$2,$3*
1,1,$1+$1,$4,$5*
1,1,$1+$1,$6,$7*
1,1,$1+$1,$8,$9*
0 Add four rect primitives between the rounded corners*
20,1,$1+$1,$2,$3,$4,$5,0*
20,1,$1+$1,$4,$5,$6,$7,0*
20,1,$1+$1,$6,$7,$8,$9,0*
20,1,$1+$1,$8,$9,$2,$3,0*%
G04 Aperture macros list end*
%ADD10C,0.150000*%
%ADD11C,0.050000*%
%ADD12C,0.120000*%
%ADD13C,0.100000*%
%ADD14RoundRect,0.150000X-0.150000X0.825000X-0.150000X-0.825000X0.150000X-0.825000X0.150000X0.825000X0*%
%ADD15RoundRect,0.100000X0.712500X0.100000X-0.712500X0.100000X-0.712500X-0.100000X0.712500X-0.100000X0*%
%ADD16RoundRect,0.250000X0.337500X0.475000X-0.337500X0.475000X-0.337500X-0.475000X0.337500X-0.475000X0*%
%ADD17RoundRect,0.250000X-0.450000X0.350000X-0.450000X-0.350000X0.450000X-0.350000X0.450000X0.350000X0*%
%ADD18RoundRect,0.250000X0.450000X-0.350000X0.450000X0.350000X-0.450000X0.350000X-0.450000X-0.350000X0*%
%ADD19RoundRect,0.150000X-0.825000X-0.150000X0.825000X-0.150000X0.825000X0.150000X-0.825000X0.150000X0*%
%ADD20RoundRect,0.250000X0.600000X0.750000X-0.600000X0.750000X-0.600000X-0.750000X0.600000X-0.750000X0*%
%ADD21O,1.700000X2.000000*%
%ADD22RoundRect,0.250000X0.475000X-0.337500X0.475000X0.337500X-0.475000X0.337500X-0.475000X-0.337500X0*%
%ADD23C,1.500000*%
%ADD24O,2.030000X1.730000*%
%ADD25R,2.030000X1.730000*%
%ADD26C,1.100000*%
%ADD27R,0.350000X0.850000*%
%ADD28R,2.400000X1.650000*%
%ADD29RoundRect,0.250000X-0.350000X-0.450000X0.350000X-0.450000X0.350000X0.450000X-0.350000X0.450000X0*%
%ADD30RoundRect,0.250000X-0.475000X0.337500X-0.475000X-0.337500X0.475000X-0.337500X0.475000X0.337500X0*%
%ADD31R,1.800000X1.800000*%
%ADD32C,1.800000*%
%ADD33C,1.000000*%
%ADD34C,2.250000*%
%ADD35R,0.450000X0.700000*%
%ADD36RoundRect,0.250000X-0.337500X-0.475000X0.337500X-0.475000X0.337500X0.475000X-0.337500X0.475000X0*%
%ADD37RoundRect,0.100000X-0.637500X-0.100000X0.637500X-0.100000X0.637500X0.100000X-0.637500X0.100000X0*%
%ADD38R,1.800000X5.700000*%
%ADD39R,1.600000X2.400000*%
%ADD40O,1.600000X2.400000*%
%ADD41RoundRect,0.250000X0.350000X0.450000X-0.350000X0.450000X-0.350000X-0.450000X0.350000X-0.450000X0*%
%ADD42R,1.200000X1.200000*%
%ADD43RoundRect,0.250000X0.725000X-0.600000X0.725000X0.600000X-0.725000X0.600000X-0.725000X-0.600000X0*%
%ADD44O,1.950000X1.700000*%
%ADD45RoundRect,0.150000X-0.150000X0.512500X-0.150000X-0.512500X0.150000X-0.512500X0.150000X0.512500X0*%
%ADD46O,3.700000X2.700000*%
%ADD47RoundRect,0.250001X-1.599999X1.099999X-1.599999X-1.099999X1.599999X-1.099999X1.599999X1.099999X0*%
%ADD48C,3.000000*%
%ADD49R,1.600000X1.600000*%
%ADD50C,1.600000*%
%ADD51R,1.500000X2.000000*%
%ADD52R,3.800000X2.000000*%
%ADD53RoundRect,0.250001X1.599999X-1.099999X1.599999X1.099999X-1.599999X1.099999X-1.599999X-1.099999X0*%
%ADD54RoundRect,0.250000X0.600000X0.725000X-0.600000X0.725000X-0.600000X-0.725000X0.600000X-0.725000X0*%
%ADD55O,1.700000X1.950000*%
G04 APERTURE END LIST*
D10*
X88342470Y-104063225D02*
X88294851Y-104158463D01*
X88199612Y-104253701D01*
X88056755Y-104396558D01*
X88009136Y-104491796D01*
X88009136Y-104587034D01*
X88247231Y-104539415D02*
X88199612Y-104634653D01*
X88104374Y-104729891D01*
X87913898Y-104777510D01*
X87580565Y-104777510D01*
X87390089Y-104729891D01*
X87294851Y-104634653D01*
X87247231Y-104539415D01*
X87247231Y-104348939D01*
X87294851Y-104253701D01*
X87390089Y-104158463D01*
X87580565Y-104110844D01*
X87913898Y-104110844D01*
X88104374Y-104158463D01*
X88199612Y-104253701D01*
X88247231Y-104348939D01*
X88247231Y-104539415D01*
X88247231Y-103158463D02*
X88247231Y-103729891D01*
X88247231Y-103444177D02*
X87247231Y-103444177D01*
X87390089Y-103539415D01*
X87485327Y-103634653D01*
X87532946Y-103729891D01*
X81479946Y-98800367D02*
X81479946Y-99609891D01*
X81527565Y-99705129D01*
X81575184Y-99752748D01*
X81670422Y-99800367D01*
X81860898Y-99800367D01*
X81956136Y-99752748D01*
X82003755Y-99705129D01*
X82051374Y-99609891D01*
X82051374Y-98800367D01*
X82432327Y-98800367D02*
X83051374Y-98800367D01*
X82718041Y-99181320D01*
X82860898Y-99181320D01*
X82956136Y-99228939D01*
X83003755Y-99276558D01*
X83051374Y-99371796D01*
X83051374Y-99609891D01*
X83003755Y-99705129D01*
X82956136Y-99752748D01*
X82860898Y-99800367D01*
X82575184Y-99800367D01*
X82479946Y-99752748D01*
X82432327Y-99705129D01*
X125915993Y-124137129D02*
X125868374Y-124184748D01*
X125725517Y-124232367D01*
X125630279Y-124232367D01*
X125487422Y-124184748D01*
X125392184Y-124089510D01*
X125344565Y-123994272D01*
X125296946Y-123803796D01*
X125296946Y-123660939D01*
X125344565Y-123470463D01*
X125392184Y-123375225D01*
X125487422Y-123279987D01*
X125630279Y-123232367D01*
X125725517Y-123232367D01*
X125868374Y-123279987D01*
X125915993Y-123327606D01*
X126868374Y-124232367D02*
X126296946Y-124232367D01*
X126582660Y-124232367D02*
X126582660Y-123232367D01*
X126487422Y-123375225D01*
X126392184Y-123470463D01*
X126296946Y-123518082D01*
X127725517Y-123232367D02*
X127535041Y-123232367D01*
X127439803Y-123279987D01*
X127392184Y-123327606D01*
X127296946Y-123470463D01*
X127249327Y-123660939D01*
X127249327Y-124041891D01*
X127296946Y-124137129D01*
X127344565Y-124184748D01*
X127439803Y-124232367D01*
X127630279Y-124232367D01*
X127725517Y-124184748D01*
X127773136Y-124137129D01*
X127820755Y-124041891D01*
X127820755Y-123803796D01*
X127773136Y-123708558D01*
X127725517Y-123660939D01*
X127630279Y-123613320D01*
X127439803Y-123613320D01*
X127344565Y-123660939D01*
X127296946Y-123708558D01*
X127249327Y-123803796D01*
X117914993Y-130895478D02*
X117867374Y-130943097D01*
X117724517Y-130990716D01*
X117629279Y-130990716D01*
X117486422Y-130943097D01*
X117391184Y-130847859D01*
X117343565Y-130752621D01*
X117295946Y-130562145D01*
X117295946Y-130419288D01*
X117343565Y-130228812D01*
X117391184Y-130133574D01*
X117486422Y-130038336D01*
X117629279Y-129990716D01*
X117724517Y-129990716D01*
X117867374Y-130038336D01*
X117914993Y-130085955D01*
X118867374Y-130990716D02*
X118295946Y-130990716D01*
X118581660Y-130990716D02*
X118581660Y-129990716D01*
X118486422Y-130133574D01*
X118391184Y-130228812D01*
X118295946Y-130276431D01*
X119200708Y-129990716D02*
X119867374Y-129990716D01*
X119438803Y-130990716D01*
X110929993Y-115559431D02*
X110596660Y-115083241D01*
X110358565Y-115559431D02*
X110358565Y-114559431D01*
X110739517Y-114559431D01*
X110834755Y-114607051D01*
X110882374Y-114654670D01*
X110929993Y-114749908D01*
X110929993Y-114892765D01*
X110882374Y-114988003D01*
X110834755Y-115035622D01*
X110739517Y-115083241D01*
X110358565Y-115083241D01*
X111882374Y-115559431D02*
X111310946Y-115559431D01*
X111596660Y-115559431D02*
X111596660Y-114559431D01*
X111501422Y-114702289D01*
X111406184Y-114797527D01*
X111310946Y-114845146D01*
X112215708Y-114559431D02*
X112882374Y-114559431D01*
X112453803Y-115559431D01*
X105849993Y-125502367D02*
X105516660Y-125026177D01*
X105278565Y-125502367D02*
X105278565Y-124502367D01*
X105659517Y-124502367D01*
X105754755Y-124549987D01*
X105802374Y-124597606D01*
X105849993Y-124692844D01*
X105849993Y-124835701D01*
X105802374Y-124930939D01*
X105754755Y-124978558D01*
X105659517Y-125026177D01*
X105278565Y-125026177D01*
X106802374Y-125502367D02*
X106230946Y-125502367D01*
X106516660Y-125502367D02*
X106516660Y-124502367D01*
X106421422Y-124645225D01*
X106326184Y-124740463D01*
X106230946Y-124788082D01*
X107659517Y-124502367D02*
X107469041Y-124502367D01*
X107373803Y-124549987D01*
X107326184Y-124597606D01*
X107230946Y-124740463D01*
X107183327Y-124930939D01*
X107183327Y-125311891D01*
X107230946Y-125407129D01*
X107278565Y-125454748D01*
X107373803Y-125502367D01*
X107564279Y-125502367D01*
X107659517Y-125454748D01*
X107707136Y-125407129D01*
X107754755Y-125311891D01*
X107754755Y-125073796D01*
X107707136Y-124978558D01*
X107659517Y-124930939D01*
X107564279Y-124883320D01*
X107373803Y-124883320D01*
X107278565Y-124930939D01*
X107230946Y-124978558D01*
X107183327Y-125073796D01*
X116333946Y-123740367D02*
X116333946Y-124549891D01*
X116381565Y-124645129D01*
X116429184Y-124692748D01*
X116524422Y-124740367D01*
X116714898Y-124740367D01*
X116810136Y-124692748D01*
X116857755Y-124645129D01*
X116905374Y-124549891D01*
X116905374Y-123740367D01*
X117524422Y-124168939D02*
X117429184Y-124121320D01*
X117381565Y-124073701D01*
X117333946Y-123978463D01*
X117333946Y-123930844D01*
X117381565Y-123835606D01*
X117429184Y-123787987D01*
X117524422Y-123740367D01*
X117714898Y-123740367D01*
X117810136Y-123787987D01*
X117857755Y-123835606D01*
X117905374Y-123930844D01*
X117905374Y-123978463D01*
X117857755Y-124073701D01*
X117810136Y-124121320D01*
X117714898Y-124168939D01*
X117524422Y-124168939D01*
X117429184Y-124216558D01*
X117381565Y-124264177D01*
X117333946Y-124359415D01*
X117333946Y-124549891D01*
X117381565Y-124645129D01*
X117429184Y-124692748D01*
X117524422Y-124740367D01*
X117714898Y-124740367D01*
X117810136Y-124692748D01*
X117857755Y-124645129D01*
X117905374Y-124549891D01*
X117905374Y-124359415D01*
X117857755Y-124264177D01*
X117810136Y-124216558D01*
X117714898Y-124168939D01*
X107703517Y-111254367D02*
X107703517Y-111968653D01*
X107655898Y-112111510D01*
X107560660Y-112206748D01*
X107417803Y-112254367D01*
X107322565Y-112254367D01*
X108608279Y-111254367D02*
X108417803Y-111254367D01*
X108322565Y-111301987D01*
X108274946Y-111349606D01*
X108179708Y-111492463D01*
X108132089Y-111682939D01*
X108132089Y-112063891D01*
X108179708Y-112159129D01*
X108227327Y-112206748D01*
X108322565Y-112254367D01*
X108513041Y-112254367D01*
X108608279Y-112206748D01*
X108655898Y-112159129D01*
X108703517Y-112063891D01*
X108703517Y-111825796D01*
X108655898Y-111730558D01*
X108608279Y-111682939D01*
X108513041Y-111635320D01*
X108322565Y-111635320D01*
X108227327Y-111682939D01*
X108179708Y-111730558D01*
X108132089Y-111825796D01*
X108389993Y-124137129D02*
X108342374Y-124184748D01*
X108199517Y-124232367D01*
X108104279Y-124232367D01*
X107961422Y-124184748D01*
X107866184Y-124089510D01*
X107818565Y-123994272D01*
X107770946Y-123803796D01*
X107770946Y-123660939D01*
X107818565Y-123470463D01*
X107866184Y-123375225D01*
X107961422Y-123279987D01*
X108104279Y-123232367D01*
X108199517Y-123232367D01*
X108342374Y-123279987D01*
X108389993Y-123327606D01*
X109342374Y-124232367D02*
X108770946Y-124232367D01*
X109056660Y-124232367D02*
X109056660Y-123232367D01*
X108961422Y-123375225D01*
X108866184Y-123470463D01*
X108770946Y-123518082D01*
X109818565Y-124232367D02*
X110009041Y-124232367D01*
X110104279Y-124184748D01*
X110151898Y-124137129D01*
X110247136Y-123994272D01*
X110294755Y-123803796D01*
X110294755Y-123422844D01*
X110247136Y-123327606D01*
X110199517Y-123279987D01*
X110104279Y-123232367D01*
X109913803Y-123232367D01*
X109818565Y-123279987D01*
X109770946Y-123327606D01*
X109723327Y-123422844D01*
X109723327Y-123660939D01*
X109770946Y-123756177D01*
X109818565Y-123803796D01*
X109913803Y-123851415D01*
X110104279Y-123851415D01*
X110199517Y-123803796D01*
X110247136Y-123756177D01*
X110294755Y-123660939D01*
X111739612Y-135065716D02*
X111406279Y-134589526D01*
X111168184Y-135065716D02*
X111168184Y-134065716D01*
X111549136Y-134065716D01*
X111644374Y-134113336D01*
X111691993Y-134160955D01*
X111739612Y-134256193D01*
X111739612Y-134399050D01*
X111691993Y-134494288D01*
X111644374Y-134541907D01*
X111549136Y-134589526D01*
X111168184Y-134589526D01*
X112025327Y-134065716D02*
X112358660Y-135065716D01*
X112691993Y-134065716D01*
X112930089Y-134065716D02*
X113549136Y-134065716D01*
X113215803Y-134446669D01*
X113358660Y-134446669D01*
X113453898Y-134494288D01*
X113501517Y-134541907D01*
X113549136Y-134637145D01*
X113549136Y-134875240D01*
X113501517Y-134970478D01*
X113453898Y-135018097D01*
X113358660Y-135065716D01*
X113072946Y-135065716D01*
X112977708Y-135018097D01*
X112930089Y-134970478D01*
X130543517Y-109262367D02*
X130543517Y-109976653D01*
X130495898Y-110119510D01*
X130400660Y-110214748D01*
X130257803Y-110262367D01*
X130162565Y-110262367D01*
X131448279Y-109595701D02*
X131448279Y-110262367D01*
X131210184Y-109214748D02*
X130972089Y-109929034D01*
X131591136Y-109929034D01*
X75504946Y-106976367D02*
X75504946Y-107785891D01*
X75552565Y-107881129D01*
X75600184Y-107928748D01*
X75695422Y-107976367D01*
X75885898Y-107976367D01*
X75981136Y-107928748D01*
X76028755Y-107881129D01*
X76076374Y-107785891D01*
X76076374Y-106976367D01*
X76981136Y-107309701D02*
X76981136Y-107976367D01*
X76743041Y-106928748D02*
X76504946Y-107643034D01*
X77123993Y-107643034D01*
X110390184Y-105944367D02*
X110056851Y-105468177D01*
X109818755Y-105944367D02*
X109818755Y-104944367D01*
X110199708Y-104944367D01*
X110294946Y-104991987D01*
X110342565Y-105039606D01*
X110390184Y-105134844D01*
X110390184Y-105277701D01*
X110342565Y-105372939D01*
X110294946Y-105420558D01*
X110199708Y-105468177D01*
X109818755Y-105468177D01*
X110961612Y-105372939D02*
X110866374Y-105325320D01*
X110818755Y-105277701D01*
X110771136Y-105182463D01*
X110771136Y-105134844D01*
X110818755Y-105039606D01*
X110866374Y-104991987D01*
X110961612Y-104944367D01*
X111152089Y-104944367D01*
X111247327Y-104991987D01*
X111294946Y-105039606D01*
X111342565Y-105134844D01*
X111342565Y-105182463D01*
X111294946Y-105277701D01*
X111247327Y-105325320D01*
X111152089Y-105372939D01*
X110961612Y-105372939D01*
X110866374Y-105420558D01*
X110818755Y-105468177D01*
X110771136Y-105563415D01*
X110771136Y-105753891D01*
X110818755Y-105849129D01*
X110866374Y-105896748D01*
X110961612Y-105944367D01*
X111152089Y-105944367D01*
X111247327Y-105896748D01*
X111294946Y-105849129D01*
X111342565Y-105753891D01*
X111342565Y-105563415D01*
X111294946Y-105468177D01*
X111247327Y-105420558D01*
X111152089Y-105372939D01*
X96166184Y-117025129D02*
X96118565Y-117072748D01*
X95975708Y-117120367D01*
X95880470Y-117120367D01*
X95737612Y-117072748D01*
X95642374Y-116977510D01*
X95594755Y-116882272D01*
X95547136Y-116691796D01*
X95547136Y-116548939D01*
X95594755Y-116358463D01*
X95642374Y-116263225D01*
X95737612Y-116167987D01*
X95880470Y-116120367D01*
X95975708Y-116120367D01*
X96118565Y-116167987D01*
X96166184Y-116215606D01*
X97118565Y-117120367D02*
X96547136Y-117120367D01*
X96832851Y-117120367D02*
X96832851Y-116120367D01*
X96737612Y-116263225D01*
X96642374Y-116358463D01*
X96547136Y-116406082D01*
X104802184Y-106198367D02*
X104468851Y-105722177D01*
X104230755Y-106198367D02*
X104230755Y-105198367D01*
X104611708Y-105198367D01*
X104706946Y-105245987D01*
X104754565Y-105293606D01*
X104802184Y-105388844D01*
X104802184Y-105531701D01*
X104754565Y-105626939D01*
X104706946Y-105674558D01*
X104611708Y-105722177D01*
X104230755Y-105722177D01*
X105278374Y-106198367D02*
X105468851Y-106198367D01*
X105564089Y-106150748D01*
X105611708Y-106103129D01*
X105706946Y-105960272D01*
X105754565Y-105769796D01*
X105754565Y-105388844D01*
X105706946Y-105293606D01*
X105659327Y-105245987D01*
X105564089Y-105198367D01*
X105373612Y-105198367D01*
X105278374Y-105245987D01*
X105230755Y-105293606D01*
X105183136Y-105388844D01*
X105183136Y-105626939D01*
X105230755Y-105722177D01*
X105278374Y-105769796D01*
X105373612Y-105817415D01*
X105564089Y-105817415D01*
X105659327Y-105769796D01*
X105706946Y-105722177D01*
X105754565Y-105626939D01*
X74258755Y-130328367D02*
X74258755Y-129328367D01*
X74496851Y-129328367D01*
X74639708Y-129375987D01*
X74734946Y-129471225D01*
X74782565Y-129566463D01*
X74830184Y-129756939D01*
X74830184Y-129899796D01*
X74782565Y-130090272D01*
X74734946Y-130185510D01*
X74639708Y-130280748D01*
X74496851Y-130328367D01*
X74258755Y-130328367D01*
X75782565Y-130328367D02*
X75211136Y-130328367D01*
X75496851Y-130328367D02*
X75496851Y-129328367D01*
X75401612Y-129471225D01*
X75306374Y-129566463D01*
X75211136Y-129614082D01*
X89054184Y-98070367D02*
X88720851Y-97594177D01*
X88482755Y-98070367D02*
X88482755Y-97070367D01*
X88863708Y-97070367D01*
X88958946Y-97117987D01*
X89006565Y-97165606D01*
X89054184Y-97260844D01*
X89054184Y-97403701D01*
X89006565Y-97498939D01*
X88958946Y-97546558D01*
X88863708Y-97594177D01*
X88482755Y-97594177D01*
X89911327Y-97403701D02*
X89911327Y-98070367D01*
X89673231Y-97022748D02*
X89435136Y-97737034D01*
X90054184Y-97737034D01*
X100769993Y-110008367D02*
X100436660Y-109532177D01*
X100198565Y-110008367D02*
X100198565Y-109008367D01*
X100579517Y-109008367D01*
X100674755Y-109055987D01*
X100722374Y-109103606D01*
X100769993Y-109198844D01*
X100769993Y-109341701D01*
X100722374Y-109436939D01*
X100674755Y-109484558D01*
X100579517Y-109532177D01*
X100198565Y-109532177D01*
X101722374Y-110008367D02*
X101150946Y-110008367D01*
X101436660Y-110008367D02*
X101436660Y-109008367D01*
X101341422Y-109151225D01*
X101246184Y-109246463D01*
X101150946Y-109294082D01*
X102341422Y-109008367D02*
X102436660Y-109008367D01*
X102531898Y-109055987D01*
X102579517Y-109103606D01*
X102627136Y-109198844D01*
X102674755Y-109389320D01*
X102674755Y-109627415D01*
X102627136Y-109817891D01*
X102579517Y-109913129D01*
X102531898Y-109960748D01*
X102436660Y-110008367D01*
X102341422Y-110008367D01*
X102246184Y-109960748D01*
X102198565Y-109913129D01*
X102150946Y-109817891D01*
X102103327Y-109627415D01*
X102103327Y-109389320D01*
X102150946Y-109198844D01*
X102198565Y-109103606D01*
X102246184Y-109055987D01*
X102341422Y-109008367D01*
X96166184Y-129471129D02*
X96118565Y-129518748D01*
X95975708Y-129566367D01*
X95880470Y-129566367D01*
X95737612Y-129518748D01*
X95642374Y-129423510D01*
X95594755Y-129328272D01*
X95547136Y-129137796D01*
X95547136Y-128994939D01*
X95594755Y-128804463D01*
X95642374Y-128709225D01*
X95737612Y-128613987D01*
X95880470Y-128566367D01*
X95975708Y-128566367D01*
X96118565Y-128613987D01*
X96166184Y-128661606D01*
X97023327Y-128899701D02*
X97023327Y-129566367D01*
X96785231Y-128518748D02*
X96547136Y-129233034D01*
X97166184Y-129233034D01*
X78719612Y-136424367D02*
X78386279Y-135948177D01*
X78148184Y-136424367D02*
X78148184Y-135424367D01*
X78529136Y-135424367D01*
X78624374Y-135471987D01*
X78671993Y-135519606D01*
X78719612Y-135614844D01*
X78719612Y-135757701D01*
X78671993Y-135852939D01*
X78624374Y-135900558D01*
X78529136Y-135948177D01*
X78148184Y-135948177D01*
X79005327Y-135424367D02*
X79338660Y-136424367D01*
X79671993Y-135424367D01*
X80529136Y-136424367D02*
X79957708Y-136424367D01*
X80243422Y-136424367D02*
X80243422Y-135424367D01*
X80148184Y-135567225D01*
X80052946Y-135662463D01*
X79957708Y-135710082D01*
X107921612Y-87243606D02*
X107826374Y-87195987D01*
X107731136Y-87100748D01*
X107588279Y-86957891D01*
X107493041Y-86910272D01*
X107397803Y-86910272D01*
X107445422Y-87148367D02*
X107350184Y-87100748D01*
X107254946Y-87005510D01*
X107207327Y-86815034D01*
X107207327Y-86481701D01*
X107254946Y-86291225D01*
X107350184Y-86195987D01*
X107445422Y-86148367D01*
X107635898Y-86148367D01*
X107731136Y-86195987D01*
X107826374Y-86291225D01*
X107873993Y-86481701D01*
X107873993Y-86815034D01*
X107826374Y-87005510D01*
X107731136Y-87100748D01*
X107635898Y-87148367D01*
X107445422Y-87148367D01*
X108254946Y-86243606D02*
X108302565Y-86195987D01*
X108397803Y-86148367D01*
X108635898Y-86148367D01*
X108731136Y-86195987D01*
X108778755Y-86243606D01*
X108826374Y-86338844D01*
X108826374Y-86434082D01*
X108778755Y-86576939D01*
X108207327Y-87148367D01*
X108826374Y-87148367D01*
X111691993Y-131598367D02*
X111358660Y-131122177D01*
X111120565Y-131598367D02*
X111120565Y-130598367D01*
X111501517Y-130598367D01*
X111596755Y-130645987D01*
X111644374Y-130693606D01*
X111691993Y-130788844D01*
X111691993Y-130931701D01*
X111644374Y-131026939D01*
X111596755Y-131074558D01*
X111501517Y-131122177D01*
X111120565Y-131122177D01*
X112072946Y-130693606D02*
X112120565Y-130645987D01*
X112215803Y-130598367D01*
X112453898Y-130598367D01*
X112549136Y-130645987D01*
X112596755Y-130693606D01*
X112644374Y-130788844D01*
X112644374Y-130884082D01*
X112596755Y-131026939D01*
X112025327Y-131598367D01*
X112644374Y-131598367D01*
X113263422Y-130598367D02*
X113358660Y-130598367D01*
X113453898Y-130645987D01*
X113501517Y-130693606D01*
X113549136Y-130788844D01*
X113596755Y-130979320D01*
X113596755Y-131217415D01*
X113549136Y-131407891D01*
X113501517Y-131503129D01*
X113453898Y-131550748D01*
X113358660Y-131598367D01*
X113263422Y-131598367D01*
X113168184Y-131550748D01*
X113120565Y-131503129D01*
X113072946Y-131407891D01*
X113025327Y-131217415D01*
X113025327Y-130979320D01*
X113072946Y-130788844D01*
X113120565Y-130693606D01*
X113168184Y-130645987D01*
X113263422Y-130598367D01*
X86037993Y-110167129D02*
X85990374Y-110214748D01*
X85847517Y-110262367D01*
X85752279Y-110262367D01*
X85609422Y-110214748D01*
X85514184Y-110119510D01*
X85466565Y-110024272D01*
X85418946Y-109833796D01*
X85418946Y-109690939D01*
X85466565Y-109500463D01*
X85514184Y-109405225D01*
X85609422Y-109309987D01*
X85752279Y-109262367D01*
X85847517Y-109262367D01*
X85990374Y-109309987D01*
X86037993Y-109357606D01*
X86990374Y-110262367D02*
X86418946Y-110262367D01*
X86704660Y-110262367D02*
X86704660Y-109262367D01*
X86609422Y-109405225D01*
X86514184Y-109500463D01*
X86418946Y-109548082D01*
X87942755Y-110262367D02*
X87371327Y-110262367D01*
X87657041Y-110262367D02*
X87657041Y-109262367D01*
X87561803Y-109405225D01*
X87466565Y-109500463D01*
X87371327Y-109548082D01*
X109659993Y-119565129D02*
X109612374Y-119612748D01*
X109469517Y-119660367D01*
X109374279Y-119660367D01*
X109231422Y-119612748D01*
X109136184Y-119517510D01*
X109088565Y-119422272D01*
X109040946Y-119231796D01*
X109040946Y-119088939D01*
X109088565Y-118898463D01*
X109136184Y-118803225D01*
X109231422Y-118707987D01*
X109374279Y-118660367D01*
X109469517Y-118660367D01*
X109612374Y-118707987D01*
X109659993Y-118755606D01*
X110612374Y-119660367D02*
X110040946Y-119660367D01*
X110326660Y-119660367D02*
X110326660Y-118660367D01*
X110231422Y-118803225D01*
X110136184Y-118898463D01*
X110040946Y-118946082D01*
X111517136Y-118660367D02*
X111040946Y-118660367D01*
X110993327Y-119136558D01*
X111040946Y-119088939D01*
X111136184Y-119041320D01*
X111374279Y-119041320D01*
X111469517Y-119088939D01*
X111517136Y-119136558D01*
X111564755Y-119231796D01*
X111564755Y-119469891D01*
X111517136Y-119565129D01*
X111469517Y-119612748D01*
X111374279Y-119660367D01*
X111136184Y-119660367D01*
X111040946Y-119612748D01*
X110993327Y-119565129D01*
X83720184Y-116104367D02*
X83386851Y-115628177D01*
X83148755Y-116104367D02*
X83148755Y-115104367D01*
X83529708Y-115104367D01*
X83624946Y-115151987D01*
X83672565Y-115199606D01*
X83720184Y-115294844D01*
X83720184Y-115437701D01*
X83672565Y-115532939D01*
X83624946Y-115580558D01*
X83529708Y-115628177D01*
X83148755Y-115628177D01*
X84624946Y-115104367D02*
X84148755Y-115104367D01*
X84101136Y-115580558D01*
X84148755Y-115532939D01*
X84243993Y-115485320D01*
X84482089Y-115485320D01*
X84577327Y-115532939D01*
X84624946Y-115580558D01*
X84672565Y-115675796D01*
X84672565Y-115913891D01*
X84624946Y-116009129D01*
X84577327Y-116056748D01*
X84482089Y-116104367D01*
X84243993Y-116104367D01*
X84148755Y-116056748D01*
X84101136Y-116009129D01*
X99634946Y-127042367D02*
X99634946Y-127851891D01*
X99682565Y-127947129D01*
X99730184Y-127994748D01*
X99825422Y-128042367D01*
X100015898Y-128042367D01*
X100111136Y-127994748D01*
X100158755Y-127947129D01*
X100206374Y-127851891D01*
X100206374Y-127042367D01*
X100634946Y-127137606D02*
X100682565Y-127089987D01*
X100777803Y-127042367D01*
X101015898Y-127042367D01*
X101111136Y-127089987D01*
X101158755Y-127137606D01*
X101206374Y-127232844D01*
X101206374Y-127328082D01*
X101158755Y-127470939D01*
X100587327Y-128042367D01*
X101206374Y-128042367D01*
X95729612Y-87243606D02*
X95634374Y-87195987D01*
X95539136Y-87100748D01*
X95396279Y-86957891D01*
X95301041Y-86910272D01*
X95205803Y-86910272D01*
X95253422Y-87148367D02*
X95158184Y-87100748D01*
X95062946Y-87005510D01*
X95015327Y-86815034D01*
X95015327Y-86481701D01*
X95062946Y-86291225D01*
X95158184Y-86195987D01*
X95253422Y-86148367D01*
X95443898Y-86148367D01*
X95539136Y-86195987D01*
X95634374Y-86291225D01*
X95681993Y-86481701D01*
X95681993Y-86815034D01*
X95634374Y-87005510D01*
X95539136Y-87100748D01*
X95443898Y-87148367D01*
X95253422Y-87148367D01*
X96539136Y-86148367D02*
X96348660Y-86148367D01*
X96253422Y-86195987D01*
X96205803Y-86243606D01*
X96110565Y-86386463D01*
X96062946Y-86576939D01*
X96062946Y-86957891D01*
X96110565Y-87053129D01*
X96158184Y-87100748D01*
X96253422Y-87148367D01*
X96443898Y-87148367D01*
X96539136Y-87100748D01*
X96586755Y-87053129D01*
X96634374Y-86957891D01*
X96634374Y-86719796D01*
X96586755Y-86624558D01*
X96539136Y-86576939D01*
X96443898Y-86529320D01*
X96253422Y-86529320D01*
X96158184Y-86576939D01*
X96110565Y-86624558D01*
X96062946Y-86719796D01*
D11*
X107695422Y-101606558D02*
X107671612Y-101630367D01*
X107600184Y-101654177D01*
X107552565Y-101654177D01*
X107481136Y-101630367D01*
X107433517Y-101582748D01*
X107409708Y-101535129D01*
X107385898Y-101439891D01*
X107385898Y-101368463D01*
X107409708Y-101273225D01*
X107433517Y-101225606D01*
X107481136Y-101177987D01*
X107552565Y-101154177D01*
X107600184Y-101154177D01*
X107671612Y-101177987D01*
X107695422Y-101201796D01*
X108171612Y-101654177D02*
X107885898Y-101654177D01*
X108028755Y-101654177D02*
X108028755Y-101154177D01*
X107981136Y-101225606D01*
X107933517Y-101273225D01*
X107885898Y-101297034D01*
X108338279Y-101154177D02*
X108647803Y-101154177D01*
X108481136Y-101344653D01*
X108552565Y-101344653D01*
X108600184Y-101368463D01*
X108623993Y-101392272D01*
X108647803Y-101439891D01*
X108647803Y-101558939D01*
X108623993Y-101606558D01*
X108600184Y-101630367D01*
X108552565Y-101654177D01*
X108409708Y-101654177D01*
X108362089Y-101630367D01*
X108338279Y-101606558D01*
D10*
X116784184Y-104540716D02*
X116307993Y-104540716D01*
X116307993Y-103540716D01*
X117641327Y-104540716D02*
X117069898Y-104540716D01*
X117355612Y-104540716D02*
X117355612Y-103540716D01*
X117260374Y-103683574D01*
X117165136Y-103778812D01*
X117069898Y-103826431D01*
X100896993Y-93118367D02*
X100563660Y-92642177D01*
X100325565Y-93118367D02*
X100325565Y-92118367D01*
X100706517Y-92118367D01*
X100801755Y-92165987D01*
X100849374Y-92213606D01*
X100896993Y-92308844D01*
X100896993Y-92451701D01*
X100849374Y-92546939D01*
X100801755Y-92594558D01*
X100706517Y-92642177D01*
X100325565Y-92642177D01*
X101849374Y-93118367D02*
X101277946Y-93118367D01*
X101563660Y-93118367D02*
X101563660Y-92118367D01*
X101468422Y-92261225D01*
X101373184Y-92356463D01*
X101277946Y-92404082D01*
X102230327Y-92213606D02*
X102277946Y-92165987D01*
X102373184Y-92118367D01*
X102611279Y-92118367D01*
X102706517Y-92165987D01*
X102754136Y-92213606D01*
X102801755Y-92308844D01*
X102801755Y-92404082D01*
X102754136Y-92546939D01*
X102182708Y-93118367D01*
X102801755Y-93118367D01*
X84259993Y-112707129D02*
X84212374Y-112754748D01*
X84069517Y-112802367D01*
X83974279Y-112802367D01*
X83831422Y-112754748D01*
X83736184Y-112659510D01*
X83688565Y-112564272D01*
X83640946Y-112373796D01*
X83640946Y-112230939D01*
X83688565Y-112040463D01*
X83736184Y-111945225D01*
X83831422Y-111849987D01*
X83974279Y-111802367D01*
X84069517Y-111802367D01*
X84212374Y-111849987D01*
X84259993Y-111897606D01*
X85212374Y-112802367D02*
X84640946Y-112802367D01*
X84926660Y-112802367D02*
X84926660Y-111802367D01*
X84831422Y-111945225D01*
X84736184Y-112040463D01*
X84640946Y-112088082D01*
X85831422Y-111802367D02*
X85926660Y-111802367D01*
X86021898Y-111849987D01*
X86069517Y-111897606D01*
X86117136Y-111992844D01*
X86164755Y-112183320D01*
X86164755Y-112421415D01*
X86117136Y-112611891D01*
X86069517Y-112707129D01*
X86021898Y-112754748D01*
X85926660Y-112802367D01*
X85831422Y-112802367D01*
X85736184Y-112754748D01*
X85688565Y-112707129D01*
X85640946Y-112611891D01*
X85593327Y-112421415D01*
X85593327Y-112183320D01*
X85640946Y-111992844D01*
X85688565Y-111897606D01*
X85736184Y-111849987D01*
X85831422Y-111802367D01*
X89982946Y-98340367D02*
X89982946Y-99149891D01*
X90030565Y-99245129D01*
X90078184Y-99292748D01*
X90173422Y-99340367D01*
X90363898Y-99340367D01*
X90459136Y-99292748D01*
X90506755Y-99245129D01*
X90554374Y-99149891D01*
X90554374Y-98340367D01*
X90935327Y-98340367D02*
X91601993Y-98340367D01*
X91173422Y-99340367D01*
X106103993Y-129725129D02*
X106056374Y-129772748D01*
X105913517Y-129820367D01*
X105818279Y-129820367D01*
X105675422Y-129772748D01*
X105580184Y-129677510D01*
X105532565Y-129582272D01*
X105484946Y-129391796D01*
X105484946Y-129248939D01*
X105532565Y-129058463D01*
X105580184Y-128963225D01*
X105675422Y-128867987D01*
X105818279Y-128820367D01*
X105913517Y-128820367D01*
X106056374Y-128867987D01*
X106103993Y-128915606D01*
X107056374Y-129820367D02*
X106484946Y-129820367D01*
X106770660Y-129820367D02*
X106770660Y-128820367D01*
X106675422Y-128963225D01*
X106580184Y-129058463D01*
X106484946Y-129106082D01*
X107627803Y-129248939D02*
X107532565Y-129201320D01*
X107484946Y-129153701D01*
X107437327Y-129058463D01*
X107437327Y-129010844D01*
X107484946Y-128915606D01*
X107532565Y-128867987D01*
X107627803Y-128820367D01*
X107818279Y-128820367D01*
X107913517Y-128867987D01*
X107961136Y-128915606D01*
X108008755Y-129010844D01*
X108008755Y-129058463D01*
X107961136Y-129153701D01*
X107913517Y-129201320D01*
X107818279Y-129248939D01*
X107627803Y-129248939D01*
X107532565Y-129296558D01*
X107484946Y-129344177D01*
X107437327Y-129439415D01*
X107437327Y-129629891D01*
X107484946Y-129725129D01*
X107532565Y-129772748D01*
X107627803Y-129820367D01*
X107818279Y-129820367D01*
X107913517Y-129772748D01*
X107961136Y-129725129D01*
X108008755Y-129629891D01*
X108008755Y-129439415D01*
X107961136Y-129344177D01*
X107913517Y-129296558D01*
X107818279Y-129248939D01*
X119565993Y-119658716D02*
X119232660Y-119182526D01*
X118994565Y-119658716D02*
X118994565Y-118658716D01*
X119375517Y-118658716D01*
X119470755Y-118706336D01*
X119518374Y-118753955D01*
X119565993Y-118849193D01*
X119565993Y-118992050D01*
X119518374Y-119087288D01*
X119470755Y-119134907D01*
X119375517Y-119182526D01*
X118994565Y-119182526D01*
X120518374Y-119658716D02*
X119946946Y-119658716D01*
X120232660Y-119658716D02*
X120232660Y-118658716D01*
X120137422Y-118801574D01*
X120042184Y-118896812D01*
X119946946Y-118944431D01*
X121089803Y-119087288D02*
X120994565Y-119039669D01*
X120946946Y-118992050D01*
X120899327Y-118896812D01*
X120899327Y-118849193D01*
X120946946Y-118753955D01*
X120994565Y-118706336D01*
X121089803Y-118658716D01*
X121280279Y-118658716D01*
X121375517Y-118706336D01*
X121423136Y-118753955D01*
X121470755Y-118849193D01*
X121470755Y-118896812D01*
X121423136Y-118992050D01*
X121375517Y-119039669D01*
X121280279Y-119087288D01*
X121089803Y-119087288D01*
X120994565Y-119134907D01*
X120946946Y-119182526D01*
X120899327Y-119277764D01*
X120899327Y-119468240D01*
X120946946Y-119563478D01*
X120994565Y-119611097D01*
X121089803Y-119658716D01*
X121280279Y-119658716D01*
X121375517Y-119611097D01*
X121423136Y-119563478D01*
X121470755Y-119468240D01*
X121470755Y-119277764D01*
X121423136Y-119182526D01*
X121375517Y-119134907D01*
X121280279Y-119087288D01*
X74576184Y-95435129D02*
X74528565Y-95482748D01*
X74385708Y-95530367D01*
X74290470Y-95530367D01*
X74147612Y-95482748D01*
X74052374Y-95387510D01*
X74004755Y-95292272D01*
X73957136Y-95101796D01*
X73957136Y-94958939D01*
X74004755Y-94768463D01*
X74052374Y-94673225D01*
X74147612Y-94577987D01*
X74290470Y-94530367D01*
X74385708Y-94530367D01*
X74528565Y-94577987D01*
X74576184Y-94625606D01*
X74909517Y-94530367D02*
X75576184Y-94530367D01*
X75147612Y-95530367D01*
X113001612Y-119930955D02*
X112906374Y-119883336D01*
X112811136Y-119788097D01*
X112668279Y-119645240D01*
X112573041Y-119597621D01*
X112477803Y-119597621D01*
X112525422Y-119835716D02*
X112430184Y-119788097D01*
X112334946Y-119692859D01*
X112287327Y-119502383D01*
X112287327Y-119169050D01*
X112334946Y-118978574D01*
X112430184Y-118883336D01*
X112525422Y-118835716D01*
X112715898Y-118835716D01*
X112811136Y-118883336D01*
X112906374Y-118978574D01*
X112953993Y-119169050D01*
X112953993Y-119502383D01*
X112906374Y-119692859D01*
X112811136Y-119788097D01*
X112715898Y-119835716D01*
X112525422Y-119835716D01*
X113287327Y-118835716D02*
X113953993Y-118835716D01*
X113525422Y-119835716D01*
X122105993Y-133535129D02*
X122058374Y-133582748D01*
X121915517Y-133630367D01*
X121820279Y-133630367D01*
X121677422Y-133582748D01*
X121582184Y-133487510D01*
X121534565Y-133392272D01*
X121486946Y-133201796D01*
X121486946Y-133058939D01*
X121534565Y-132868463D01*
X121582184Y-132773225D01*
X121677422Y-132677987D01*
X121820279Y-132630367D01*
X121915517Y-132630367D01*
X122058374Y-132677987D01*
X122105993Y-132725606D01*
X122486946Y-132725606D02*
X122534565Y-132677987D01*
X122629803Y-132630367D01*
X122867898Y-132630367D01*
X122963136Y-132677987D01*
X123010755Y-132725606D01*
X123058374Y-132820844D01*
X123058374Y-132916082D01*
X123010755Y-133058939D01*
X122439327Y-133630367D01*
X123058374Y-133630367D01*
X123677422Y-132630367D02*
X123772660Y-132630367D01*
X123867898Y-132677987D01*
X123915517Y-132725606D01*
X123963136Y-132820844D01*
X124010755Y-133011320D01*
X124010755Y-133249415D01*
X123963136Y-133439891D01*
X123915517Y-133535129D01*
X123867898Y-133582748D01*
X123772660Y-133630367D01*
X123677422Y-133630367D01*
X123582184Y-133582748D01*
X123534565Y-133535129D01*
X123486946Y-133439891D01*
X123439327Y-133249415D01*
X123439327Y-133011320D01*
X123486946Y-132820844D01*
X123534565Y-132725606D01*
X123582184Y-132677987D01*
X123677422Y-132630367D01*
X107596184Y-135821129D02*
X107548565Y-135868748D01*
X107405708Y-135916367D01*
X107310470Y-135916367D01*
X107167612Y-135868748D01*
X107072374Y-135773510D01*
X107024755Y-135678272D01*
X106977136Y-135487796D01*
X106977136Y-135344939D01*
X107024755Y-135154463D01*
X107072374Y-135059225D01*
X107167612Y-134963987D01*
X107310470Y-134916367D01*
X107405708Y-134916367D01*
X107548565Y-134963987D01*
X107596184Y-135011606D01*
X108500946Y-134916367D02*
X108024755Y-134916367D01*
X107977136Y-135392558D01*
X108024755Y-135344939D01*
X108119993Y-135297320D01*
X108358089Y-135297320D01*
X108453327Y-135344939D01*
X108500946Y-135392558D01*
X108548565Y-135487796D01*
X108548565Y-135725891D01*
X108500946Y-135821129D01*
X108453327Y-135868748D01*
X108358089Y-135916367D01*
X108119993Y-135916367D01*
X108024755Y-135868748D01*
X107977136Y-135821129D01*
X99706184Y-139472367D02*
X99372851Y-138996177D01*
X99134755Y-139472367D02*
X99134755Y-138472367D01*
X99515708Y-138472367D01*
X99610946Y-138519987D01*
X99658565Y-138567606D01*
X99706184Y-138662844D01*
X99706184Y-138805701D01*
X99658565Y-138900939D01*
X99610946Y-138948558D01*
X99515708Y-138996177D01*
X99134755Y-138996177D01*
X100087136Y-138567606D02*
X100134755Y-138519987D01*
X100229993Y-138472367D01*
X100468089Y-138472367D01*
X100563327Y-138519987D01*
X100610946Y-138567606D01*
X100658565Y-138662844D01*
X100658565Y-138758082D01*
X100610946Y-138900939D01*
X100039517Y-139472367D01*
X100658565Y-139472367D01*
X74322184Y-112707129D02*
X74274565Y-112754748D01*
X74131708Y-112802367D01*
X74036470Y-112802367D01*
X73893612Y-112754748D01*
X73798374Y-112659510D01*
X73750755Y-112564272D01*
X73703136Y-112373796D01*
X73703136Y-112230939D01*
X73750755Y-112040463D01*
X73798374Y-111945225D01*
X73893612Y-111849987D01*
X74036470Y-111802367D01*
X74131708Y-111802367D01*
X74274565Y-111849987D01*
X74322184Y-111897606D01*
X74798374Y-112802367D02*
X74988851Y-112802367D01*
X75084089Y-112754748D01*
X75131708Y-112707129D01*
X75226946Y-112564272D01*
X75274565Y-112373796D01*
X75274565Y-111992844D01*
X75226946Y-111897606D01*
X75179327Y-111849987D01*
X75084089Y-111802367D01*
X74893612Y-111802367D01*
X74798374Y-111849987D01*
X74750755Y-111897606D01*
X74703136Y-111992844D01*
X74703136Y-112230939D01*
X74750755Y-112326177D01*
X74798374Y-112373796D01*
X74893612Y-112421415D01*
X75084089Y-112421415D01*
X75179327Y-112373796D01*
X75226946Y-112326177D01*
X75274565Y-112230939D01*
X125915993Y-126518367D02*
X125582660Y-126042177D01*
X125344565Y-126518367D02*
X125344565Y-125518367D01*
X125725517Y-125518367D01*
X125820755Y-125565987D01*
X125868374Y-125613606D01*
X125915993Y-125708844D01*
X125915993Y-125851701D01*
X125868374Y-125946939D01*
X125820755Y-125994558D01*
X125725517Y-126042177D01*
X125344565Y-126042177D01*
X126868374Y-126518367D02*
X126296946Y-126518367D01*
X126582660Y-126518367D02*
X126582660Y-125518367D01*
X126487422Y-125661225D01*
X126392184Y-125756463D01*
X126296946Y-125804082D01*
X127725517Y-125851701D02*
X127725517Y-126518367D01*
X127487422Y-125470748D02*
X127249327Y-126185034D01*
X127868374Y-126185034D01*
X122562755Y-110990716D02*
X122562755Y-109990716D01*
X122800851Y-109990716D01*
X122943708Y-110038336D01*
X123038946Y-110133574D01*
X123086565Y-110228812D01*
X123134184Y-110419288D01*
X123134184Y-110562145D01*
X123086565Y-110752621D01*
X123038946Y-110847859D01*
X122943708Y-110943097D01*
X122800851Y-110990716D01*
X122562755Y-110990716D01*
X123991327Y-110324050D02*
X123991327Y-110990716D01*
X123753231Y-109943097D02*
X123515136Y-110657383D01*
X124134184Y-110657383D01*
X125915993Y-121946367D02*
X125582660Y-121470177D01*
X125344565Y-121946367D02*
X125344565Y-120946367D01*
X125725517Y-120946367D01*
X125820755Y-120993987D01*
X125868374Y-121041606D01*
X125915993Y-121136844D01*
X125915993Y-121279701D01*
X125868374Y-121374939D01*
X125820755Y-121422558D01*
X125725517Y-121470177D01*
X125344565Y-121470177D01*
X126868374Y-121946367D02*
X126296946Y-121946367D01*
X126582660Y-121946367D02*
X126582660Y-120946367D01*
X126487422Y-121089225D01*
X126392184Y-121184463D01*
X126296946Y-121232082D01*
X127773136Y-120946367D02*
X127296946Y-120946367D01*
X127249327Y-121422558D01*
X127296946Y-121374939D01*
X127392184Y-121327320D01*
X127630279Y-121327320D01*
X127725517Y-121374939D01*
X127773136Y-121422558D01*
X127820755Y-121517796D01*
X127820755Y-121755891D01*
X127773136Y-121851129D01*
X127725517Y-121898748D01*
X127630279Y-121946367D01*
X127392184Y-121946367D01*
X127296946Y-121898748D01*
X127249327Y-121851129D01*
X128201993Y-131852367D02*
X127868660Y-131376177D01*
X127630565Y-131852367D02*
X127630565Y-130852367D01*
X128011517Y-130852367D01*
X128106755Y-130899987D01*
X128154374Y-130947606D01*
X128201993Y-131042844D01*
X128201993Y-131185701D01*
X128154374Y-131280939D01*
X128106755Y-131328558D01*
X128011517Y-131376177D01*
X127630565Y-131376177D01*
X129154374Y-131852367D02*
X128582946Y-131852367D01*
X128868660Y-131852367D02*
X128868660Y-130852367D01*
X128773422Y-130995225D01*
X128678184Y-131090463D01*
X128582946Y-131138082D01*
X129630565Y-131852367D02*
X129821041Y-131852367D01*
X129916279Y-131804748D01*
X129963898Y-131757129D01*
X130059136Y-131614272D01*
X130106755Y-131423796D01*
X130106755Y-131042844D01*
X130059136Y-130947606D01*
X130011517Y-130899987D01*
X129916279Y-130852367D01*
X129725803Y-130852367D01*
X129630565Y-130899987D01*
X129582946Y-130947606D01*
X129535327Y-131042844D01*
X129535327Y-131280939D01*
X129582946Y-131376177D01*
X129630565Y-131423796D01*
X129725803Y-131471415D01*
X129916279Y-131471415D01*
X130011517Y-131423796D01*
X130059136Y-131376177D01*
X130106755Y-131280939D01*
X74830184Y-119152367D02*
X74496851Y-118676177D01*
X74258755Y-119152367D02*
X74258755Y-118152367D01*
X74639708Y-118152367D01*
X74734946Y-118199987D01*
X74782565Y-118247606D01*
X74830184Y-118342844D01*
X74830184Y-118485701D01*
X74782565Y-118580939D01*
X74734946Y-118628558D01*
X74639708Y-118676177D01*
X74258755Y-118676177D01*
X75782565Y-119152367D02*
X75211136Y-119152367D01*
X75496851Y-119152367D02*
X75496851Y-118152367D01*
X75401612Y-118295225D01*
X75306374Y-118390463D01*
X75211136Y-118438082D01*
X121129612Y-115437606D02*
X121034374Y-115389987D01*
X120939136Y-115294748D01*
X120796279Y-115151891D01*
X120701041Y-115104272D01*
X120605803Y-115104272D01*
X120653422Y-115342367D02*
X120558184Y-115294748D01*
X120462946Y-115199510D01*
X120415327Y-115009034D01*
X120415327Y-114675701D01*
X120462946Y-114485225D01*
X120558184Y-114389987D01*
X120653422Y-114342367D01*
X120843898Y-114342367D01*
X120939136Y-114389987D01*
X121034374Y-114485225D01*
X121081993Y-114675701D01*
X121081993Y-115009034D01*
X121034374Y-115199510D01*
X120939136Y-115294748D01*
X120843898Y-115342367D01*
X120653422Y-115342367D01*
X121653422Y-114770939D02*
X121558184Y-114723320D01*
X121510565Y-114675701D01*
X121462946Y-114580463D01*
X121462946Y-114532844D01*
X121510565Y-114437606D01*
X121558184Y-114389987D01*
X121653422Y-114342367D01*
X121843898Y-114342367D01*
X121939136Y-114389987D01*
X121986755Y-114437606D01*
X122034374Y-114532844D01*
X122034374Y-114580463D01*
X121986755Y-114675701D01*
X121939136Y-114723320D01*
X121843898Y-114770939D01*
X121653422Y-114770939D01*
X121558184Y-114818558D01*
X121510565Y-114866177D01*
X121462946Y-114961415D01*
X121462946Y-115151891D01*
X121510565Y-115247129D01*
X121558184Y-115294748D01*
X121653422Y-115342367D01*
X121843898Y-115342367D01*
X121939136Y-115294748D01*
X121986755Y-115247129D01*
X122034374Y-115151891D01*
X122034374Y-114961415D01*
X121986755Y-114866177D01*
X121939136Y-114818558D01*
X121843898Y-114770939D01*
X74766755Y-88418367D02*
X74766755Y-87418367D01*
X75004851Y-87418367D01*
X75147708Y-87465987D01*
X75242946Y-87561225D01*
X75290565Y-87656463D01*
X75338184Y-87846939D01*
X75338184Y-87989796D01*
X75290565Y-88180272D01*
X75242946Y-88275510D01*
X75147708Y-88370748D01*
X75004851Y-88418367D01*
X74766755Y-88418367D01*
X75671517Y-87418367D02*
X76290565Y-87418367D01*
X75957231Y-87799320D01*
X76100089Y-87799320D01*
X76195327Y-87846939D01*
X76242946Y-87894558D01*
X76290565Y-87989796D01*
X76290565Y-88227891D01*
X76242946Y-88323129D01*
X76195327Y-88370748D01*
X76100089Y-88418367D01*
X75814374Y-88418367D01*
X75719136Y-88370748D01*
X75671517Y-88323129D01*
X129769231Y-92363320D02*
X130483517Y-92363320D01*
X130626374Y-92410939D01*
X130721612Y-92506177D01*
X130769231Y-92649034D01*
X130769231Y-92744272D01*
X129864470Y-91934748D02*
X129816851Y-91887129D01*
X129769231Y-91791891D01*
X129769231Y-91553796D01*
X129816851Y-91458558D01*
X129864470Y-91410939D01*
X129959708Y-91363320D01*
X130054946Y-91363320D01*
X130197803Y-91410939D01*
X130769231Y-91982367D01*
X130769231Y-91363320D01*
X89054184Y-91625129D02*
X89006565Y-91672748D01*
X88863708Y-91720367D01*
X88768470Y-91720367D01*
X88625612Y-91672748D01*
X88530374Y-91577510D01*
X88482755Y-91482272D01*
X88435136Y-91291796D01*
X88435136Y-91148939D01*
X88482755Y-90958463D01*
X88530374Y-90863225D01*
X88625612Y-90767987D01*
X88768470Y-90720367D01*
X88863708Y-90720367D01*
X89006565Y-90767987D01*
X89054184Y-90815606D01*
X89911327Y-90720367D02*
X89720851Y-90720367D01*
X89625612Y-90767987D01*
X89577993Y-90815606D01*
X89482755Y-90958463D01*
X89435136Y-91148939D01*
X89435136Y-91529891D01*
X89482755Y-91625129D01*
X89530374Y-91672748D01*
X89625612Y-91720367D01*
X89816089Y-91720367D01*
X89911327Y-91672748D01*
X89958946Y-91625129D01*
X90006565Y-91529891D01*
X90006565Y-91291796D01*
X89958946Y-91196558D01*
X89911327Y-91148939D01*
X89816089Y-91101320D01*
X89625612Y-91101320D01*
X89530374Y-91148939D01*
X89482755Y-91196558D01*
X89435136Y-91291796D01*
X105976993Y-93118367D02*
X105643660Y-92642177D01*
X105405565Y-93118367D02*
X105405565Y-92118367D01*
X105786517Y-92118367D01*
X105881755Y-92165987D01*
X105929374Y-92213606D01*
X105976993Y-92308844D01*
X105976993Y-92451701D01*
X105929374Y-92546939D01*
X105881755Y-92594558D01*
X105786517Y-92642177D01*
X105405565Y-92642177D01*
X106929374Y-93118367D02*
X106357946Y-93118367D01*
X106643660Y-93118367D02*
X106643660Y-92118367D01*
X106548422Y-92261225D01*
X106453184Y-92356463D01*
X106357946Y-92404082D01*
X107881755Y-93118367D02*
X107310327Y-93118367D01*
X107596041Y-93118367D02*
X107596041Y-92118367D01*
X107500803Y-92261225D01*
X107405565Y-92356463D01*
X107310327Y-92404082D01*
X89054184Y-93752367D02*
X88720851Y-93276177D01*
X88482755Y-93752367D02*
X88482755Y-92752367D01*
X88863708Y-92752367D01*
X88958946Y-92799987D01*
X89006565Y-92847606D01*
X89054184Y-92942844D01*
X89054184Y-93085701D01*
X89006565Y-93180939D01*
X88958946Y-93228558D01*
X88863708Y-93276177D01*
X88482755Y-93276177D01*
X89387517Y-92752367D02*
X90006565Y-92752367D01*
X89673231Y-93133320D01*
X89816089Y-93133320D01*
X89911327Y-93180939D01*
X89958946Y-93228558D01*
X90006565Y-93323796D01*
X90006565Y-93561891D01*
X89958946Y-93657129D01*
X89911327Y-93704748D01*
X89816089Y-93752367D01*
X89530374Y-93752367D01*
X89435136Y-93704748D01*
X89387517Y-93657129D01*
X77624184Y-102195129D02*
X77576565Y-102242748D01*
X77433708Y-102290367D01*
X77338470Y-102290367D01*
X77195612Y-102242748D01*
X77100374Y-102147510D01*
X77052755Y-102052272D01*
X77005136Y-101861796D01*
X77005136Y-101718939D01*
X77052755Y-101528463D01*
X77100374Y-101433225D01*
X77195612Y-101337987D01*
X77338470Y-101290367D01*
X77433708Y-101290367D01*
X77576565Y-101337987D01*
X77624184Y-101385606D01*
X78195612Y-101718939D02*
X78100374Y-101671320D01*
X78052755Y-101623701D01*
X78005136Y-101528463D01*
X78005136Y-101480844D01*
X78052755Y-101385606D01*
X78100374Y-101337987D01*
X78195612Y-101290367D01*
X78386089Y-101290367D01*
X78481327Y-101337987D01*
X78528946Y-101385606D01*
X78576565Y-101480844D01*
X78576565Y-101528463D01*
X78528946Y-101623701D01*
X78481327Y-101671320D01*
X78386089Y-101718939D01*
X78195612Y-101718939D01*
X78100374Y-101766558D01*
X78052755Y-101814177D01*
X78005136Y-101909415D01*
X78005136Y-102099891D01*
X78052755Y-102195129D01*
X78100374Y-102242748D01*
X78195612Y-102290367D01*
X78386089Y-102290367D01*
X78481327Y-102242748D01*
X78528946Y-102195129D01*
X78576565Y-102099891D01*
X78576565Y-101909415D01*
X78528946Y-101814177D01*
X78481327Y-101766558D01*
X78386089Y-101718939D01*
X73845993Y-109754367D02*
X73512660Y-109278177D01*
X73274565Y-109754367D02*
X73274565Y-108754367D01*
X73655517Y-108754367D01*
X73750755Y-108801987D01*
X73798374Y-108849606D01*
X73845993Y-108944844D01*
X73845993Y-109087701D01*
X73798374Y-109182939D01*
X73750755Y-109230558D01*
X73655517Y-109278177D01*
X73274565Y-109278177D01*
X74798374Y-109754367D02*
X74226946Y-109754367D01*
X74512660Y-109754367D02*
X74512660Y-108754367D01*
X74417422Y-108897225D01*
X74322184Y-108992463D01*
X74226946Y-109040082D01*
X75131708Y-108754367D02*
X75750755Y-108754367D01*
X75417422Y-109135320D01*
X75560279Y-109135320D01*
X75655517Y-109182939D01*
X75703136Y-109230558D01*
X75750755Y-109325796D01*
X75750755Y-109563891D01*
X75703136Y-109659129D01*
X75655517Y-109706748D01*
X75560279Y-109754367D01*
X75274565Y-109754367D01*
X75179327Y-109706748D01*
X75131708Y-109659129D01*
X102079612Y-87243606D02*
X101984374Y-87195987D01*
X101889136Y-87100748D01*
X101746279Y-86957891D01*
X101651041Y-86910272D01*
X101555803Y-86910272D01*
X101603422Y-87148367D02*
X101508184Y-87100748D01*
X101412946Y-87005510D01*
X101365327Y-86815034D01*
X101365327Y-86481701D01*
X101412946Y-86291225D01*
X101508184Y-86195987D01*
X101603422Y-86148367D01*
X101793898Y-86148367D01*
X101889136Y-86195987D01*
X101984374Y-86291225D01*
X102031993Y-86481701D01*
X102031993Y-86815034D01*
X101984374Y-87005510D01*
X101889136Y-87100748D01*
X101793898Y-87148367D01*
X101603422Y-87148367D01*
X102889136Y-86481701D02*
X102889136Y-87148367D01*
X102651041Y-86100748D02*
X102412946Y-86815034D01*
X103031993Y-86815034D01*
X104873612Y-87243606D02*
X104778374Y-87195987D01*
X104683136Y-87100748D01*
X104540279Y-86957891D01*
X104445041Y-86910272D01*
X104349803Y-86910272D01*
X104397422Y-87148367D02*
X104302184Y-87100748D01*
X104206946Y-87005510D01*
X104159327Y-86815034D01*
X104159327Y-86481701D01*
X104206946Y-86291225D01*
X104302184Y-86195987D01*
X104397422Y-86148367D01*
X104587898Y-86148367D01*
X104683136Y-86195987D01*
X104778374Y-86291225D01*
X104825993Y-86481701D01*
X104825993Y-86815034D01*
X104778374Y-87005510D01*
X104683136Y-87100748D01*
X104587898Y-87148367D01*
X104397422Y-87148367D01*
X105159327Y-86148367D02*
X105778374Y-86148367D01*
X105445041Y-86529320D01*
X105587898Y-86529320D01*
X105683136Y-86576939D01*
X105730755Y-86624558D01*
X105778374Y-86719796D01*
X105778374Y-86957891D01*
X105730755Y-87053129D01*
X105683136Y-87100748D01*
X105587898Y-87148367D01*
X105302184Y-87148367D01*
X105206946Y-87100748D01*
X105159327Y-87053129D01*
X98777612Y-87243606D02*
X98682374Y-87195987D01*
X98587136Y-87100748D01*
X98444279Y-86957891D01*
X98349041Y-86910272D01*
X98253803Y-86910272D01*
X98301422Y-87148367D02*
X98206184Y-87100748D01*
X98110946Y-87005510D01*
X98063327Y-86815034D01*
X98063327Y-86481701D01*
X98110946Y-86291225D01*
X98206184Y-86195987D01*
X98301422Y-86148367D01*
X98491898Y-86148367D01*
X98587136Y-86195987D01*
X98682374Y-86291225D01*
X98729993Y-86481701D01*
X98729993Y-86815034D01*
X98682374Y-87005510D01*
X98587136Y-87100748D01*
X98491898Y-87148367D01*
X98301422Y-87148367D01*
X99634755Y-86148367D02*
X99158565Y-86148367D01*
X99110946Y-86624558D01*
X99158565Y-86576939D01*
X99253803Y-86529320D01*
X99491898Y-86529320D01*
X99587136Y-86576939D01*
X99634755Y-86624558D01*
X99682374Y-86719796D01*
X99682374Y-86957891D01*
X99634755Y-87053129D01*
X99587136Y-87100748D01*
X99491898Y-87148367D01*
X99253803Y-87148367D01*
X99158565Y-87100748D01*
X99110946Y-87053129D01*
X94388184Y-128709129D02*
X94340565Y-128756748D01*
X94197708Y-128804367D01*
X94102470Y-128804367D01*
X93959612Y-128756748D01*
X93864374Y-128661510D01*
X93816755Y-128566272D01*
X93769136Y-128375796D01*
X93769136Y-128232939D01*
X93816755Y-128042463D01*
X93864374Y-127947225D01*
X93959612Y-127851987D01*
X94102470Y-127804367D01*
X94197708Y-127804367D01*
X94340565Y-127851987D01*
X94388184Y-127899606D01*
X94721517Y-127804367D02*
X95340565Y-127804367D01*
X95007231Y-128185320D01*
X95150089Y-128185320D01*
X95245327Y-128232939D01*
X95292946Y-128280558D01*
X95340565Y-128375796D01*
X95340565Y-128613891D01*
X95292946Y-128709129D01*
X95245327Y-128756748D01*
X95150089Y-128804367D01*
X94864374Y-128804367D01*
X94769136Y-128756748D01*
X94721517Y-128709129D01*
X88292184Y-116104367D02*
X87958851Y-115628177D01*
X87720755Y-116104367D02*
X87720755Y-115104367D01*
X88101708Y-115104367D01*
X88196946Y-115151987D01*
X88244565Y-115199606D01*
X88292184Y-115294844D01*
X88292184Y-115437701D01*
X88244565Y-115532939D01*
X88196946Y-115580558D01*
X88101708Y-115628177D01*
X87720755Y-115628177D01*
X88625517Y-115104367D02*
X89292184Y-115104367D01*
X88863612Y-116104367D01*
X78163993Y-104579129D02*
X78116374Y-104626748D01*
X77973517Y-104674367D01*
X77878279Y-104674367D01*
X77735422Y-104626748D01*
X77640184Y-104531510D01*
X77592565Y-104436272D01*
X77544946Y-104245796D01*
X77544946Y-104102939D01*
X77592565Y-103912463D01*
X77640184Y-103817225D01*
X77735422Y-103721987D01*
X77878279Y-103674367D01*
X77973517Y-103674367D01*
X78116374Y-103721987D01*
X78163993Y-103769606D01*
X79116374Y-104674367D02*
X78544946Y-104674367D01*
X78830660Y-104674367D02*
X78830660Y-103674367D01*
X78735422Y-103817225D01*
X78640184Y-103912463D01*
X78544946Y-103960082D01*
X79973517Y-104007701D02*
X79973517Y-104674367D01*
X79735422Y-103626748D02*
X79497327Y-104341034D01*
X80116374Y-104341034D01*
X112588946Y-97070367D02*
X112588946Y-97879891D01*
X112636565Y-97975129D01*
X112684184Y-98022748D01*
X112779422Y-98070367D01*
X112969898Y-98070367D01*
X113065136Y-98022748D01*
X113112755Y-97975129D01*
X113160374Y-97879891D01*
X113160374Y-97070367D01*
X114112755Y-97070367D02*
X113636565Y-97070367D01*
X113588946Y-97546558D01*
X113636565Y-97498939D01*
X113731803Y-97451320D01*
X113969898Y-97451320D01*
X114065136Y-97498939D01*
X114112755Y-97546558D01*
X114160374Y-97641796D01*
X114160374Y-97879891D01*
X114112755Y-97975129D01*
X114065136Y-98022748D01*
X113969898Y-98070367D01*
X113731803Y-98070367D01*
X113636565Y-98022748D01*
X113588946Y-97975129D01*
X113215993Y-101785129D02*
X113168374Y-101832748D01*
X113025517Y-101880367D01*
X112930279Y-101880367D01*
X112787422Y-101832748D01*
X112692184Y-101737510D01*
X112644565Y-101642272D01*
X112596946Y-101451796D01*
X112596946Y-101308939D01*
X112644565Y-101118463D01*
X112692184Y-101023225D01*
X112787422Y-100927987D01*
X112930279Y-100880367D01*
X113025517Y-100880367D01*
X113168374Y-100927987D01*
X113215993Y-100975606D01*
X114168374Y-101880367D02*
X113596946Y-101880367D01*
X113882660Y-101880367D02*
X113882660Y-100880367D01*
X113787422Y-101023225D01*
X113692184Y-101118463D01*
X113596946Y-101166082D01*
X114549327Y-100975606D02*
X114596946Y-100927987D01*
X114692184Y-100880367D01*
X114930279Y-100880367D01*
X115025517Y-100927987D01*
X115073136Y-100975606D01*
X115120755Y-101070844D01*
X115120755Y-101166082D01*
X115073136Y-101308939D01*
X114501708Y-101880367D01*
X115120755Y-101880367D01*
X86006184Y-116104367D02*
X85672851Y-115628177D01*
X85434755Y-116104367D02*
X85434755Y-115104367D01*
X85815708Y-115104367D01*
X85910946Y-115151987D01*
X85958565Y-115199606D01*
X86006184Y-115294844D01*
X86006184Y-115437701D01*
X85958565Y-115532939D01*
X85910946Y-115580558D01*
X85815708Y-115628177D01*
X85434755Y-115628177D01*
X86863327Y-115104367D02*
X86672851Y-115104367D01*
X86577612Y-115151987D01*
X86529993Y-115199606D01*
X86434755Y-115342463D01*
X86387136Y-115532939D01*
X86387136Y-115913891D01*
X86434755Y-116009129D01*
X86482374Y-116056748D01*
X86577612Y-116104367D01*
X86768089Y-116104367D01*
X86863327Y-116056748D01*
X86910946Y-116009129D01*
X86958565Y-115913891D01*
X86958565Y-115675796D01*
X86910946Y-115580558D01*
X86863327Y-115532939D01*
X86768089Y-115485320D01*
X86577612Y-115485320D01*
X86482374Y-115532939D01*
X86434755Y-115580558D01*
X86387136Y-115675796D01*
X90149612Y-106198367D02*
X89816279Y-105722177D01*
X89578184Y-106198367D02*
X89578184Y-105198367D01*
X89959136Y-105198367D01*
X90054374Y-105245987D01*
X90101993Y-105293606D01*
X90149612Y-105388844D01*
X90149612Y-105531701D01*
X90101993Y-105626939D01*
X90054374Y-105674558D01*
X89959136Y-105722177D01*
X89578184Y-105722177D01*
X90435327Y-105198367D02*
X90768660Y-106198367D01*
X91101993Y-105198367D01*
X91387708Y-105293606D02*
X91435327Y-105245987D01*
X91530565Y-105198367D01*
X91768660Y-105198367D01*
X91863898Y-105245987D01*
X91911517Y-105293606D01*
X91959136Y-105388844D01*
X91959136Y-105484082D01*
X91911517Y-105626939D01*
X91340089Y-106198367D01*
X91959136Y-106198367D01*
X118097517Y-79798367D02*
X118097517Y-80512653D01*
X118049898Y-80655510D01*
X117954660Y-80750748D01*
X117811803Y-80798367D01*
X117716565Y-80798367D01*
X119097517Y-80798367D02*
X118526089Y-80798367D01*
X118811803Y-80798367D02*
X118811803Y-79798367D01*
X118716565Y-79941225D01*
X118621327Y-80036463D01*
X118526089Y-80084082D01*
X118295993Y-101785129D02*
X118248374Y-101832748D01*
X118105517Y-101880367D01*
X118010279Y-101880367D01*
X117867422Y-101832748D01*
X117772184Y-101737510D01*
X117724565Y-101642272D01*
X117676946Y-101451796D01*
X117676946Y-101308939D01*
X117724565Y-101118463D01*
X117772184Y-101023225D01*
X117867422Y-100927987D01*
X118010279Y-100880367D01*
X118105517Y-100880367D01*
X118248374Y-100927987D01*
X118295993Y-100975606D01*
X118676946Y-100975606D02*
X118724565Y-100927987D01*
X118819803Y-100880367D01*
X119057898Y-100880367D01*
X119153136Y-100927987D01*
X119200755Y-100975606D01*
X119248374Y-101070844D01*
X119248374Y-101166082D01*
X119200755Y-101308939D01*
X118629327Y-101880367D01*
X119248374Y-101880367D01*
X120200755Y-101880367D02*
X119629327Y-101880367D01*
X119915041Y-101880367D02*
X119915041Y-100880367D01*
X119819803Y-101023225D01*
X119724565Y-101118463D01*
X119629327Y-101166082D01*
X105222946Y-121200367D02*
X105222946Y-122009891D01*
X105270565Y-122105129D01*
X105318184Y-122152748D01*
X105413422Y-122200367D01*
X105603898Y-122200367D01*
X105699136Y-122152748D01*
X105746755Y-122105129D01*
X105794374Y-122009891D01*
X105794374Y-121200367D01*
X106794374Y-122200367D02*
X106222946Y-122200367D01*
X106508660Y-122200367D02*
X106508660Y-121200367D01*
X106413422Y-121343225D01*
X106318184Y-121438463D01*
X106222946Y-121486082D01*
X94388184Y-124899129D02*
X94340565Y-124946748D01*
X94197708Y-124994367D01*
X94102470Y-124994367D01*
X93959612Y-124946748D01*
X93864374Y-124851510D01*
X93816755Y-124756272D01*
X93769136Y-124565796D01*
X93769136Y-124422939D01*
X93816755Y-124232463D01*
X93864374Y-124137225D01*
X93959612Y-124041987D01*
X94102470Y-123994367D01*
X94197708Y-123994367D01*
X94340565Y-124041987D01*
X94388184Y-124089606D01*
X94769136Y-124089606D02*
X94816755Y-124041987D01*
X94911993Y-123994367D01*
X95150089Y-123994367D01*
X95245327Y-124041987D01*
X95292946Y-124089606D01*
X95340565Y-124184844D01*
X95340565Y-124280082D01*
X95292946Y-124422939D01*
X94721517Y-124994367D01*
X95340565Y-124994367D01*
X107254946Y-97324367D02*
X107254946Y-98133891D01*
X107302565Y-98229129D01*
X107350184Y-98276748D01*
X107445422Y-98324367D01*
X107635898Y-98324367D01*
X107731136Y-98276748D01*
X107778755Y-98229129D01*
X107826374Y-98133891D01*
X107826374Y-97324367D01*
X108731136Y-97324367D02*
X108540660Y-97324367D01*
X108445422Y-97371987D01*
X108397803Y-97419606D01*
X108302565Y-97562463D01*
X108254946Y-97752939D01*
X108254946Y-98133891D01*
X108302565Y-98229129D01*
X108350184Y-98276748D01*
X108445422Y-98324367D01*
X108635898Y-98324367D01*
X108731136Y-98276748D01*
X108778755Y-98229129D01*
X108826374Y-98133891D01*
X108826374Y-97895796D01*
X108778755Y-97800558D01*
X108731136Y-97752939D01*
X108635898Y-97705320D01*
X108445422Y-97705320D01*
X108350184Y-97752939D01*
X108302565Y-97800558D01*
X108254946Y-97895796D01*
X128201993Y-129312367D02*
X127868660Y-128836177D01*
X127630565Y-129312367D02*
X127630565Y-128312367D01*
X128011517Y-128312367D01*
X128106755Y-128359987D01*
X128154374Y-128407606D01*
X128201993Y-128502844D01*
X128201993Y-128645701D01*
X128154374Y-128740939D01*
X128106755Y-128788558D01*
X128011517Y-128836177D01*
X127630565Y-128836177D01*
X128582946Y-128407606D02*
X128630565Y-128359987D01*
X128725803Y-128312367D01*
X128963898Y-128312367D01*
X129059136Y-128359987D01*
X129106755Y-128407606D01*
X129154374Y-128502844D01*
X129154374Y-128598082D01*
X129106755Y-128740939D01*
X128535327Y-129312367D01*
X129154374Y-129312367D01*
X130106755Y-129312367D02*
X129535327Y-129312367D01*
X129821041Y-129312367D02*
X129821041Y-128312367D01*
X129725803Y-128455225D01*
X129630565Y-128550463D01*
X129535327Y-128598082D01*
X90411517Y-82846367D02*
X90411517Y-83560653D01*
X90363898Y-83703510D01*
X90268660Y-83798748D01*
X90125803Y-83846367D01*
X90030565Y-83846367D01*
X90792470Y-82846367D02*
X91411517Y-82846367D01*
X91078184Y-83227320D01*
X91221041Y-83227320D01*
X91316279Y-83274939D01*
X91363898Y-83322558D01*
X91411517Y-83417796D01*
X91411517Y-83655891D01*
X91363898Y-83751129D01*
X91316279Y-83798748D01*
X91221041Y-83846367D01*
X90935327Y-83846367D01*
X90840089Y-83798748D01*
X90792470Y-83751129D01*
X112763517Y-80560367D02*
X112763517Y-81274653D01*
X112715898Y-81417510D01*
X112620660Y-81512748D01*
X112477803Y-81560367D01*
X112382565Y-81560367D01*
X113715898Y-80560367D02*
X113239708Y-80560367D01*
X113192089Y-81036558D01*
X113239708Y-80988939D01*
X113334946Y-80941320D01*
X113573041Y-80941320D01*
X113668279Y-80988939D01*
X113715898Y-81036558D01*
X113763517Y-81131796D01*
X113763517Y-81369891D01*
X113715898Y-81465129D01*
X113668279Y-81512748D01*
X113573041Y-81560367D01*
X113334946Y-81560367D01*
X113239708Y-81512748D01*
X113192089Y-81465129D01*
D12*
X86954851Y-103967987D02*
X86954851Y-105917987D01*
X81834851Y-103967987D02*
X81834851Y-105917987D01*
X86954851Y-103967987D02*
X86954851Y-100517987D01*
X81834851Y-103967987D02*
X81834851Y-102017987D01*
X82241851Y-98507987D02*
X85166851Y-98507987D01*
X82241851Y-95287987D02*
X80741851Y-95287987D01*
X82241851Y-95287987D02*
X83741851Y-95287987D01*
X82241851Y-98507987D02*
X80741851Y-98507987D01*
X123502103Y-123043336D02*
X122979599Y-123043336D01*
X123502103Y-124513336D02*
X122979599Y-124513336D01*
X118819103Y-129593336D02*
X118296599Y-129593336D01*
X118819103Y-128123336D02*
X118296599Y-128123336D01*
X113451851Y-114652923D02*
X113451851Y-115107051D01*
X114921851Y-114652923D02*
X114921851Y-115107051D01*
X109640851Y-126545400D02*
X109640851Y-126091272D01*
X108170851Y-126545400D02*
X108170851Y-126091272D01*
X117095851Y-121853336D02*
X113645851Y-121853336D01*
X117095851Y-121853336D02*
X119045851Y-121853336D01*
X117095851Y-126973336D02*
X115145851Y-126973336D01*
X117095851Y-126973336D02*
X119045851Y-126973336D01*
X105176851Y-108191987D02*
X105176851Y-106691987D01*
X110896851Y-108191987D02*
X110896851Y-106691987D01*
X104176851Y-110711987D02*
X111896851Y-110711987D01*
X111396851Y-109001987D02*
X111396851Y-110211987D01*
X112196851Y-106391987D02*
X109696851Y-106391987D01*
X111896851Y-106691987D02*
X104176851Y-106691987D01*
X111896851Y-110711987D02*
X111896851Y-106691987D01*
X112196851Y-108891987D02*
X112196851Y-106391987D01*
X111896851Y-108191987D02*
X110896851Y-108191987D01*
X111396851Y-110211987D02*
X104676851Y-110211987D01*
X104676851Y-109001987D02*
X104176851Y-109001987D01*
X111896851Y-109001987D02*
X111396851Y-109001987D01*
X104176851Y-106691987D02*
X104176851Y-110711987D01*
X104676851Y-110211987D02*
X104676851Y-109001987D01*
X104176851Y-108191987D02*
X105176851Y-108191987D01*
X110710851Y-126579588D02*
X110710851Y-126057084D01*
X112180851Y-126579588D02*
X112180851Y-126057084D01*
X121295851Y-131613336D02*
X114295851Y-131613336D01*
X114295851Y-131613336D02*
X114295851Y-138613336D01*
X114295851Y-138613336D02*
X121295851Y-138613336D01*
X121295851Y-138613336D02*
X121295851Y-131613336D01*
X136316851Y-98299987D02*
X136316851Y-104049987D01*
X131426851Y-104729987D02*
X130416851Y-104729987D01*
X130416851Y-99649987D02*
X131426851Y-99649987D01*
X131426851Y-99649987D02*
X131426851Y-104729987D01*
X136266851Y-108599987D02*
X130316851Y-108599987D01*
X136266851Y-105399987D02*
X136266851Y-108599987D01*
X130316851Y-108599987D02*
X130316851Y-98299987D01*
X130316851Y-98299987D02*
X136316851Y-98299987D01*
X77485852Y-107218988D02*
X77485852Y-110368986D01*
X80635850Y-110368986D02*
X80635850Y-107218988D01*
D13*
X77485852Y-109098787D02*
G75*
G03*
X77485852Y-108489187I0J304800D01*
G01*
D12*
X110313787Y-103232987D02*
X110767915Y-103232987D01*
X110313787Y-104702987D02*
X110767915Y-104702987D01*
X97067851Y-118946735D02*
X97067851Y-119469239D01*
X95597851Y-118946735D02*
X95597851Y-119469239D01*
X105249787Y-103232987D02*
X105703915Y-103232987D01*
X105249787Y-104702987D02*
X105703915Y-104702987D01*
X76076851Y-128138987D02*
X76232851Y-128138987D01*
X73760851Y-128138987D02*
X73916851Y-128138987D01*
X73917014Y-125537857D02*
G75*
G03*
X73916851Y-127619948I1079837J-1041130D01*
G01*
X76232367Y-128138987D02*
G75*
G03*
X76075459Y-124906652I-1235516J1560000D01*
G01*
X76076851Y-127619948D02*
G75*
G03*
X76076688Y-125537857I-1080000J1040961D01*
G01*
X73918243Y-124906652D02*
G75*
G03*
X73761335Y-128138987I1078608J-1672335D01*
G01*
X88056851Y-97887051D02*
X88056851Y-97432923D01*
X86586851Y-97887051D02*
X86586851Y-97432923D01*
X102147851Y-106989051D02*
X102147851Y-106534923D01*
X100677851Y-106989051D02*
X100677851Y-106534923D01*
X100658103Y-128378987D02*
X100135599Y-128378987D01*
X100658103Y-129848987D02*
X100135599Y-129848987D01*
X77410851Y-118843487D02*
X93410851Y-118843487D01*
X77410851Y-136843487D02*
X77410851Y-118843487D01*
X93410851Y-136843487D02*
X93410851Y-118843487D01*
X93410851Y-136843487D02*
X77410851Y-136843487D01*
X90410851Y-127843487D02*
G75*
G03*
X90410851Y-127843487I-5000000J0D01*
G01*
X106983851Y-88505987D02*
X107643851Y-88505987D01*
X109303851Y-89915987D02*
X109303851Y-88505987D01*
X108643851Y-88505987D02*
X109303851Y-88505987D01*
X106983851Y-88505987D02*
X106983851Y-90535987D01*
X115355851Y-129266272D02*
X115355851Y-129720400D01*
X113885851Y-129266272D02*
X113885851Y-129720400D01*
X82863599Y-109074987D02*
X83386103Y-109074987D01*
X82863599Y-110544987D02*
X83386103Y-110544987D01*
X112115851Y-121612084D02*
X112115851Y-122134588D01*
X110645851Y-121612084D02*
X110645851Y-122134588D01*
X76039851Y-115424923D02*
X76039851Y-115879051D01*
X77509851Y-115424923D02*
X77509851Y-115879051D01*
X100142851Y-135787987D02*
X102342851Y-135787987D01*
X100142851Y-130567987D02*
X102342851Y-130567987D01*
X100142851Y-130567987D02*
X96542851Y-130567987D01*
X100142851Y-135787987D02*
X97942851Y-135787987D01*
X96451851Y-88505987D02*
X97111851Y-88505987D01*
X94791851Y-88505987D02*
X94791851Y-90535987D01*
X97111851Y-89915987D02*
X97111851Y-88505987D01*
X94791851Y-88505987D02*
X95451851Y-88505987D01*
X105738103Y-102162987D02*
X105215599Y-102162987D01*
X105738103Y-100692987D02*
X105215599Y-100692987D01*
X113650851Y-105338336D02*
X120250851Y-105338336D01*
X120250851Y-111738336D02*
X113650851Y-111738336D01*
X105249787Y-95050987D02*
X105703915Y-95050987D01*
X105249787Y-93580987D02*
X105703915Y-93580987D01*
X81085599Y-113084987D02*
X81608103Y-113084987D01*
X81085599Y-111614987D02*
X81608103Y-111614987D01*
X102244851Y-101152987D02*
X102244851Y-96652987D01*
X91964851Y-101152987D02*
X102244851Y-101152987D01*
X91964851Y-96652987D02*
X91964851Y-97902987D01*
X102244851Y-96652987D02*
X91964851Y-96652987D01*
X91964851Y-99902987D02*
X91964851Y-101152987D01*
X91964851Y-99902987D02*
G75*
G03*
X91964851Y-97902987I0J1000000D01*
G01*
X110487903Y-130228336D02*
X109965399Y-130228336D01*
X110487903Y-128758336D02*
X109965399Y-128758336D01*
X118530851Y-118979272D02*
X118530851Y-119433400D01*
X117060851Y-118979272D02*
X117060851Y-119433400D01*
X77509851Y-95832735D02*
X77509851Y-96355239D01*
X76039851Y-95832735D02*
X76039851Y-96355239D01*
X114095851Y-118603336D02*
X114755851Y-118603336D01*
X116415851Y-120013336D02*
X116415851Y-118603336D01*
X114095851Y-118603336D02*
X114095851Y-120633336D01*
X115755851Y-118603336D02*
X116415851Y-118603336D01*
X122975851Y-130389588D02*
X122975851Y-129867084D01*
X121505851Y-130389588D02*
X121505851Y-129867084D01*
X104995851Y-135471239D02*
X104995851Y-134948735D01*
X106465851Y-135471239D02*
X106465851Y-134948735D01*
X99645787Y-137976987D02*
X100099915Y-137976987D01*
X99645787Y-136506987D02*
X100099915Y-136506987D01*
X77275599Y-113084987D02*
X77798103Y-113084987D01*
X77275599Y-111614987D02*
X77798103Y-111614987D01*
X123467915Y-125329336D02*
X123013787Y-125329336D01*
X123467915Y-126799336D02*
X123013787Y-126799336D01*
X125550851Y-109538336D02*
X125550851Y-107538336D01*
X125550851Y-107538336D02*
X121650851Y-107538336D01*
X125550851Y-109538336D02*
X121650851Y-109538336D01*
X123467915Y-122227336D02*
X123013787Y-122227336D01*
X123467915Y-120757336D02*
X123013787Y-120757336D01*
X125642915Y-132133336D02*
X125188787Y-132133336D01*
X125642915Y-130663336D02*
X125188787Y-130663336D01*
X74261851Y-121721051D02*
X74261851Y-121266923D01*
X75731851Y-121721051D02*
X75731851Y-121266923D01*
X117524851Y-114158336D02*
X117524851Y-116188336D01*
X117524851Y-114158336D02*
X118184851Y-114158336D01*
X119844851Y-115568336D02*
X119844851Y-114158336D01*
X119184851Y-114158336D02*
X119844851Y-114158336D01*
X77064851Y-92249987D02*
X77064851Y-92093987D01*
X77064851Y-89933987D02*
X77064851Y-89777987D01*
X77064851Y-89778471D02*
G75*
G03*
X73832516Y-89935379I-1560000J-1235516D01*
G01*
X74463721Y-92093824D02*
G75*
G03*
X76545812Y-92093987I1041130J1079837D01*
G01*
X76545812Y-89933987D02*
G75*
G03*
X74463721Y-89934150I-1040961J-1080000D01*
G01*
X73832516Y-92092595D02*
G75*
G03*
X77064851Y-92249503I1672335J1078608D01*
G01*
X133926851Y-96139987D02*
X135426851Y-96139987D01*
X133926851Y-87919987D02*
X135426851Y-87919987D01*
X135426851Y-86919987D02*
X131406851Y-86919987D01*
X133926851Y-97139987D02*
X133926851Y-96139987D01*
X135726851Y-97439987D02*
X135726851Y-94939987D01*
X133226851Y-97439987D02*
X135726851Y-97439987D01*
X133116851Y-97139987D02*
X133116851Y-96639987D01*
X131906851Y-96639987D02*
X131906851Y-87419987D01*
X131406851Y-86919987D02*
X131406851Y-97139987D01*
X131406851Y-97139987D02*
X135426851Y-97139987D01*
X135426851Y-97139987D02*
X135426851Y-86919987D01*
X133116851Y-87419987D02*
X133116851Y-86919987D01*
X131906851Y-87419987D02*
X133116851Y-87419987D01*
X133116851Y-96639987D02*
X131906851Y-96639987D01*
X133926851Y-86919987D02*
X133926851Y-87919987D01*
X86567103Y-92044987D02*
X86044599Y-92044987D01*
X86567103Y-90574987D02*
X86044599Y-90574987D01*
X110329787Y-95050987D02*
X110783915Y-95050987D01*
X110329787Y-93580987D02*
X110783915Y-93580987D01*
X86532915Y-92860987D02*
X86078787Y-92860987D01*
X86532915Y-94330987D02*
X86078787Y-94330987D01*
X78052103Y-100892987D02*
X77529599Y-100892987D01*
X78052103Y-99422987D02*
X77529599Y-99422987D01*
X73499851Y-106026923D02*
X73499851Y-106481051D01*
X74969851Y-106026923D02*
X74969851Y-106481051D01*
X102547851Y-88505987D02*
X103207851Y-88505987D01*
X100887851Y-88505987D02*
X100887851Y-90535987D01*
X100887851Y-88505987D02*
X101547851Y-88505987D01*
X103207851Y-89915987D02*
X103207851Y-88505987D01*
X105341851Y-88505987D02*
X106001851Y-88505987D01*
X103681851Y-88505987D02*
X103681851Y-90535987D01*
X106001851Y-89915987D02*
X106001851Y-88505987D01*
X103681851Y-88505987D02*
X104341851Y-88505987D01*
X100159851Y-89915987D02*
X100159851Y-88505987D01*
X97839851Y-88505987D02*
X97839851Y-90535987D01*
X97839851Y-88505987D02*
X98499851Y-88505987D01*
X99499851Y-88505987D02*
X100159851Y-88505987D01*
X95289851Y-131661239D02*
X95289851Y-131138735D01*
X93819851Y-131661239D02*
X93819851Y-131138735D01*
X81119851Y-115424923D02*
X81119851Y-115879051D01*
X82589851Y-115424923D02*
X82589851Y-115879051D01*
X77255851Y-104483239D02*
X77255851Y-103960735D01*
X75785851Y-104483239D02*
X75785851Y-103960735D01*
X112116851Y-97993487D02*
X112116851Y-98793487D01*
X112116851Y-97993487D02*
X112116851Y-96193487D01*
X108996851Y-97993487D02*
X108996851Y-98793487D01*
X108996851Y-97993487D02*
X108996851Y-97193487D01*
X110818103Y-102162987D02*
X110295599Y-102162987D01*
X110818103Y-100692987D02*
X110295599Y-100692987D01*
X80049851Y-115424923D02*
X80049851Y-115879051D01*
X78579851Y-115424923D02*
X78579851Y-115879051D01*
X92324851Y-112047987D02*
X99324851Y-112047987D01*
X99324851Y-112047987D02*
X99324851Y-105047987D01*
X99324851Y-105047987D02*
X92324851Y-105047987D01*
X92324851Y-105047987D02*
X92324851Y-112047987D01*
X141466851Y-85639987D02*
X141466851Y-82829987D01*
X125346851Y-83129987D02*
X124066851Y-83129987D01*
X128446851Y-80829987D02*
X128446851Y-80019987D01*
X125346851Y-82529987D02*
X124066851Y-82529987D01*
X127156851Y-80229987D02*
X127756851Y-80229987D01*
X127756851Y-80229987D02*
X127456851Y-80829987D01*
X128446851Y-85639987D02*
X141466851Y-85639987D01*
X127456851Y-80829987D02*
X127156851Y-80229987D01*
X128446851Y-80019987D02*
X141466851Y-80019987D01*
X128446851Y-84829987D02*
X128446851Y-85639987D01*
X141466851Y-80019987D02*
X141466851Y-82829987D01*
X121624851Y-98856638D02*
X123740851Y-98856638D01*
X122083851Y-98376638D02*
X127477851Y-98376638D01*
X120891851Y-100216638D02*
X123740851Y-100216638D01*
X125820851Y-99776638D02*
X128502851Y-99776638D01*
X125820851Y-98816638D02*
X127904851Y-98816638D01*
X120700851Y-101417638D02*
X128860851Y-101417638D01*
X121761851Y-98696638D02*
X123740851Y-98696638D01*
X125820851Y-100616638D02*
X128774851Y-100616638D01*
X125820851Y-99976638D02*
X128585851Y-99976638D01*
X120990851Y-99936638D02*
X123740851Y-99936638D01*
X125820851Y-98936638D02*
X128000851Y-98936638D01*
X121196851Y-99496638D02*
X123740851Y-99496638D01*
X125820851Y-100136638D02*
X128643851Y-100136638D01*
X120813851Y-100496638D02*
X123740851Y-100496638D01*
X122275851Y-98216638D02*
X127285851Y-98216638D01*
X125820851Y-99416638D02*
X128320851Y-99416638D01*
X125820851Y-99896638D02*
X128554851Y-99896638D01*
X121913851Y-98536638D02*
X127647851Y-98536638D01*
X123327851Y-97616638D02*
X126233851Y-97616638D01*
X121500851Y-99016638D02*
X123740851Y-99016638D01*
X121311851Y-99296638D02*
X123740851Y-99296638D01*
X124012851Y-97416638D02*
X125548851Y-97416638D01*
X121530851Y-98976638D02*
X123740851Y-98976638D01*
X121362851Y-99216638D02*
X123740851Y-99216638D01*
X122614851Y-97976638D02*
X126946851Y-97976638D01*
X121006851Y-99896638D02*
X123740851Y-99896638D01*
X121174851Y-99536638D02*
X123740851Y-99536638D01*
X121153851Y-99576638D02*
X123740851Y-99576638D01*
X125820851Y-100736638D02*
X128797851Y-100736638D01*
X122129851Y-98336638D02*
X127431851Y-98336638D01*
X125820851Y-100656638D02*
X128782851Y-100656638D01*
X121218851Y-99456638D02*
X123740851Y-99456638D01*
X120833851Y-100416638D02*
X123740851Y-100416638D01*
X125820851Y-98696638D02*
X127799851Y-98696638D01*
X120878851Y-100256638D02*
X123740851Y-100256638D01*
X122493851Y-98056638D02*
X127067851Y-98056638D01*
X125820851Y-99496638D02*
X128364851Y-99496638D01*
X120738851Y-100897638D02*
X128822851Y-100897638D01*
X120959851Y-100016638D02*
X123740851Y-100016638D01*
X122552851Y-98016638D02*
X127008851Y-98016638D01*
X120706851Y-101217638D02*
X128854851Y-101217638D01*
X120945851Y-100056638D02*
X123740851Y-100056638D01*
X122380851Y-98136638D02*
X127180851Y-98136638D01*
X120844851Y-100376638D02*
X123740851Y-100376638D01*
X125820851Y-99856638D02*
X128537851Y-99856638D01*
X120719851Y-101057638D02*
X128841851Y-101057638D01*
X121690851Y-98776638D02*
X123740851Y-98776638D01*
X122039851Y-98416638D02*
X127521851Y-98416638D01*
X122176851Y-98296638D02*
X127384851Y-98296638D01*
X121388851Y-99176638D02*
X123740851Y-99176638D01*
X120723851Y-101017638D02*
X128837851Y-101017638D01*
X121023851Y-99856638D02*
X123740851Y-99856638D01*
X122065851Y-105467336D02*
X122865851Y-105467336D01*
X121560851Y-98936638D02*
X123740851Y-98936638D01*
X121040851Y-99816638D02*
X123740851Y-99816638D01*
X120732851Y-100937638D02*
X128828851Y-100937638D01*
X121954851Y-98496638D02*
X127606851Y-98496638D01*
X121873851Y-98576638D02*
X127687851Y-98576638D01*
X120703851Y-101297638D02*
X128857851Y-101297638D01*
X121287851Y-99336638D02*
X123740851Y-99336638D01*
X125820851Y-99096638D02*
X128118851Y-99096638D01*
X125820851Y-99176638D02*
X128172851Y-99176638D01*
X120712851Y-101137638D02*
X128848851Y-101137638D01*
X125820851Y-100016638D02*
X128601851Y-100016638D01*
X120917851Y-100136638D02*
X123740851Y-100136638D01*
X125820851Y-99336638D02*
X128273851Y-99336638D01*
X125820851Y-98896638D02*
X127969851Y-98896638D01*
X125820851Y-99376638D02*
X128297851Y-99376638D01*
X125820851Y-100536638D02*
X128756851Y-100536638D01*
X120715851Y-101097638D02*
X128845851Y-101097638D01*
X122326851Y-98176638D02*
X127234851Y-98176638D01*
X123049851Y-97736638D02*
X126511851Y-97736638D01*
X124247851Y-97376638D02*
X125313851Y-97376638D01*
X123135851Y-97696638D02*
X126425851Y-97696638D01*
X121591851Y-98896638D02*
X123740851Y-98896638D01*
X125820851Y-99936638D02*
X128570851Y-99936638D01*
X121076851Y-99736638D02*
X123740851Y-99736638D01*
X120855851Y-100336638D02*
X123740851Y-100336638D01*
X125820851Y-100496638D02*
X128747851Y-100496638D01*
X123682851Y-97496638D02*
X125878851Y-97496638D01*
X120704851Y-101257638D02*
X128856851Y-101257638D01*
X125820851Y-100376638D02*
X128716851Y-100376638D01*
X120709851Y-101177638D02*
X128851851Y-101177638D01*
X120903851Y-100176638D02*
X123740851Y-100176638D01*
X123434851Y-97576638D02*
X126126851Y-97576638D01*
X120700851Y-101457638D02*
X128860851Y-101457638D01*
X121725851Y-98736638D02*
X123740851Y-98736638D01*
X125820851Y-99696638D02*
X128466851Y-99696638D01*
X120804851Y-100536638D02*
X123740851Y-100536638D01*
X122435851Y-98096638D02*
X127125851Y-98096638D01*
X123551851Y-97536638D02*
X126009851Y-97536638D01*
X125820851Y-100096638D02*
X128630851Y-100096638D01*
X121240851Y-99416638D02*
X123740851Y-99416638D01*
X121094851Y-99696638D02*
X123740851Y-99696638D01*
X120866851Y-100296638D02*
X123740851Y-100296638D01*
X120778851Y-100656638D02*
X123740851Y-100656638D01*
X125820851Y-99216638D02*
X128198851Y-99216638D01*
X125820851Y-99456638D02*
X128342851Y-99456638D01*
X125820851Y-99016638D02*
X128060851Y-99016638D01*
X125820851Y-100176638D02*
X128657851Y-100176638D01*
X120750851Y-100817638D02*
X128810851Y-100817638D01*
X125820851Y-99576638D02*
X128407851Y-99576638D01*
X125820851Y-100456638D02*
X128737851Y-100456638D01*
X121442851Y-99096638D02*
X123740851Y-99096638D01*
X122746851Y-97896638D02*
X126814851Y-97896638D01*
X125820851Y-99656638D02*
X128446851Y-99656638D01*
X121336851Y-99256638D02*
X123740851Y-99256638D01*
X121133851Y-99616638D02*
X123740851Y-99616638D01*
X125820851Y-98736638D02*
X127835851Y-98736638D01*
X120786851Y-100616638D02*
X123740851Y-100616638D01*
X123832851Y-97456638D02*
X125728851Y-97456638D01*
X120763851Y-100736638D02*
X123740851Y-100736638D01*
X120728851Y-100977638D02*
X128832851Y-100977638D01*
X121656851Y-98816638D02*
X123740851Y-98816638D01*
X125820851Y-100056638D02*
X128615851Y-100056638D01*
X125820851Y-100256638D02*
X128682851Y-100256638D01*
X121471851Y-99056638D02*
X123740851Y-99056638D01*
X120770851Y-100696638D02*
X123740851Y-100696638D01*
X120756851Y-100777638D02*
X128804851Y-100777638D01*
X120930851Y-100096638D02*
X123740851Y-100096638D01*
X121996851Y-98456638D02*
X127564851Y-98456638D01*
X125820851Y-98976638D02*
X128030851Y-98976638D01*
X122816851Y-97856638D02*
X126744851Y-97856638D01*
X125820851Y-99136638D02*
X128145851Y-99136638D01*
X125820851Y-100216638D02*
X128669851Y-100216638D01*
X125820851Y-99616638D02*
X128427851Y-99616638D01*
X125820851Y-99256638D02*
X128224851Y-99256638D01*
X125820851Y-99056638D02*
X128089851Y-99056638D01*
X121797851Y-98656638D02*
X127763851Y-98656638D01*
X120795851Y-100576638D02*
X123740851Y-100576638D01*
X122890851Y-97816638D02*
X126670851Y-97816638D01*
X120743851Y-100857638D02*
X128817851Y-100857638D01*
X125820851Y-98856638D02*
X127936851Y-98856638D01*
X121263851Y-99376638D02*
X123740851Y-99376638D01*
X122465851Y-105867336D02*
X122465851Y-105067336D01*
X125820851Y-99816638D02*
X128520851Y-99816638D01*
X125820851Y-99736638D02*
X128484851Y-99736638D01*
X120701851Y-101337638D02*
X128859851Y-101337638D01*
X125820851Y-100296638D02*
X128694851Y-100296638D01*
X125820851Y-100576638D02*
X128765851Y-100576638D01*
X121415851Y-99136638D02*
X123740851Y-99136638D01*
X121058851Y-99776638D02*
X123740851Y-99776638D01*
X122224851Y-98256638D02*
X127336851Y-98256638D01*
X125820851Y-100336638D02*
X128705851Y-100336638D01*
X123228851Y-97656638D02*
X126332851Y-97656638D01*
X120975851Y-99976638D02*
X123740851Y-99976638D01*
X125820851Y-100416638D02*
X128727851Y-100416638D01*
X121835851Y-98616638D02*
X127725851Y-98616638D01*
X125820851Y-98776638D02*
X127870851Y-98776638D01*
X120700851Y-101377638D02*
X128860851Y-101377638D01*
X125820851Y-99296638D02*
X128249851Y-99296638D01*
X122967851Y-97776638D02*
X126593851Y-97776638D01*
X122678851Y-97936638D02*
X126882851Y-97936638D01*
X125820851Y-100696638D02*
X128790851Y-100696638D01*
X120823851Y-100456638D02*
X123740851Y-100456638D01*
X121114851Y-99656638D02*
X123740851Y-99656638D01*
X125820851Y-99536638D02*
X128386851Y-99536638D01*
X128900851Y-101457638D02*
G75*
G03*
X128900851Y-101457638I-4120000J0D01*
G01*
X104822851Y-118155987D02*
X104822851Y-124165987D01*
X98002851Y-124165987D02*
X99262851Y-124165987D01*
X98002851Y-120405987D02*
X98002851Y-124165987D01*
X104822851Y-124165987D02*
X103562851Y-124165987D01*
X97067851Y-124803239D02*
X97067851Y-124280735D01*
X95597851Y-124803239D02*
X95597851Y-124280735D01*
X107036851Y-97871987D02*
X107036851Y-96071987D01*
X107036851Y-97871987D02*
X107036851Y-98671987D01*
X103916851Y-97871987D02*
X103916851Y-98671987D01*
X103916851Y-97871987D02*
X103916851Y-97071987D01*
X125642915Y-128123336D02*
X125188787Y-128123336D01*
X125642915Y-129593336D02*
X125188787Y-129593336D01*
X68071851Y-85949987D02*
X68071851Y-83139987D01*
X84191851Y-82839987D02*
X85471851Y-82839987D01*
X81091851Y-81139987D02*
X81091851Y-80329987D01*
X82381851Y-85739987D02*
X81781851Y-85739987D01*
X81091851Y-85139987D02*
X81091851Y-85949987D01*
X68071851Y-80329987D02*
X68071851Y-83139987D01*
X81091851Y-80329987D02*
X68071851Y-80329987D01*
X84191851Y-83439987D02*
X85471851Y-83439987D01*
X81781851Y-85739987D02*
X82081851Y-85139987D01*
X81091851Y-85949987D02*
X68071851Y-85949987D01*
X82081851Y-85139987D02*
X82381851Y-85739987D01*
X99116851Y-82315987D02*
X100116851Y-82315987D01*
X99616851Y-83125987D02*
X99116851Y-83125987D01*
X111836851Y-84835987D02*
X111836851Y-80815987D01*
X112136851Y-80515987D02*
X109636851Y-80515987D01*
X111836851Y-80815987D02*
X99116851Y-80815987D01*
X99116851Y-84835987D02*
X111836851Y-84835987D01*
X110836851Y-82315987D02*
X110836851Y-80815987D01*
X111836851Y-82315987D02*
X110836851Y-82315987D01*
X112136851Y-83015987D02*
X112136851Y-80515987D01*
X100116851Y-82315987D02*
X100116851Y-80815987D01*
X111336851Y-83125987D02*
X111336851Y-84335987D01*
X111836851Y-83125987D02*
X111336851Y-83125987D01*
X111336851Y-84335987D02*
X99616851Y-84335987D01*
X99616851Y-84335987D02*
X99616851Y-83125987D01*
X99116851Y-80815987D02*
X99116851Y-84835987D01*
%LPC*%
D14*
X86299851Y-101492987D03*
X85029851Y-101492987D03*
X83759851Y-101492987D03*
X82489851Y-101492987D03*
X82489851Y-106442987D03*
X83759851Y-106442987D03*
X85029851Y-106442987D03*
X86299851Y-106442987D03*
D15*
X84354351Y-97872987D03*
X84354351Y-97222987D03*
X84354351Y-96572987D03*
X84354351Y-95922987D03*
X80129351Y-95922987D03*
X80129351Y-96572987D03*
X80129351Y-97222987D03*
X80129351Y-97872987D03*
D16*
X124278351Y-123778336D03*
X122203351Y-123778336D03*
X119595351Y-128858336D03*
X117520351Y-128858336D03*
D17*
X114186851Y-113879987D03*
X114186851Y-115879987D03*
D18*
X108905851Y-127318336D03*
X108905851Y-125318336D03*
D19*
X114620851Y-122508336D03*
X114620851Y-123778336D03*
X114620851Y-125048336D03*
X114620851Y-126318336D03*
X119570851Y-126318336D03*
X119570851Y-125048336D03*
X119570851Y-123778336D03*
X119570851Y-122508336D03*
D20*
X109286851Y-109001987D03*
D21*
X106786851Y-109001987D03*
D22*
X111445851Y-127355836D03*
X111445851Y-125280836D03*
D23*
X115295851Y-134613336D03*
X117795851Y-137113336D03*
X120345851Y-134613336D03*
D24*
X133716851Y-107269987D03*
X133716851Y-104729987D03*
X133716851Y-102189987D03*
D25*
X133716851Y-99649987D03*
D26*
X135876851Y-104729987D03*
D27*
X78085852Y-110268988D03*
X78735850Y-110268988D03*
X79385852Y-110268988D03*
X80035850Y-110268988D03*
X80035850Y-107318986D03*
X79385852Y-107318986D03*
X78735850Y-107318986D03*
X78085852Y-107318986D03*
D28*
X79060851Y-108793987D03*
D29*
X109540851Y-103967987D03*
X111540851Y-103967987D03*
D30*
X96332851Y-118170487D03*
X96332851Y-120245487D03*
D29*
X106476851Y-103967987D03*
X104476851Y-103967987D03*
D31*
X74996851Y-127848987D03*
D32*
X74996851Y-125308987D03*
D18*
X87321851Y-96659987D03*
X87321851Y-98659987D03*
X101412851Y-107761987D03*
X101412851Y-105761987D03*
D16*
X101434351Y-129113987D03*
X99359351Y-129113987D03*
D33*
X79080851Y-120343487D03*
X91740851Y-120343487D03*
D34*
X80410851Y-139843487D03*
X85410851Y-139843487D03*
X90410851Y-139843487D03*
D35*
X107493851Y-90235987D03*
X108793851Y-90235987D03*
X108143851Y-88235987D03*
D17*
X114620851Y-128493336D03*
X114620851Y-130493336D03*
D36*
X82087351Y-109809987D03*
X84162351Y-109809987D03*
D30*
X111380851Y-120835836D03*
X111380851Y-122910836D03*
D17*
X76774851Y-114651987D03*
X76774851Y-116651987D03*
D37*
X97280351Y-131227987D03*
X97280351Y-131877987D03*
X97280351Y-132527987D03*
X97280351Y-133177987D03*
X97280351Y-133827987D03*
X97280351Y-134477987D03*
X97280351Y-135127987D03*
X103005351Y-135127987D03*
X103005351Y-134477987D03*
X103005351Y-133827987D03*
X103005351Y-133177987D03*
X103005351Y-132527987D03*
X103005351Y-131877987D03*
X103005351Y-131227987D03*
D35*
X95301851Y-90235987D03*
X96601851Y-90235987D03*
X95951851Y-88235987D03*
D16*
X106514351Y-101427987D03*
X104439351Y-101427987D03*
D38*
X114200851Y-108538336D03*
X119700851Y-108538336D03*
D29*
X104476851Y-94315987D03*
X106476851Y-94315987D03*
D36*
X80309351Y-112349987D03*
X82384351Y-112349987D03*
D39*
X93294851Y-102712987D03*
D40*
X95834851Y-102712987D03*
X98374851Y-102712987D03*
X100914851Y-102712987D03*
X100914851Y-95092987D03*
X98374851Y-95092987D03*
X95834851Y-95092987D03*
X93294851Y-95092987D03*
D16*
X111264151Y-129493336D03*
X109189151Y-129493336D03*
D17*
X117795851Y-118206336D03*
X117795851Y-120206336D03*
D30*
X76774851Y-95056487D03*
X76774851Y-97131487D03*
D35*
X114605851Y-120333336D03*
X115905851Y-120333336D03*
X115255851Y-118333336D03*
D22*
X122240851Y-131165836D03*
X122240851Y-129090836D03*
X105730851Y-136247487D03*
X105730851Y-134172487D03*
D29*
X98872851Y-137241987D03*
X100872851Y-137241987D03*
D36*
X76499351Y-112349987D03*
X78574351Y-112349987D03*
D41*
X124240851Y-126064336D03*
X122240851Y-126064336D03*
D42*
X124700851Y-108538336D03*
X121900851Y-108538336D03*
D41*
X124240851Y-121492336D03*
X122240851Y-121492336D03*
X126415851Y-131398336D03*
X124415851Y-131398336D03*
D18*
X74996851Y-122493987D03*
X74996851Y-120493987D03*
D35*
X118034851Y-115888336D03*
X119334851Y-115888336D03*
X118684851Y-113888336D03*
D31*
X76774851Y-91013987D03*
D32*
X74234851Y-91013987D03*
D43*
X133116851Y-94529987D03*
D44*
X133116851Y-91989987D03*
X133116851Y-89449987D03*
D16*
X87343351Y-91309987D03*
X85268351Y-91309987D03*
D29*
X111556851Y-94315987D03*
X109556851Y-94315987D03*
D41*
X87305851Y-93595987D03*
X85305851Y-93595987D03*
D16*
X78828351Y-100157987D03*
X76753351Y-100157987D03*
D17*
X74234851Y-107253987D03*
X74234851Y-105253987D03*
D35*
X101397851Y-90235987D03*
X102697851Y-90235987D03*
X102047851Y-88235987D03*
X104191851Y-90235987D03*
X105491851Y-90235987D03*
X104841851Y-88235987D03*
X98349851Y-90235987D03*
X99649851Y-90235987D03*
X98999851Y-88235987D03*
D22*
X94554851Y-132437487D03*
X94554851Y-130362487D03*
D17*
X81854851Y-114651987D03*
X81854851Y-116651987D03*
D22*
X76520851Y-105259487D03*
X76520851Y-103184487D03*
D45*
X111506851Y-99130987D03*
X110556851Y-99130987D03*
X109606851Y-99130987D03*
X109606851Y-96855987D03*
X110556851Y-96855987D03*
X111506851Y-96855987D03*
D16*
X109519351Y-101427987D03*
X111594351Y-101427987D03*
D17*
X79314851Y-116651987D03*
X79314851Y-114651987D03*
D23*
X98364851Y-109047987D03*
X95824851Y-106507987D03*
X93284851Y-109047987D03*
D46*
X121956851Y-82829987D03*
D47*
X127456851Y-82829987D03*
D48*
X134756851Y-82829987D03*
D49*
X124780851Y-103207638D03*
D50*
X124780851Y-99707638D03*
D51*
X103712851Y-119105987D03*
X101412851Y-119105987D03*
D52*
X101412851Y-125405987D03*
D51*
X99112851Y-119105987D03*
D22*
X96332851Y-125579487D03*
X96332851Y-123504487D03*
D45*
X106426851Y-96734487D03*
X105476851Y-96734487D03*
X104526851Y-96734487D03*
X104526851Y-99009487D03*
X105476851Y-99009487D03*
X106426851Y-99009487D03*
D41*
X126415851Y-128858336D03*
X124415851Y-128858336D03*
D46*
X87581851Y-83139987D03*
D53*
X82081851Y-83139987D03*
D48*
X74781851Y-83139987D03*
D54*
X109226851Y-83125987D03*
D55*
X106726851Y-83125987D03*
X104226851Y-83125987D03*
X101726851Y-83125987D03*
M02*
