G04 #@! TF.GenerationSoftware,KiCad,Pcbnew,(6.0.5)*
G04 #@! TF.CreationDate,2023-08-18T19:29:43-04:00*
G04 #@! TF.ProjectId,Ki_PCB,4b695f50-4342-42e6-9b69-6361645f7063,rev?*
G04 #@! TF.SameCoordinates,Original*
G04 #@! TF.FileFunction,Soldermask,Top*
G04 #@! TF.FilePolarity,Negative*
%FSLAX46Y46*%
G04 Gerber Fmt 4.6, Leading zero omitted, Abs format (unit mm)*
G04 Created by KiCad (PCBNEW (6.0.5)) date 2023-08-18 19:29:43*
%MOMM*%
%LPD*%
G01*
G04 APERTURE LIST*
G04 Aperture macros list*
%AMRoundRect*
0 Rectangle with rounded corners*
0 $1 Rounding radius*
0 $2 $3 $4 $5 $6 $7 $8 $9 X,Y pos of 4 corners*
0 Add a 4 corners polygon primitive as box body*
4,1,4,$2,$3,$4,$5,$6,$7,$8,$9,$2,$3,0*
0 Add four circle primitives for the rounded corners*
1,1,$1+$1,$2,$3*
1,1,$1+$1,$4,$5*
1,1,$1+$1,$6,$7*
1,1,$1+$1,$8,$9*
0 Add four rect primitives between the rounded corners*
20,1,$1+$1,$2,$3,$4,$5,0*
20,1,$1+$1,$4,$5,$6,$7,0*
20,1,$1+$1,$6,$7,$8,$9,0*
20,1,$1+$1,$8,$9,$2,$3,0*%
G04 Aperture macros list end*
%ADD10RoundRect,0.150000X-0.150000X0.825000X-0.150000X-0.825000X0.150000X-0.825000X0.150000X0.825000X0*%
%ADD11RoundRect,0.100000X0.712500X0.100000X-0.712500X0.100000X-0.712500X-0.100000X0.712500X-0.100000X0*%
%ADD12RoundRect,0.250000X0.337500X0.475000X-0.337500X0.475000X-0.337500X-0.475000X0.337500X-0.475000X0*%
%ADD13RoundRect,0.250000X-0.450000X0.350000X-0.450000X-0.350000X0.450000X-0.350000X0.450000X0.350000X0*%
%ADD14RoundRect,0.250000X0.450000X-0.350000X0.450000X0.350000X-0.450000X0.350000X-0.450000X-0.350000X0*%
%ADD15RoundRect,0.150000X-0.825000X-0.150000X0.825000X-0.150000X0.825000X0.150000X-0.825000X0.150000X0*%
%ADD16RoundRect,0.250000X0.600000X0.750000X-0.600000X0.750000X-0.600000X-0.750000X0.600000X-0.750000X0*%
%ADD17O,1.700000X2.000000*%
%ADD18RoundRect,0.250000X0.475000X-0.337500X0.475000X0.337500X-0.475000X0.337500X-0.475000X-0.337500X0*%
%ADD19C,1.500000*%
%ADD20O,2.030000X1.730000*%
%ADD21R,2.030000X1.730000*%
%ADD22C,1.100000*%
%ADD23R,0.350000X0.850000*%
%ADD24R,2.400000X1.650000*%
%ADD25RoundRect,0.250000X-0.350000X-0.450000X0.350000X-0.450000X0.350000X0.450000X-0.350000X0.450000X0*%
%ADD26RoundRect,0.250000X-0.475000X0.337500X-0.475000X-0.337500X0.475000X-0.337500X0.475000X0.337500X0*%
%ADD27R,1.800000X1.800000*%
%ADD28C,1.800000*%
%ADD29C,1.000000*%
%ADD30C,2.250000*%
%ADD31R,0.450000X0.700000*%
%ADD32RoundRect,0.250000X-0.337500X-0.475000X0.337500X-0.475000X0.337500X0.475000X-0.337500X0.475000X0*%
%ADD33RoundRect,0.100000X-0.637500X-0.100000X0.637500X-0.100000X0.637500X0.100000X-0.637500X0.100000X0*%
%ADD34R,1.800000X5.700000*%
%ADD35R,1.600000X2.400000*%
%ADD36O,1.600000X2.400000*%
%ADD37RoundRect,0.250000X0.350000X0.450000X-0.350000X0.450000X-0.350000X-0.450000X0.350000X-0.450000X0*%
%ADD38R,1.200000X1.200000*%
%ADD39RoundRect,0.250000X0.725000X-0.600000X0.725000X0.600000X-0.725000X0.600000X-0.725000X-0.600000X0*%
%ADD40O,1.950000X1.700000*%
%ADD41RoundRect,0.150000X-0.150000X0.512500X-0.150000X-0.512500X0.150000X-0.512500X0.150000X0.512500X0*%
%ADD42O,3.700000X2.700000*%
%ADD43RoundRect,0.250001X-1.599999X1.099999X-1.599999X-1.099999X1.599999X-1.099999X1.599999X1.099999X0*%
%ADD44C,3.000000*%
%ADD45R,1.600000X1.600000*%
%ADD46C,1.600000*%
%ADD47R,1.500000X2.000000*%
%ADD48R,3.800000X2.000000*%
%ADD49RoundRect,0.250001X1.599999X-1.099999X1.599999X1.099999X-1.599999X1.099999X-1.599999X-1.099999X0*%
%ADD50RoundRect,0.250000X0.600000X0.725000X-0.600000X0.725000X-0.600000X-0.725000X0.600000X-0.725000X0*%
%ADD51O,1.700000X1.950000*%
G04 APERTURE END LIST*
D10*
X86299851Y-101492987D03*
X85029851Y-101492987D03*
X83759851Y-101492987D03*
X82489851Y-101492987D03*
X82489851Y-106442987D03*
X83759851Y-106442987D03*
X85029851Y-106442987D03*
X86299851Y-106442987D03*
D11*
X84354351Y-97872987D03*
X84354351Y-97222987D03*
X84354351Y-96572987D03*
X84354351Y-95922987D03*
X80129351Y-95922987D03*
X80129351Y-96572987D03*
X80129351Y-97222987D03*
X80129351Y-97872987D03*
D12*
X124278351Y-123778336D03*
X122203351Y-123778336D03*
X119595351Y-128858336D03*
X117520351Y-128858336D03*
D13*
X114186851Y-113879987D03*
X114186851Y-115879987D03*
D14*
X108905851Y-127318336D03*
X108905851Y-125318336D03*
D15*
X114620851Y-122508336D03*
X114620851Y-123778336D03*
X114620851Y-125048336D03*
X114620851Y-126318336D03*
X119570851Y-126318336D03*
X119570851Y-125048336D03*
X119570851Y-123778336D03*
X119570851Y-122508336D03*
D16*
X109286851Y-109001987D03*
D17*
X106786851Y-109001987D03*
D18*
X111445851Y-127355836D03*
X111445851Y-125280836D03*
D19*
X115295851Y-134613336D03*
X117795851Y-137113336D03*
X120345851Y-134613336D03*
D20*
X133716851Y-107269987D03*
X133716851Y-104729987D03*
X133716851Y-102189987D03*
D21*
X133716851Y-99649987D03*
D22*
X135876851Y-104729987D03*
D23*
X78085852Y-110268988D03*
X78735850Y-110268988D03*
X79385852Y-110268988D03*
X80035850Y-110268988D03*
X80035850Y-107318986D03*
X79385852Y-107318986D03*
X78735850Y-107318986D03*
X78085852Y-107318986D03*
D24*
X79060851Y-108793987D03*
D25*
X109540851Y-103967987D03*
X111540851Y-103967987D03*
D26*
X96332851Y-118170487D03*
X96332851Y-120245487D03*
D25*
X106476851Y-103967987D03*
X104476851Y-103967987D03*
D27*
X74996851Y-127848987D03*
D28*
X74996851Y-125308987D03*
D14*
X87321851Y-96659987D03*
X87321851Y-98659987D03*
X101412851Y-107761987D03*
X101412851Y-105761987D03*
D12*
X101434351Y-129113987D03*
X99359351Y-129113987D03*
D29*
X79080851Y-120343487D03*
X91740851Y-120343487D03*
D30*
X80410851Y-139843487D03*
X85410851Y-139843487D03*
X90410851Y-139843487D03*
D31*
X107493851Y-90235987D03*
X108793851Y-90235987D03*
X108143851Y-88235987D03*
D13*
X114620851Y-128493336D03*
X114620851Y-130493336D03*
D32*
X82087351Y-109809987D03*
X84162351Y-109809987D03*
D26*
X111380851Y-120835836D03*
X111380851Y-122910836D03*
D13*
X76774851Y-114651987D03*
X76774851Y-116651987D03*
D33*
X97280351Y-131227987D03*
X97280351Y-131877987D03*
X97280351Y-132527987D03*
X97280351Y-133177987D03*
X97280351Y-133827987D03*
X97280351Y-134477987D03*
X97280351Y-135127987D03*
X103005351Y-135127987D03*
X103005351Y-134477987D03*
X103005351Y-133827987D03*
X103005351Y-133177987D03*
X103005351Y-132527987D03*
X103005351Y-131877987D03*
X103005351Y-131227987D03*
D31*
X95301851Y-90235987D03*
X96601851Y-90235987D03*
X95951851Y-88235987D03*
D12*
X106514351Y-101427987D03*
X104439351Y-101427987D03*
D34*
X114200851Y-108538336D03*
X119700851Y-108538336D03*
D25*
X104476851Y-94315987D03*
X106476851Y-94315987D03*
D32*
X80309351Y-112349987D03*
X82384351Y-112349987D03*
D35*
X93294851Y-102712987D03*
D36*
X95834851Y-102712987D03*
X98374851Y-102712987D03*
X100914851Y-102712987D03*
X100914851Y-95092987D03*
X98374851Y-95092987D03*
X95834851Y-95092987D03*
X93294851Y-95092987D03*
D12*
X111264151Y-129493336D03*
X109189151Y-129493336D03*
D13*
X117795851Y-118206336D03*
X117795851Y-120206336D03*
D26*
X76774851Y-95056487D03*
X76774851Y-97131487D03*
D31*
X114605851Y-120333336D03*
X115905851Y-120333336D03*
X115255851Y-118333336D03*
D18*
X122240851Y-131165836D03*
X122240851Y-129090836D03*
X105730851Y-136247487D03*
X105730851Y-134172487D03*
D25*
X98872851Y-137241987D03*
X100872851Y-137241987D03*
D32*
X76499351Y-112349987D03*
X78574351Y-112349987D03*
D37*
X124240851Y-126064336D03*
X122240851Y-126064336D03*
D38*
X124700851Y-108538336D03*
X121900851Y-108538336D03*
D37*
X124240851Y-121492336D03*
X122240851Y-121492336D03*
X126415851Y-131398336D03*
X124415851Y-131398336D03*
D14*
X74996851Y-122493987D03*
X74996851Y-120493987D03*
D31*
X118034851Y-115888336D03*
X119334851Y-115888336D03*
X118684851Y-113888336D03*
D27*
X76774851Y-91013987D03*
D28*
X74234851Y-91013987D03*
D39*
X133116851Y-94529987D03*
D40*
X133116851Y-91989987D03*
X133116851Y-89449987D03*
D12*
X87343351Y-91309987D03*
X85268351Y-91309987D03*
D25*
X111556851Y-94315987D03*
X109556851Y-94315987D03*
D37*
X87305851Y-93595987D03*
X85305851Y-93595987D03*
D12*
X78828351Y-100157987D03*
X76753351Y-100157987D03*
D13*
X74234851Y-107253987D03*
X74234851Y-105253987D03*
D31*
X101397851Y-90235987D03*
X102697851Y-90235987D03*
X102047851Y-88235987D03*
X104191851Y-90235987D03*
X105491851Y-90235987D03*
X104841851Y-88235987D03*
X98349851Y-90235987D03*
X99649851Y-90235987D03*
X98999851Y-88235987D03*
D18*
X94554851Y-132437487D03*
X94554851Y-130362487D03*
D13*
X81854851Y-114651987D03*
X81854851Y-116651987D03*
D18*
X76520851Y-105259487D03*
X76520851Y-103184487D03*
D41*
X111506851Y-99130987D03*
X110556851Y-99130987D03*
X109606851Y-99130987D03*
X109606851Y-96855987D03*
X110556851Y-96855987D03*
X111506851Y-96855987D03*
D12*
X109519351Y-101427987D03*
X111594351Y-101427987D03*
D13*
X79314851Y-116651987D03*
X79314851Y-114651987D03*
D19*
X98364851Y-109047987D03*
X95824851Y-106507987D03*
X93284851Y-109047987D03*
D42*
X121956851Y-82829987D03*
D43*
X127456851Y-82829987D03*
D44*
X134756851Y-82829987D03*
D45*
X124780851Y-103207638D03*
D46*
X124780851Y-99707638D03*
D47*
X103712851Y-119105987D03*
X101412851Y-119105987D03*
D48*
X101412851Y-125405987D03*
D47*
X99112851Y-119105987D03*
D18*
X96332851Y-125579487D03*
X96332851Y-123504487D03*
D41*
X106426851Y-96734487D03*
X105476851Y-96734487D03*
X104526851Y-96734487D03*
X104526851Y-99009487D03*
X105476851Y-99009487D03*
X106426851Y-99009487D03*
D37*
X126415851Y-128858336D03*
X124415851Y-128858336D03*
D42*
X87581851Y-83139987D03*
D49*
X82081851Y-83139987D03*
D44*
X74781851Y-83139987D03*
D50*
X109226851Y-83125987D03*
D51*
X106726851Y-83125987D03*
X104226851Y-83125987D03*
X101726851Y-83125987D03*
M02*
