M48
; DRILL file {KiCad (6.0.5)} date Fri Aug 18 19:40:01 2023
; FORMAT={-:-/ absolute / metric / decimal}
; #@! TF.CreationDate,2023-08-18T19:40:01-04:00
; #@! TF.GenerationSoftware,Kicad,Pcbnew,(6.0.5)
; #@! TF.FileFunction,Plated,1,2,PTH
FMAT,2
METRIC
; #@! TA.AperFunction,Plated,PTH,ViaDrill
T1C0.400
; #@! TA.AperFunction,Plated,PTH,ComponentDrill
T2C0.750
; #@! TA.AperFunction,Plated,PTH,ComponentDrill
T3C0.800
; #@! TA.AperFunction,Plated,PTH,ComponentDrill
T4C0.900
; #@! TA.AperFunction,Plated,PTH,ComponentDrill
T5C0.950
; #@! TA.AperFunction,Plated,PTH,ComponentDrill
T6C1.000
; #@! TA.AperFunction,Plated,PTH,ComponentDrill
T7C1.020
; #@! TA.AperFunction,Plated,PTH,ComponentDrill
T8C1.250
; #@! TA.AperFunction,Plated,PTH,ComponentDrill
T9C1.800
%
G90
G05
T1
X74.489Y-97.11
X74.997Y-135.464
X78.045Y-117.938
X79.315Y-117.938
X79.823Y-94.062
X81.347Y-92.792
X81.855Y-98.38
X85.157Y-135.21
X91.761Y-136.988
X93.793Y-99.396
X94.047Y-113.62
X94.047Y-134.321
X94.047Y-135.32
X94.809Y-139.274
X95.063Y-141.56
X96.333Y-98.126
X96.333Y-139.274
X97.095Y-135.972
X97.095Y-137.242
X97.857Y-116.16
X97.857Y-129.114
X98.619Y-140.417
X99.127Y-122.51
X99.381Y-98.126
X99.889Y-141.062
X101.159Y-113.62
X101.667Y-140.29
X102.429Y-99.142
X102.937Y-122.51
X103.191Y-129.114
X104.207Y-137.75
X104.461Y-92.03
X104.461Y-128.214
X105.477Y-131.4
X106.493Y-105.746
X107.255Y-134.194
X107.763Y-105.619
X108.017Y-99.65
X110.049Y-90.252
X110.557Y-112.35
X110.557Y-117.43
X111.573Y-92.792
X111.827Y-139.02
X112.843Y-91.014
X112.843Y-92.919
X112.843Y-102.698
X113.097Y-117.43
X115.256Y-119.333
X115.383Y-117.176
X115.637Y-91.014
X115.637Y-92.919
X116.907Y-112.858
X116.907Y-122.764
X117.161Y-126.32
X121.987Y-112.35
X121.987Y-117.43
X126.432Y-133.305
X134.687Y-109.81
X134.687Y-114.89
X134.687Y-119.97
X134.687Y-125.05
X134.687Y-130.13
X134.687Y-135.21
X134.687Y-140.29
T2
X93.285Y-109.048
X95.825Y-106.508
X98.365Y-109.048
X115.296Y-134.613
X117.796Y-137.113
X120.346Y-134.613
T3
X93.295Y-95.093
X93.295Y-102.713
X95.835Y-95.093
X95.835Y-102.713
X98.375Y-95.093
X98.375Y-102.713
X100.915Y-95.093
X100.915Y-102.713
X124.781Y-99.708
X124.781Y-103.208
T4
X74.235Y-91.014
X74.997Y-125.309
X74.997Y-127.849
X76.775Y-91.014
T5
X101.727Y-83.126
X104.227Y-83.126
X106.727Y-83.126
X109.227Y-83.126
X133.117Y-89.45
X133.117Y-91.99
X133.117Y-94.53
T6
X106.787Y-109.002
X109.287Y-109.002
T7
X133.717Y-99.65
X133.717Y-102.19
X133.717Y-104.73
X133.717Y-107.27
T8
X80.411Y-139.843
X85.411Y-139.843
X90.411Y-139.843
T9
X82.082Y-83.14
X87.582Y-83.14
X121.957Y-82.83
X127.457Y-82.83
T0
M30
