%FSLAX45Y45*%
G04 Gerber Fmt 4.5, Leading zero omitted, Abs format (unit mm)*
G04 Created by KiCad (PCBNEW (6.0.5)) date 2023-08-18 19:43:42*
%MOMM*%
%LPD*%
G01*
G04 APERTURE LIST*
%TA.AperFunction,Profile*%
%ADD10C,0.100000*%
%TD*%
%TA.AperFunction,Profile*%
%ADD11C,0.050000*%
%TD*%
%ADD12C,0.200000*%
%ADD13C,0.110000*%
%ADD14C,0.150000*%
%ADD15C,0.300000*%
G04 APERTURE END LIST*
D10*
X13008685Y-9479999D02*
G75*
G03*
X13008685Y-9479999I-175000J0D01*
G01*
X7674685Y-13924999D02*
G75*
G03*
X7674685Y-13924999I-175000J0D01*
G01*
X9452685Y-8082999D02*
G75*
G03*
X9452685Y-8082999I-175000J0D01*
G01*
X13135685Y-13774999D02*
G75*
G03*
X13135685Y-13774999I-175000J0D01*
G01*
D11*
X7245685Y-7782999D02*
X13745685Y-7782999D01*
X13745685Y-7782999D02*
X13745685Y-14282999D01*
X13745685Y-14282999D02*
X7245685Y-14282999D01*
X7245685Y-14282999D02*
X7245685Y-7782999D01*
D12*
D13*
X13532685Y-10417999D02*
X13642685Y-10527999D01*
X13642685Y-10417999D02*
X13532685Y-10527999D01*
D14*
X7983085Y-12034349D02*
G75*
G03*
X7983085Y-12034349I-75000J0D01*
G01*
X9249085Y-12034349D02*
G75*
G03*
X9249085Y-12034349I-75000J0D01*
G01*
D15*
X7478185Y-8163999D02*
X7478185Y-8463999D01*
X7328185Y-8313999D02*
X7628185Y-8313999D01*
X13475685Y-8132999D02*
X13475685Y-8432999D01*
X13325685Y-8282999D02*
X13625685Y-8282999D01*
D12*
X7500804Y-14595975D02*
X7500804Y-14395975D01*
X7548423Y-14395975D01*
X7576995Y-14405499D01*
X7596042Y-14424546D01*
X7605566Y-14443594D01*
X7615090Y-14481689D01*
X7615090Y-14510261D01*
X7605566Y-14548356D01*
X7596042Y-14567403D01*
X7576995Y-14586451D01*
X7548423Y-14595975D01*
X7500804Y-14595975D01*
X7700804Y-14595975D02*
X7700804Y-14462641D01*
X7700804Y-14500737D02*
X7710328Y-14481689D01*
X7719852Y-14472165D01*
X7738899Y-14462641D01*
X7757947Y-14462641D01*
X7824614Y-14595975D02*
X7824614Y-14462641D01*
X7824614Y-14395975D02*
X7815090Y-14405499D01*
X7824614Y-14415022D01*
X7834137Y-14405499D01*
X7824614Y-14395975D01*
X7824614Y-14415022D01*
X7948423Y-14595975D02*
X7929375Y-14586451D01*
X7919852Y-14567403D01*
X7919852Y-14395975D01*
X8053185Y-14595975D02*
X8034137Y-14586451D01*
X8024614Y-14567403D01*
X8024614Y-14395975D01*
X8281756Y-14595975D02*
X8281756Y-14395975D01*
X8348423Y-14538832D01*
X8415090Y-14395975D01*
X8415090Y-14595975D01*
X8596042Y-14595975D02*
X8596042Y-14491213D01*
X8586518Y-14472165D01*
X8567471Y-14462641D01*
X8529376Y-14462641D01*
X8510328Y-14472165D01*
X8596042Y-14586451D02*
X8576995Y-14595975D01*
X8529376Y-14595975D01*
X8510328Y-14586451D01*
X8500804Y-14567403D01*
X8500804Y-14548356D01*
X8510328Y-14529308D01*
X8529376Y-14519784D01*
X8576995Y-14519784D01*
X8596042Y-14510261D01*
X8691280Y-14462641D02*
X8691280Y-14662641D01*
X8691280Y-14472165D02*
X8710328Y-14462641D01*
X8748423Y-14462641D01*
X8767471Y-14472165D01*
X8776995Y-14481689D01*
X8786518Y-14500737D01*
X8786518Y-14557880D01*
X8776995Y-14576927D01*
X8767471Y-14586451D01*
X8748423Y-14595975D01*
X8710328Y-14595975D01*
X8691280Y-14586451D01*
X8872233Y-14576927D02*
X8881757Y-14586451D01*
X8872233Y-14595975D01*
X8862709Y-14586451D01*
X8872233Y-14576927D01*
X8872233Y-14595975D01*
X8872233Y-14472165D02*
X8881757Y-14481689D01*
X8872233Y-14491213D01*
X8862709Y-14481689D01*
X8872233Y-14472165D01*
X8872233Y-14491213D01*
D13*
X7133185Y-14870499D02*
X7243185Y-14980499D01*
X7243185Y-14870499D02*
X7133185Y-14980499D01*
D12*
X7605566Y-15015975D02*
X7491280Y-15015975D01*
X7548423Y-15015975D02*
X7548423Y-14815975D01*
X7529375Y-14844546D01*
X7510328Y-14863594D01*
X7491280Y-14873118D01*
X7691280Y-14996927D02*
X7700804Y-15006451D01*
X7691280Y-15015975D01*
X7681756Y-15006451D01*
X7691280Y-14996927D01*
X7691280Y-15015975D01*
X7891280Y-15015975D02*
X7776995Y-15015975D01*
X7834137Y-15015975D02*
X7834137Y-14815975D01*
X7815090Y-14844546D01*
X7796042Y-14863594D01*
X7776995Y-14873118D01*
X8015090Y-14815975D02*
X8034137Y-14815975D01*
X8053185Y-14825499D01*
X8062709Y-14835022D01*
X8072233Y-14854070D01*
X8081756Y-14892165D01*
X8081756Y-14939784D01*
X8072233Y-14977880D01*
X8062709Y-14996927D01*
X8053185Y-15006451D01*
X8034137Y-15015975D01*
X8015090Y-15015975D01*
X7996042Y-15006451D01*
X7986518Y-14996927D01*
X7976995Y-14977880D01*
X7967471Y-14939784D01*
X7967471Y-14892165D01*
X7976995Y-14854070D01*
X7986518Y-14835022D01*
X7996042Y-14825499D01*
X8015090Y-14815975D01*
X8205566Y-14815975D02*
X8224614Y-14815975D01*
X8243661Y-14825499D01*
X8253185Y-14835022D01*
X8262709Y-14854070D01*
X8272233Y-14892165D01*
X8272233Y-14939784D01*
X8262709Y-14977880D01*
X8253185Y-14996927D01*
X8243661Y-15006451D01*
X8224614Y-15015975D01*
X8205566Y-15015975D01*
X8186518Y-15006451D01*
X8176995Y-14996927D01*
X8167471Y-14977880D01*
X8157947Y-14939784D01*
X8157947Y-14892165D01*
X8167471Y-14854070D01*
X8176995Y-14835022D01*
X8186518Y-14825499D01*
X8205566Y-14815975D01*
X8357947Y-15015975D02*
X8357947Y-14882641D01*
X8357947Y-14901689D02*
X8367471Y-14892165D01*
X8386518Y-14882641D01*
X8415090Y-14882641D01*
X8434137Y-14892165D01*
X8443661Y-14911213D01*
X8443661Y-15015975D01*
X8443661Y-14911213D02*
X8453185Y-14892165D01*
X8472233Y-14882641D01*
X8500804Y-14882641D01*
X8519852Y-14892165D01*
X8529376Y-14911213D01*
X8529376Y-15015975D01*
X8624614Y-15015975D02*
X8624614Y-14882641D01*
X8624614Y-14901689D02*
X8634137Y-14892165D01*
X8653185Y-14882641D01*
X8681757Y-14882641D01*
X8700804Y-14892165D01*
X8710328Y-14911213D01*
X8710328Y-15015975D01*
X8710328Y-14911213D02*
X8719852Y-14892165D01*
X8738899Y-14882641D01*
X8767471Y-14882641D01*
X8786518Y-14892165D01*
X8796042Y-14911213D01*
X8796042Y-15015975D01*
X9186518Y-14806451D02*
X9015090Y-15063594D01*
X9443661Y-14815975D02*
X9462709Y-14815975D01*
X9481757Y-14825499D01*
X9491280Y-14835022D01*
X9500804Y-14854070D01*
X9510328Y-14892165D01*
X9510328Y-14939784D01*
X9500804Y-14977880D01*
X9491280Y-14996927D01*
X9481757Y-15006451D01*
X9462709Y-15015975D01*
X9443661Y-15015975D01*
X9424614Y-15006451D01*
X9415090Y-14996927D01*
X9405566Y-14977880D01*
X9396042Y-14939784D01*
X9396042Y-14892165D01*
X9405566Y-14854070D01*
X9415090Y-14835022D01*
X9424614Y-14825499D01*
X9443661Y-14815975D01*
X9596042Y-14996927D02*
X9605566Y-15006451D01*
X9596042Y-15015975D01*
X9586518Y-15006451D01*
X9596042Y-14996927D01*
X9596042Y-15015975D01*
X9729376Y-14815975D02*
X9748423Y-14815975D01*
X9767471Y-14825499D01*
X9776995Y-14835022D01*
X9786518Y-14854070D01*
X9796042Y-14892165D01*
X9796042Y-14939784D01*
X9786518Y-14977880D01*
X9776995Y-14996927D01*
X9767471Y-15006451D01*
X9748423Y-15015975D01*
X9729376Y-15015975D01*
X9710328Y-15006451D01*
X9700804Y-14996927D01*
X9691280Y-14977880D01*
X9681757Y-14939784D01*
X9681757Y-14892165D01*
X9691280Y-14854070D01*
X9700804Y-14835022D01*
X9710328Y-14825499D01*
X9729376Y-14815975D01*
X9967471Y-14882641D02*
X9967471Y-15015975D01*
X9919852Y-14806451D02*
X9872233Y-14949308D01*
X9996042Y-14949308D01*
X10053185Y-14815975D02*
X10176995Y-14815975D01*
X10110328Y-14892165D01*
X10138899Y-14892165D01*
X10157947Y-14901689D01*
X10167471Y-14911213D01*
X10176995Y-14930261D01*
X10176995Y-14977880D01*
X10167471Y-14996927D01*
X10157947Y-15006451D01*
X10138899Y-15015975D01*
X10081757Y-15015975D01*
X10062709Y-15006451D01*
X10053185Y-14996927D01*
X10243661Y-14815975D02*
X10367471Y-14815975D01*
X10300804Y-14892165D01*
X10329376Y-14892165D01*
X10348423Y-14901689D01*
X10357947Y-14911213D01*
X10367471Y-14930261D01*
X10367471Y-14977880D01*
X10357947Y-14996927D01*
X10348423Y-15006451D01*
X10329376Y-15015975D01*
X10272233Y-15015975D01*
X10253185Y-15006451D01*
X10243661Y-14996927D01*
X10443661Y-14815975D02*
X10443661Y-14854070D01*
X10519852Y-14815975D02*
X10519852Y-14854070D01*
X10815090Y-15092165D02*
X10805566Y-15082641D01*
X10786518Y-15054070D01*
X10776995Y-15035022D01*
X10767471Y-15006451D01*
X10757947Y-14958832D01*
X10757947Y-14920737D01*
X10767471Y-14873118D01*
X10776995Y-14844546D01*
X10786518Y-14825499D01*
X10805566Y-14796927D01*
X10815090Y-14787403D01*
X10996042Y-15015975D02*
X10881757Y-15015975D01*
X10938899Y-15015975D02*
X10938899Y-14815975D01*
X10919852Y-14844546D01*
X10900804Y-14863594D01*
X10881757Y-14873118D01*
X11234137Y-15015975D02*
X11234137Y-14815975D01*
X11319852Y-15015975D02*
X11319852Y-14911213D01*
X11310328Y-14892165D01*
X11291280Y-14882641D01*
X11262709Y-14882641D01*
X11243661Y-14892165D01*
X11234137Y-14901689D01*
X11443661Y-15015975D02*
X11424614Y-15006451D01*
X11415090Y-14996927D01*
X11405566Y-14977880D01*
X11405566Y-14920737D01*
X11415090Y-14901689D01*
X11424614Y-14892165D01*
X11443661Y-14882641D01*
X11472233Y-14882641D01*
X11491280Y-14892165D01*
X11500804Y-14901689D01*
X11510328Y-14920737D01*
X11510328Y-14977880D01*
X11500804Y-14996927D01*
X11491280Y-15006451D01*
X11472233Y-15015975D01*
X11443661Y-15015975D01*
X11624614Y-15015975D02*
X11605566Y-15006451D01*
X11596042Y-14987403D01*
X11596042Y-14815975D01*
X11776995Y-15006451D02*
X11757947Y-15015975D01*
X11719852Y-15015975D01*
X11700804Y-15006451D01*
X11691280Y-14987403D01*
X11691280Y-14911213D01*
X11700804Y-14892165D01*
X11719852Y-14882641D01*
X11757947Y-14882641D01*
X11776995Y-14892165D01*
X11786518Y-14911213D01*
X11786518Y-14930261D01*
X11691280Y-14949308D01*
X11853185Y-15092165D02*
X11862709Y-15082641D01*
X11881756Y-15054070D01*
X11891280Y-15035022D01*
X11900804Y-15006451D01*
X11910328Y-14958832D01*
X11910328Y-14920737D01*
X11900804Y-14873118D01*
X11891280Y-14844546D01*
X11881756Y-14825499D01*
X11862709Y-14796927D01*
X11853185Y-14787403D01*
X12215090Y-15092165D02*
X12205566Y-15082641D01*
X12186518Y-15054070D01*
X12176995Y-15035022D01*
X12167471Y-15006451D01*
X12157947Y-14958832D01*
X12157947Y-14920737D01*
X12167471Y-14873118D01*
X12176995Y-14844546D01*
X12186518Y-14825499D01*
X12205566Y-14796927D01*
X12215090Y-14787403D01*
X12291280Y-14882641D02*
X12291280Y-15015975D01*
X12291280Y-14901689D02*
X12300804Y-14892165D01*
X12319852Y-14882641D01*
X12348423Y-14882641D01*
X12367471Y-14892165D01*
X12376995Y-14911213D01*
X12376995Y-15015975D01*
X12500804Y-15015975D02*
X12481756Y-15006451D01*
X12472233Y-14996927D01*
X12462709Y-14977880D01*
X12462709Y-14920737D01*
X12472233Y-14901689D01*
X12481756Y-14892165D01*
X12500804Y-14882641D01*
X12529375Y-14882641D01*
X12548423Y-14892165D01*
X12557947Y-14901689D01*
X12567471Y-14920737D01*
X12567471Y-14977880D01*
X12557947Y-14996927D01*
X12548423Y-15006451D01*
X12529375Y-15015975D01*
X12500804Y-15015975D01*
X12624614Y-14882641D02*
X12700804Y-14882641D01*
X12653185Y-14815975D02*
X12653185Y-14987403D01*
X12662709Y-15006451D01*
X12681756Y-15015975D01*
X12700804Y-15015975D01*
X12919852Y-14882641D02*
X12919852Y-15082641D01*
X12919852Y-14892165D02*
X12938899Y-14882641D01*
X12976995Y-14882641D01*
X12996042Y-14892165D01*
X13005566Y-14901689D01*
X13015090Y-14920737D01*
X13015090Y-14977880D01*
X13005566Y-14996927D01*
X12996042Y-15006451D01*
X12976995Y-15015975D01*
X12938899Y-15015975D01*
X12919852Y-15006451D01*
X13129375Y-15015975D02*
X13110328Y-15006451D01*
X13100804Y-14987403D01*
X13100804Y-14815975D01*
X13291280Y-15015975D02*
X13291280Y-14911213D01*
X13281756Y-14892165D01*
X13262709Y-14882641D01*
X13224614Y-14882641D01*
X13205566Y-14892165D01*
X13291280Y-15006451D02*
X13272233Y-15015975D01*
X13224614Y-15015975D01*
X13205566Y-15006451D01*
X13196042Y-14987403D01*
X13196042Y-14968356D01*
X13205566Y-14949308D01*
X13224614Y-14939784D01*
X13272233Y-14939784D01*
X13291280Y-14930261D01*
X13357947Y-14882641D02*
X13434137Y-14882641D01*
X13386518Y-14815975D02*
X13386518Y-14987403D01*
X13396042Y-15006451D01*
X13415090Y-15015975D01*
X13434137Y-15015975D01*
X13576995Y-15006451D02*
X13557947Y-15015975D01*
X13519852Y-15015975D01*
X13500804Y-15006451D01*
X13491280Y-14987403D01*
X13491280Y-14911213D01*
X13500804Y-14892165D01*
X13519852Y-14882641D01*
X13557947Y-14882641D01*
X13576995Y-14892165D01*
X13586518Y-14911213D01*
X13586518Y-14930261D01*
X13491280Y-14949308D01*
X13757947Y-15015975D02*
X13757947Y-14815975D01*
X13757947Y-15006451D02*
X13738899Y-15015975D01*
X13700804Y-15015975D01*
X13681756Y-15006451D01*
X13672233Y-14996927D01*
X13662709Y-14977880D01*
X13662709Y-14920737D01*
X13672233Y-14901689D01*
X13681756Y-14892165D01*
X13700804Y-14882641D01*
X13738899Y-14882641D01*
X13757947Y-14892165D01*
X13834137Y-15092165D02*
X13843661Y-15082641D01*
X13862709Y-15054070D01*
X13872233Y-15035022D01*
X13881756Y-15006451D01*
X13891280Y-14958832D01*
X13891280Y-14920737D01*
X13881756Y-14873118D01*
X13872233Y-14844546D01*
X13862709Y-14825499D01*
X13843661Y-14796927D01*
X13834137Y-14787403D01*
D14*
X7243185Y-15189499D02*
G75*
G03*
X7243185Y-15189499I-75000J0D01*
G01*
D12*
X7605566Y-15279975D02*
X7491280Y-15279975D01*
X7548423Y-15279975D02*
X7548423Y-15079975D01*
X7529375Y-15108546D01*
X7510328Y-15127594D01*
X7491280Y-15137118D01*
X7691280Y-15260927D02*
X7700804Y-15270451D01*
X7691280Y-15279975D01*
X7681756Y-15270451D01*
X7691280Y-15260927D01*
X7691280Y-15279975D01*
X7881756Y-15079975D02*
X7786518Y-15079975D01*
X7776995Y-15175213D01*
X7786518Y-15165689D01*
X7805566Y-15156165D01*
X7853185Y-15156165D01*
X7872233Y-15165689D01*
X7881756Y-15175213D01*
X7891280Y-15194261D01*
X7891280Y-15241880D01*
X7881756Y-15260927D01*
X7872233Y-15270451D01*
X7853185Y-15279975D01*
X7805566Y-15279975D01*
X7786518Y-15270451D01*
X7776995Y-15260927D01*
X8015090Y-15079975D02*
X8034137Y-15079975D01*
X8053185Y-15089499D01*
X8062709Y-15099022D01*
X8072233Y-15118070D01*
X8081756Y-15156165D01*
X8081756Y-15203784D01*
X8072233Y-15241880D01*
X8062709Y-15260927D01*
X8053185Y-15270451D01*
X8034137Y-15279975D01*
X8015090Y-15279975D01*
X7996042Y-15270451D01*
X7986518Y-15260927D01*
X7976995Y-15241880D01*
X7967471Y-15203784D01*
X7967471Y-15156165D01*
X7976995Y-15118070D01*
X7986518Y-15099022D01*
X7996042Y-15089499D01*
X8015090Y-15079975D01*
X8205566Y-15079975D02*
X8224614Y-15079975D01*
X8243661Y-15089499D01*
X8253185Y-15099022D01*
X8262709Y-15118070D01*
X8272233Y-15156165D01*
X8272233Y-15203784D01*
X8262709Y-15241880D01*
X8253185Y-15260927D01*
X8243661Y-15270451D01*
X8224614Y-15279975D01*
X8205566Y-15279975D01*
X8186518Y-15270451D01*
X8176995Y-15260927D01*
X8167471Y-15241880D01*
X8157947Y-15203784D01*
X8157947Y-15156165D01*
X8167471Y-15118070D01*
X8176995Y-15099022D01*
X8186518Y-15089499D01*
X8205566Y-15079975D01*
X8357947Y-15279975D02*
X8357947Y-15146641D01*
X8357947Y-15165689D02*
X8367471Y-15156165D01*
X8386518Y-15146641D01*
X8415090Y-15146641D01*
X8434137Y-15156165D01*
X8443661Y-15175213D01*
X8443661Y-15279975D01*
X8443661Y-15175213D02*
X8453185Y-15156165D01*
X8472233Y-15146641D01*
X8500804Y-15146641D01*
X8519852Y-15156165D01*
X8529376Y-15175213D01*
X8529376Y-15279975D01*
X8624614Y-15279975D02*
X8624614Y-15146641D01*
X8624614Y-15165689D02*
X8634137Y-15156165D01*
X8653185Y-15146641D01*
X8681757Y-15146641D01*
X8700804Y-15156165D01*
X8710328Y-15175213D01*
X8710328Y-15279975D01*
X8710328Y-15175213D02*
X8719852Y-15156165D01*
X8738899Y-15146641D01*
X8767471Y-15146641D01*
X8786518Y-15156165D01*
X8796042Y-15175213D01*
X8796042Y-15279975D01*
X9186518Y-15070451D02*
X9015090Y-15327594D01*
X9443661Y-15079975D02*
X9462709Y-15079975D01*
X9481757Y-15089499D01*
X9491280Y-15099022D01*
X9500804Y-15118070D01*
X9510328Y-15156165D01*
X9510328Y-15203784D01*
X9500804Y-15241880D01*
X9491280Y-15260927D01*
X9481757Y-15270451D01*
X9462709Y-15279975D01*
X9443661Y-15279975D01*
X9424614Y-15270451D01*
X9415090Y-15260927D01*
X9405566Y-15241880D01*
X9396042Y-15203784D01*
X9396042Y-15156165D01*
X9405566Y-15118070D01*
X9415090Y-15099022D01*
X9424614Y-15089499D01*
X9443661Y-15079975D01*
X9596042Y-15260927D02*
X9605566Y-15270451D01*
X9596042Y-15279975D01*
X9586518Y-15270451D01*
X9596042Y-15260927D01*
X9596042Y-15279975D01*
X9729376Y-15079975D02*
X9748423Y-15079975D01*
X9767471Y-15089499D01*
X9776995Y-15099022D01*
X9786518Y-15118070D01*
X9796042Y-15156165D01*
X9796042Y-15203784D01*
X9786518Y-15241880D01*
X9776995Y-15260927D01*
X9767471Y-15270451D01*
X9748423Y-15279975D01*
X9729376Y-15279975D01*
X9710328Y-15270451D01*
X9700804Y-15260927D01*
X9691280Y-15241880D01*
X9681757Y-15203784D01*
X9681757Y-15156165D01*
X9691280Y-15118070D01*
X9700804Y-15099022D01*
X9710328Y-15089499D01*
X9729376Y-15079975D01*
X9976995Y-15079975D02*
X9881757Y-15079975D01*
X9872233Y-15175213D01*
X9881757Y-15165689D01*
X9900804Y-15156165D01*
X9948423Y-15156165D01*
X9967471Y-15165689D01*
X9976995Y-15175213D01*
X9986518Y-15194261D01*
X9986518Y-15241880D01*
X9976995Y-15260927D01*
X9967471Y-15270451D01*
X9948423Y-15279975D01*
X9900804Y-15279975D01*
X9881757Y-15270451D01*
X9872233Y-15260927D01*
X10081757Y-15279975D02*
X10119852Y-15279975D01*
X10138899Y-15270451D01*
X10148423Y-15260927D01*
X10167471Y-15232356D01*
X10176995Y-15194261D01*
X10176995Y-15118070D01*
X10167471Y-15099022D01*
X10157947Y-15089499D01*
X10138899Y-15079975D01*
X10100804Y-15079975D01*
X10081757Y-15089499D01*
X10072233Y-15099022D01*
X10062709Y-15118070D01*
X10062709Y-15165689D01*
X10072233Y-15184737D01*
X10081757Y-15194261D01*
X10100804Y-15203784D01*
X10138899Y-15203784D01*
X10157947Y-15194261D01*
X10167471Y-15184737D01*
X10176995Y-15165689D01*
X10367471Y-15279975D02*
X10253185Y-15279975D01*
X10310328Y-15279975D02*
X10310328Y-15079975D01*
X10291280Y-15108546D01*
X10272233Y-15127594D01*
X10253185Y-15137118D01*
X10443661Y-15079975D02*
X10443661Y-15118070D01*
X10519852Y-15079975D02*
X10519852Y-15118070D01*
X10815090Y-15356165D02*
X10805566Y-15346641D01*
X10786518Y-15318070D01*
X10776995Y-15299022D01*
X10767471Y-15270451D01*
X10757947Y-15222832D01*
X10757947Y-15184737D01*
X10767471Y-15137118D01*
X10776995Y-15108546D01*
X10786518Y-15089499D01*
X10805566Y-15060927D01*
X10815090Y-15051403D01*
X10881757Y-15099022D02*
X10891280Y-15089499D01*
X10910328Y-15079975D01*
X10957947Y-15079975D01*
X10976995Y-15089499D01*
X10986518Y-15099022D01*
X10996042Y-15118070D01*
X10996042Y-15137118D01*
X10986518Y-15165689D01*
X10872233Y-15279975D01*
X10996042Y-15279975D01*
X11234137Y-15279975D02*
X11234137Y-15079975D01*
X11319852Y-15279975D02*
X11319852Y-15175213D01*
X11310328Y-15156165D01*
X11291280Y-15146641D01*
X11262709Y-15146641D01*
X11243661Y-15156165D01*
X11234137Y-15165689D01*
X11443661Y-15279975D02*
X11424614Y-15270451D01*
X11415090Y-15260927D01*
X11405566Y-15241880D01*
X11405566Y-15184737D01*
X11415090Y-15165689D01*
X11424614Y-15156165D01*
X11443661Y-15146641D01*
X11472233Y-15146641D01*
X11491280Y-15156165D01*
X11500804Y-15165689D01*
X11510328Y-15184737D01*
X11510328Y-15241880D01*
X11500804Y-15260927D01*
X11491280Y-15270451D01*
X11472233Y-15279975D01*
X11443661Y-15279975D01*
X11624614Y-15279975D02*
X11605566Y-15270451D01*
X11596042Y-15251403D01*
X11596042Y-15079975D01*
X11776995Y-15270451D02*
X11757947Y-15279975D01*
X11719852Y-15279975D01*
X11700804Y-15270451D01*
X11691280Y-15251403D01*
X11691280Y-15175213D01*
X11700804Y-15156165D01*
X11719852Y-15146641D01*
X11757947Y-15146641D01*
X11776995Y-15156165D01*
X11786518Y-15175213D01*
X11786518Y-15194261D01*
X11691280Y-15213308D01*
X11862709Y-15270451D02*
X11881756Y-15279975D01*
X11919852Y-15279975D01*
X11938899Y-15270451D01*
X11948423Y-15251403D01*
X11948423Y-15241880D01*
X11938899Y-15222832D01*
X11919852Y-15213308D01*
X11891280Y-15213308D01*
X11872233Y-15203784D01*
X11862709Y-15184737D01*
X11862709Y-15175213D01*
X11872233Y-15156165D01*
X11891280Y-15146641D01*
X11919852Y-15146641D01*
X11938899Y-15156165D01*
X12015090Y-15356165D02*
X12024614Y-15346641D01*
X12043661Y-15318070D01*
X12053185Y-15299022D01*
X12062709Y-15270451D01*
X12072233Y-15222832D01*
X12072233Y-15184737D01*
X12062709Y-15137118D01*
X12053185Y-15108546D01*
X12043661Y-15089499D01*
X12024614Y-15060927D01*
X12015090Y-15051403D01*
X12376995Y-15356165D02*
X12367471Y-15346641D01*
X12348423Y-15318070D01*
X12338899Y-15299022D01*
X12329375Y-15270451D01*
X12319852Y-15222832D01*
X12319852Y-15184737D01*
X12329375Y-15137118D01*
X12338899Y-15108546D01*
X12348423Y-15089499D01*
X12367471Y-15060927D01*
X12376995Y-15051403D01*
X12453185Y-15146641D02*
X12453185Y-15279975D01*
X12453185Y-15165689D02*
X12462709Y-15156165D01*
X12481756Y-15146641D01*
X12510328Y-15146641D01*
X12529375Y-15156165D01*
X12538899Y-15175213D01*
X12538899Y-15279975D01*
X12662709Y-15279975D02*
X12643661Y-15270451D01*
X12634137Y-15260927D01*
X12624614Y-15241880D01*
X12624614Y-15184737D01*
X12634137Y-15165689D01*
X12643661Y-15156165D01*
X12662709Y-15146641D01*
X12691280Y-15146641D01*
X12710328Y-15156165D01*
X12719852Y-15165689D01*
X12729375Y-15184737D01*
X12729375Y-15241880D01*
X12719852Y-15260927D01*
X12710328Y-15270451D01*
X12691280Y-15279975D01*
X12662709Y-15279975D01*
X12786518Y-15146641D02*
X12862709Y-15146641D01*
X12815090Y-15079975D02*
X12815090Y-15251403D01*
X12824614Y-15270451D01*
X12843661Y-15279975D01*
X12862709Y-15279975D01*
X13081756Y-15146641D02*
X13081756Y-15346641D01*
X13081756Y-15156165D02*
X13100804Y-15146641D01*
X13138899Y-15146641D01*
X13157947Y-15156165D01*
X13167471Y-15165689D01*
X13176995Y-15184737D01*
X13176995Y-15241880D01*
X13167471Y-15260927D01*
X13157947Y-15270451D01*
X13138899Y-15279975D01*
X13100804Y-15279975D01*
X13081756Y-15270451D01*
X13291280Y-15279975D02*
X13272233Y-15270451D01*
X13262709Y-15251403D01*
X13262709Y-15079975D01*
X13453185Y-15279975D02*
X13453185Y-15175213D01*
X13443661Y-15156165D01*
X13424614Y-15146641D01*
X13386518Y-15146641D01*
X13367471Y-15156165D01*
X13453185Y-15270451D02*
X13434137Y-15279975D01*
X13386518Y-15279975D01*
X13367471Y-15270451D01*
X13357947Y-15251403D01*
X13357947Y-15232356D01*
X13367471Y-15213308D01*
X13386518Y-15203784D01*
X13434137Y-15203784D01*
X13453185Y-15194261D01*
X13519852Y-15146641D02*
X13596042Y-15146641D01*
X13548423Y-15079975D02*
X13548423Y-15251403D01*
X13557947Y-15270451D01*
X13576995Y-15279975D01*
X13596042Y-15279975D01*
X13738899Y-15270451D02*
X13719852Y-15279975D01*
X13681756Y-15279975D01*
X13662709Y-15270451D01*
X13653185Y-15251403D01*
X13653185Y-15175213D01*
X13662709Y-15156165D01*
X13681756Y-15146641D01*
X13719852Y-15146641D01*
X13738899Y-15156165D01*
X13748423Y-15175213D01*
X13748423Y-15194261D01*
X13653185Y-15213308D01*
X13919852Y-15279975D02*
X13919852Y-15079975D01*
X13919852Y-15270451D02*
X13900804Y-15279975D01*
X13862709Y-15279975D01*
X13843661Y-15270451D01*
X13834137Y-15260927D01*
X13824614Y-15241880D01*
X13824614Y-15184737D01*
X13834137Y-15165689D01*
X13843661Y-15156165D01*
X13862709Y-15146641D01*
X13900804Y-15146641D01*
X13919852Y-15156165D01*
X13996042Y-15356165D02*
X14005566Y-15346641D01*
X14024614Y-15318070D01*
X14034137Y-15299022D01*
X14043661Y-15270451D01*
X14053185Y-15222832D01*
X14053185Y-15184737D01*
X14043661Y-15137118D01*
X14034137Y-15108546D01*
X14024614Y-15089499D01*
X14005566Y-15060927D01*
X13996042Y-15051403D01*
X7143185Y-15359499D02*
X7143185Y-15559499D01*
X7043185Y-15459499D02*
X7243185Y-15459499D01*
X7481756Y-15349975D02*
X7605566Y-15349975D01*
X7538899Y-15426165D01*
X7567471Y-15426165D01*
X7586518Y-15435689D01*
X7596042Y-15445213D01*
X7605566Y-15464261D01*
X7605566Y-15511880D01*
X7596042Y-15530927D01*
X7586518Y-15540451D01*
X7567471Y-15549975D01*
X7510328Y-15549975D01*
X7491280Y-15540451D01*
X7481756Y-15530927D01*
X7691280Y-15530927D02*
X7700804Y-15540451D01*
X7691280Y-15549975D01*
X7681756Y-15540451D01*
X7691280Y-15530927D01*
X7691280Y-15549975D01*
X7824614Y-15349975D02*
X7843661Y-15349975D01*
X7862709Y-15359499D01*
X7872233Y-15369022D01*
X7881756Y-15388070D01*
X7891280Y-15426165D01*
X7891280Y-15473784D01*
X7881756Y-15511880D01*
X7872233Y-15530927D01*
X7862709Y-15540451D01*
X7843661Y-15549975D01*
X7824614Y-15549975D01*
X7805566Y-15540451D01*
X7796042Y-15530927D01*
X7786518Y-15511880D01*
X7776995Y-15473784D01*
X7776995Y-15426165D01*
X7786518Y-15388070D01*
X7796042Y-15369022D01*
X7805566Y-15359499D01*
X7824614Y-15349975D01*
X8015090Y-15349975D02*
X8034137Y-15349975D01*
X8053185Y-15359499D01*
X8062709Y-15369022D01*
X8072233Y-15388070D01*
X8081756Y-15426165D01*
X8081756Y-15473784D01*
X8072233Y-15511880D01*
X8062709Y-15530927D01*
X8053185Y-15540451D01*
X8034137Y-15549975D01*
X8015090Y-15549975D01*
X7996042Y-15540451D01*
X7986518Y-15530927D01*
X7976995Y-15511880D01*
X7967471Y-15473784D01*
X7967471Y-15426165D01*
X7976995Y-15388070D01*
X7986518Y-15369022D01*
X7996042Y-15359499D01*
X8015090Y-15349975D01*
X8205566Y-15349975D02*
X8224614Y-15349975D01*
X8243661Y-15359499D01*
X8253185Y-15369022D01*
X8262709Y-15388070D01*
X8272233Y-15426165D01*
X8272233Y-15473784D01*
X8262709Y-15511880D01*
X8253185Y-15530927D01*
X8243661Y-15540451D01*
X8224614Y-15549975D01*
X8205566Y-15549975D01*
X8186518Y-15540451D01*
X8176995Y-15530927D01*
X8167471Y-15511880D01*
X8157947Y-15473784D01*
X8157947Y-15426165D01*
X8167471Y-15388070D01*
X8176995Y-15369022D01*
X8186518Y-15359499D01*
X8205566Y-15349975D01*
X8357947Y-15549975D02*
X8357947Y-15416641D01*
X8357947Y-15435689D02*
X8367471Y-15426165D01*
X8386518Y-15416641D01*
X8415090Y-15416641D01*
X8434137Y-15426165D01*
X8443661Y-15445213D01*
X8443661Y-15549975D01*
X8443661Y-15445213D02*
X8453185Y-15426165D01*
X8472233Y-15416641D01*
X8500804Y-15416641D01*
X8519852Y-15426165D01*
X8529376Y-15445213D01*
X8529376Y-15549975D01*
X8624614Y-15549975D02*
X8624614Y-15416641D01*
X8624614Y-15435689D02*
X8634137Y-15426165D01*
X8653185Y-15416641D01*
X8681757Y-15416641D01*
X8700804Y-15426165D01*
X8710328Y-15445213D01*
X8710328Y-15549975D01*
X8710328Y-15445213D02*
X8719852Y-15426165D01*
X8738899Y-15416641D01*
X8767471Y-15416641D01*
X8786518Y-15426165D01*
X8796042Y-15445213D01*
X8796042Y-15549975D01*
X9186518Y-15340451D02*
X9015090Y-15597594D01*
X9443661Y-15349975D02*
X9462709Y-15349975D01*
X9481757Y-15359499D01*
X9491280Y-15369022D01*
X9500804Y-15388070D01*
X9510328Y-15426165D01*
X9510328Y-15473784D01*
X9500804Y-15511880D01*
X9491280Y-15530927D01*
X9481757Y-15540451D01*
X9462709Y-15549975D01*
X9443661Y-15549975D01*
X9424614Y-15540451D01*
X9415090Y-15530927D01*
X9405566Y-15511880D01*
X9396042Y-15473784D01*
X9396042Y-15426165D01*
X9405566Y-15388070D01*
X9415090Y-15369022D01*
X9424614Y-15359499D01*
X9443661Y-15349975D01*
X9596042Y-15530927D02*
X9605566Y-15540451D01*
X9596042Y-15549975D01*
X9586518Y-15540451D01*
X9596042Y-15530927D01*
X9596042Y-15549975D01*
X9796042Y-15549975D02*
X9681757Y-15549975D01*
X9738899Y-15549975D02*
X9738899Y-15349975D01*
X9719852Y-15378546D01*
X9700804Y-15397594D01*
X9681757Y-15407118D01*
X9986518Y-15549975D02*
X9872233Y-15549975D01*
X9929376Y-15549975D02*
X9929376Y-15349975D01*
X9910328Y-15378546D01*
X9891280Y-15397594D01*
X9872233Y-15407118D01*
X10100804Y-15435689D02*
X10081757Y-15426165D01*
X10072233Y-15416641D01*
X10062709Y-15397594D01*
X10062709Y-15388070D01*
X10072233Y-15369022D01*
X10081757Y-15359499D01*
X10100804Y-15349975D01*
X10138899Y-15349975D01*
X10157947Y-15359499D01*
X10167471Y-15369022D01*
X10176995Y-15388070D01*
X10176995Y-15397594D01*
X10167471Y-15416641D01*
X10157947Y-15426165D01*
X10138899Y-15435689D01*
X10100804Y-15435689D01*
X10081757Y-15445213D01*
X10072233Y-15454737D01*
X10062709Y-15473784D01*
X10062709Y-15511880D01*
X10072233Y-15530927D01*
X10081757Y-15540451D01*
X10100804Y-15549975D01*
X10138899Y-15549975D01*
X10157947Y-15540451D01*
X10167471Y-15530927D01*
X10176995Y-15511880D01*
X10176995Y-15473784D01*
X10167471Y-15454737D01*
X10157947Y-15445213D01*
X10138899Y-15435689D01*
X10367471Y-15549975D02*
X10253185Y-15549975D01*
X10310328Y-15549975D02*
X10310328Y-15349975D01*
X10291280Y-15378546D01*
X10272233Y-15397594D01*
X10253185Y-15407118D01*
X10443661Y-15349975D02*
X10443661Y-15388070D01*
X10519852Y-15349975D02*
X10519852Y-15388070D01*
X10815090Y-15626165D02*
X10805566Y-15616641D01*
X10786518Y-15588070D01*
X10776995Y-15569022D01*
X10767471Y-15540451D01*
X10757947Y-15492832D01*
X10757947Y-15454737D01*
X10767471Y-15407118D01*
X10776995Y-15378546D01*
X10786518Y-15359499D01*
X10805566Y-15330927D01*
X10815090Y-15321403D01*
X10881757Y-15369022D02*
X10891280Y-15359499D01*
X10910328Y-15349975D01*
X10957947Y-15349975D01*
X10976995Y-15359499D01*
X10986518Y-15369022D01*
X10996042Y-15388070D01*
X10996042Y-15407118D01*
X10986518Y-15435689D01*
X10872233Y-15549975D01*
X10996042Y-15549975D01*
X11234137Y-15549975D02*
X11234137Y-15349975D01*
X11319852Y-15549975D02*
X11319852Y-15445213D01*
X11310328Y-15426165D01*
X11291280Y-15416641D01*
X11262709Y-15416641D01*
X11243661Y-15426165D01*
X11234137Y-15435689D01*
X11443661Y-15549975D02*
X11424614Y-15540451D01*
X11415090Y-15530927D01*
X11405566Y-15511880D01*
X11405566Y-15454737D01*
X11415090Y-15435689D01*
X11424614Y-15426165D01*
X11443661Y-15416641D01*
X11472233Y-15416641D01*
X11491280Y-15426165D01*
X11500804Y-15435689D01*
X11510328Y-15454737D01*
X11510328Y-15511880D01*
X11500804Y-15530927D01*
X11491280Y-15540451D01*
X11472233Y-15549975D01*
X11443661Y-15549975D01*
X11624614Y-15549975D02*
X11605566Y-15540451D01*
X11596042Y-15521403D01*
X11596042Y-15349975D01*
X11776995Y-15540451D02*
X11757947Y-15549975D01*
X11719852Y-15549975D01*
X11700804Y-15540451D01*
X11691280Y-15521403D01*
X11691280Y-15445213D01*
X11700804Y-15426165D01*
X11719852Y-15416641D01*
X11757947Y-15416641D01*
X11776995Y-15426165D01*
X11786518Y-15445213D01*
X11786518Y-15464261D01*
X11691280Y-15483308D01*
X11862709Y-15540451D02*
X11881756Y-15549975D01*
X11919852Y-15549975D01*
X11938899Y-15540451D01*
X11948423Y-15521403D01*
X11948423Y-15511880D01*
X11938899Y-15492832D01*
X11919852Y-15483308D01*
X11891280Y-15483308D01*
X11872233Y-15473784D01*
X11862709Y-15454737D01*
X11862709Y-15445213D01*
X11872233Y-15426165D01*
X11891280Y-15416641D01*
X11919852Y-15416641D01*
X11938899Y-15426165D01*
X12015090Y-15626165D02*
X12024614Y-15616641D01*
X12043661Y-15588070D01*
X12053185Y-15569022D01*
X12062709Y-15540451D01*
X12072233Y-15492832D01*
X12072233Y-15454737D01*
X12062709Y-15407118D01*
X12053185Y-15378546D01*
X12043661Y-15359499D01*
X12024614Y-15330927D01*
X12015090Y-15321403D01*
X12376995Y-15626165D02*
X12367471Y-15616641D01*
X12348423Y-15588070D01*
X12338899Y-15569022D01*
X12329375Y-15540451D01*
X12319852Y-15492832D01*
X12319852Y-15454737D01*
X12329375Y-15407118D01*
X12338899Y-15378546D01*
X12348423Y-15359499D01*
X12367471Y-15330927D01*
X12376995Y-15321403D01*
X12453185Y-15416641D02*
X12453185Y-15549975D01*
X12453185Y-15435689D02*
X12462709Y-15426165D01*
X12481756Y-15416641D01*
X12510328Y-15416641D01*
X12529375Y-15426165D01*
X12538899Y-15445213D01*
X12538899Y-15549975D01*
X12662709Y-15549975D02*
X12643661Y-15540451D01*
X12634137Y-15530927D01*
X12624614Y-15511880D01*
X12624614Y-15454737D01*
X12634137Y-15435689D01*
X12643661Y-15426165D01*
X12662709Y-15416641D01*
X12691280Y-15416641D01*
X12710328Y-15426165D01*
X12719852Y-15435689D01*
X12729375Y-15454737D01*
X12729375Y-15511880D01*
X12719852Y-15530927D01*
X12710328Y-15540451D01*
X12691280Y-15549975D01*
X12662709Y-15549975D01*
X12786518Y-15416641D02*
X12862709Y-15416641D01*
X12815090Y-15349975D02*
X12815090Y-15521403D01*
X12824614Y-15540451D01*
X12843661Y-15549975D01*
X12862709Y-15549975D01*
X13081756Y-15416641D02*
X13081756Y-15616641D01*
X13081756Y-15426165D02*
X13100804Y-15416641D01*
X13138899Y-15416641D01*
X13157947Y-15426165D01*
X13167471Y-15435689D01*
X13176995Y-15454737D01*
X13176995Y-15511880D01*
X13167471Y-15530927D01*
X13157947Y-15540451D01*
X13138899Y-15549975D01*
X13100804Y-15549975D01*
X13081756Y-15540451D01*
X13291280Y-15549975D02*
X13272233Y-15540451D01*
X13262709Y-15521403D01*
X13262709Y-15349975D01*
X13453185Y-15549975D02*
X13453185Y-15445213D01*
X13443661Y-15426165D01*
X13424614Y-15416641D01*
X13386518Y-15416641D01*
X13367471Y-15426165D01*
X13453185Y-15540451D02*
X13434137Y-15549975D01*
X13386518Y-15549975D01*
X13367471Y-15540451D01*
X13357947Y-15521403D01*
X13357947Y-15502356D01*
X13367471Y-15483308D01*
X13386518Y-15473784D01*
X13434137Y-15473784D01*
X13453185Y-15464261D01*
X13519852Y-15416641D02*
X13596042Y-15416641D01*
X13548423Y-15349975D02*
X13548423Y-15521403D01*
X13557947Y-15540451D01*
X13576995Y-15549975D01*
X13596042Y-15549975D01*
X13738899Y-15540451D02*
X13719852Y-15549975D01*
X13681756Y-15549975D01*
X13662709Y-15540451D01*
X13653185Y-15521403D01*
X13653185Y-15445213D01*
X13662709Y-15426165D01*
X13681756Y-15416641D01*
X13719852Y-15416641D01*
X13738899Y-15426165D01*
X13748423Y-15445213D01*
X13748423Y-15464261D01*
X13653185Y-15483308D01*
X13919852Y-15549975D02*
X13919852Y-15349975D01*
X13919852Y-15540451D02*
X13900804Y-15549975D01*
X13862709Y-15549975D01*
X13843661Y-15540451D01*
X13834137Y-15530927D01*
X13824614Y-15511880D01*
X13824614Y-15454737D01*
X13834137Y-15435689D01*
X13843661Y-15426165D01*
X13862709Y-15416641D01*
X13900804Y-15416641D01*
X13919852Y-15426165D01*
X13996042Y-15626165D02*
X14005566Y-15616641D01*
X14024614Y-15588070D01*
X14034137Y-15569022D01*
X14043661Y-15540451D01*
X14053185Y-15492832D01*
X14053185Y-15454737D01*
X14043661Y-15407118D01*
X14034137Y-15378546D01*
X14024614Y-15359499D01*
X14005566Y-15330927D01*
X13996042Y-15321403D01*
M02*
