%FSLAX45Y45*%
G04 Gerber Fmt 4.5, Leading zero omitted, Abs format (unit mm)*
G04 Created by KiCad (PCBNEW (6.0.5)) date 2023-08-18 19:43:42*
%MOMM*%
%LPD*%
G01*
G04 APERTURE LIST*
%TA.AperFunction,Profile*%
%ADD10C,0.100000*%
%TD*%
%TA.AperFunction,Profile*%
%ADD11C,0.050000*%
%TD*%
%ADD12C,0.200000*%
%ADD13C,0.040000*%
%ADD14C,0.075000*%
%ADD15C,0.080000*%
%ADD16C,0.090000*%
%ADD17C,0.095000*%
%ADD18C,0.100000*%
%ADD19C,0.102000*%
%ADD20C,0.125000*%
%ADD21C,0.180000*%
G04 APERTURE END LIST*
D10*
X13008685Y-9479999D02*
G75*
G03*
X13008685Y-9479999I-175000J0D01*
G01*
X7674685Y-13924999D02*
G75*
G03*
X7674685Y-13924999I-175000J0D01*
G01*
X9452685Y-8082999D02*
G75*
G03*
X9452685Y-8082999I-175000J0D01*
G01*
X13135685Y-13774999D02*
G75*
G03*
X13135685Y-13774999I-175000J0D01*
G01*
D11*
X7245685Y-7782999D02*
X13745685Y-7782999D01*
X13745685Y-7782999D02*
X13745685Y-14282999D01*
X13745685Y-14282999D02*
X7245685Y-14282999D01*
X7245685Y-14282999D02*
X7245685Y-7782999D01*
D12*
D13*
X7428885Y-9690999D02*
X7468885Y-9730999D01*
X7468885Y-9690999D02*
X7428885Y-9730999D01*
X7479685Y-13526399D02*
X7519685Y-13566399D01*
X7519685Y-13526399D02*
X7479685Y-13566399D01*
X7784485Y-11773799D02*
X7824485Y-11813799D01*
X7824485Y-11773799D02*
X7784485Y-11813799D01*
X7911485Y-11773799D02*
X7951485Y-11813799D01*
X7951485Y-11773799D02*
X7911485Y-11813799D01*
X7962285Y-9386199D02*
X8002285Y-9426199D01*
X8002285Y-9386199D02*
X7962285Y-9426199D01*
X8114685Y-9259199D02*
X8154685Y-9299199D01*
X8154685Y-9259199D02*
X8114685Y-9299199D01*
X8165485Y-9817999D02*
X8205485Y-9857999D01*
X8205485Y-9817999D02*
X8165485Y-9857999D01*
X8495685Y-13500999D02*
X8535685Y-13540999D01*
X8535685Y-13500999D02*
X8495685Y-13540999D01*
X9156085Y-13678799D02*
X9196085Y-13718799D01*
X9196085Y-13678799D02*
X9156085Y-13718799D01*
X9359285Y-9919599D02*
X9399285Y-9959599D01*
X9399285Y-9919599D02*
X9359285Y-9959599D01*
X9384685Y-11341999D02*
X9424685Y-11381999D01*
X9424685Y-11341999D02*
X9384685Y-11381999D01*
X9384685Y-13412099D02*
X9424685Y-13452099D01*
X9424685Y-13412099D02*
X9384685Y-13452099D01*
X9384685Y-13512049D02*
X9424685Y-13552049D01*
X9424685Y-13512049D02*
X9384685Y-13552049D01*
X9460885Y-13907399D02*
X9500885Y-13947399D01*
X9500885Y-13907399D02*
X9460885Y-13947399D01*
X9486285Y-14135999D02*
X9526285Y-14175999D01*
X9526285Y-14135999D02*
X9486285Y-14175999D01*
X9613285Y-9792599D02*
X9653285Y-9832599D01*
X9653285Y-9792599D02*
X9613285Y-9832599D01*
X9613285Y-13907399D02*
X9653285Y-13947399D01*
X9653285Y-13907399D02*
X9613285Y-13947399D01*
X9689485Y-13577199D02*
X9729485Y-13617199D01*
X9729485Y-13577199D02*
X9689485Y-13617199D01*
X9689485Y-13704199D02*
X9729485Y-13744199D01*
X9729485Y-13704199D02*
X9689485Y-13744199D01*
X9765685Y-11595999D02*
X9805685Y-11635999D01*
X9805685Y-11595999D02*
X9765685Y-11635999D01*
X9765685Y-12891399D02*
X9805685Y-12931399D01*
X9805685Y-12891399D02*
X9765685Y-12931399D01*
X9841885Y-14021699D02*
X9881885Y-14061699D01*
X9881885Y-14021699D02*
X9841885Y-14061699D01*
X9892685Y-12230999D02*
X9932685Y-12270999D01*
X9932685Y-12230999D02*
X9892685Y-12270999D01*
X9918085Y-9792599D02*
X9958085Y-9832599D01*
X9958085Y-9792599D02*
X9918085Y-9832599D01*
X9968885Y-14086209D02*
X10008885Y-14126209D01*
X10008885Y-14086209D02*
X9968885Y-14126209D01*
X10095885Y-11341999D02*
X10135885Y-11381999D01*
X10135885Y-11341999D02*
X10095885Y-11381999D01*
X10146685Y-14008999D02*
X10186685Y-14048999D01*
X10186685Y-14008999D02*
X10146685Y-14048999D01*
X10222885Y-9894199D02*
X10262885Y-9934199D01*
X10262885Y-9894199D02*
X10222885Y-9934199D01*
X10273685Y-12230999D02*
X10313685Y-12270999D01*
X10313685Y-12230999D02*
X10273685Y-12270999D01*
X10299085Y-12891399D02*
X10339085Y-12931399D01*
X10339085Y-12891399D02*
X10299085Y-12931399D01*
X10400685Y-13754999D02*
X10440685Y-13794999D01*
X10440685Y-13754999D02*
X10400685Y-13794999D01*
X10426085Y-9182999D02*
X10466085Y-9222999D01*
X10466085Y-9182999D02*
X10426085Y-9222999D01*
X10426085Y-12801449D02*
X10466085Y-12841449D01*
X10466085Y-12801449D02*
X10426085Y-12841449D01*
X10527685Y-13119999D02*
X10567685Y-13159999D01*
X10567685Y-13119999D02*
X10527685Y-13159999D01*
X10629285Y-10554599D02*
X10669285Y-10594599D01*
X10669285Y-10554599D02*
X10629285Y-10594599D01*
X10705485Y-13399399D02*
X10745485Y-13439399D01*
X10745485Y-13399399D02*
X10705485Y-13439399D01*
X10756285Y-10541899D02*
X10796285Y-10581899D01*
X10796285Y-10541899D02*
X10756285Y-10581899D01*
X10781685Y-9944999D02*
X10821685Y-9984999D01*
X10821685Y-9944999D02*
X10781685Y-9984999D01*
X10984885Y-9005199D02*
X11024885Y-9045199D01*
X11024885Y-9005199D02*
X10984885Y-9045199D01*
X11035685Y-11214999D02*
X11075685Y-11254999D01*
X11075685Y-11214999D02*
X11035685Y-11254999D01*
X11035685Y-11722999D02*
X11075685Y-11762999D01*
X11075685Y-11722999D02*
X11035685Y-11762999D01*
X11137285Y-9259199D02*
X11177285Y-9299199D01*
X11177285Y-9259199D02*
X11137285Y-9299199D01*
X11162685Y-13881999D02*
X11202685Y-13921999D01*
X11202685Y-13881999D02*
X11162685Y-13921999D01*
X11264285Y-9081399D02*
X11304285Y-9121399D01*
X11304285Y-9081399D02*
X11264285Y-9121399D01*
X11264285Y-9271899D02*
X11304285Y-9311899D01*
X11304285Y-9271899D02*
X11264285Y-9311899D01*
X11264285Y-10249799D02*
X11304285Y-10289799D01*
X11304285Y-10249799D02*
X11264285Y-10289799D01*
X11289685Y-11722999D02*
X11329685Y-11762999D01*
X11329685Y-11722999D02*
X11289685Y-11762999D01*
X11505585Y-11913334D02*
X11545585Y-11953334D01*
X11545585Y-11913334D02*
X11505585Y-11953334D01*
X11518285Y-11697599D02*
X11558285Y-11737599D01*
X11558285Y-11697599D02*
X11518285Y-11737599D01*
X11543685Y-9081399D02*
X11583685Y-9121399D01*
X11583685Y-9081399D02*
X11543685Y-9121399D01*
X11543685Y-9271899D02*
X11583685Y-9311899D01*
X11583685Y-9271899D02*
X11543685Y-9311899D01*
X11670685Y-11265799D02*
X11710685Y-11305799D01*
X11710685Y-11265799D02*
X11670685Y-11305799D01*
X11670685Y-12256399D02*
X11710685Y-12296399D01*
X11710685Y-12256399D02*
X11670685Y-12296399D01*
X11696085Y-12611999D02*
X11736085Y-12651999D01*
X11736085Y-12611999D02*
X11696085Y-12651999D01*
X12178685Y-11214999D02*
X12218685Y-11254999D01*
X12218685Y-11214999D02*
X12178685Y-11254999D01*
X12178685Y-11722999D02*
X12218685Y-11762999D01*
X12218685Y-11722999D02*
X12178685Y-11762999D01*
X12623185Y-13310499D02*
X12663185Y-13350499D01*
X12663185Y-13310499D02*
X12623185Y-13350499D01*
X13448685Y-10960999D02*
X13488685Y-11000999D01*
X13488685Y-10960999D02*
X13448685Y-11000999D01*
X13448685Y-11468999D02*
X13488685Y-11508999D01*
X13488685Y-11468999D02*
X13448685Y-11508999D01*
X13448685Y-11976999D02*
X13488685Y-12016999D01*
X13488685Y-11976999D02*
X13448685Y-12016999D01*
X13448685Y-12484999D02*
X13488685Y-12524999D01*
X13488685Y-12484999D02*
X13448685Y-12524999D01*
X13448685Y-12992999D02*
X13488685Y-13032999D01*
X13488685Y-12992999D02*
X13448685Y-13032999D01*
X13448685Y-13500999D02*
X13488685Y-13540999D01*
X13488685Y-13500999D02*
X13448685Y-13540999D01*
X13448685Y-14008999D02*
X13488685Y-14048999D01*
X13488685Y-14008999D02*
X13448685Y-14048999D01*
D14*
X9365985Y-10904799D02*
G75*
G03*
X9365985Y-10904799I-37500J0D01*
G01*
X9619985Y-10650799D02*
G75*
G03*
X9619985Y-10650799I-37500J0D01*
G01*
X9873985Y-10904799D02*
G75*
G03*
X9873985Y-10904799I-37500J0D01*
G01*
X11567085Y-13461334D02*
G75*
G03*
X11567085Y-13461334I-37500J0D01*
G01*
X11817085Y-13711334D02*
G75*
G03*
X11817085Y-13711334I-37500J0D01*
G01*
X12072085Y-13461334D02*
G75*
G03*
X12072085Y-13461334I-37500J0D01*
G01*
D15*
X9329485Y-9469299D02*
X9329485Y-9549299D01*
X9289485Y-9509299D02*
X9369485Y-9509299D01*
X9329485Y-10231299D02*
X9329485Y-10311299D01*
X9289485Y-10271299D02*
X9369485Y-10271299D01*
X9583485Y-9469299D02*
X9583485Y-9549299D01*
X9543485Y-9509299D02*
X9623485Y-9509299D01*
X9583485Y-10231299D02*
X9583485Y-10311299D01*
X9543485Y-10271299D02*
X9623485Y-10271299D01*
X9837485Y-9469299D02*
X9837485Y-9549299D01*
X9797485Y-9509299D02*
X9877485Y-9509299D01*
X9837485Y-10231299D02*
X9837485Y-10311299D01*
X9797485Y-10271299D02*
X9877485Y-10271299D01*
X10091485Y-9469299D02*
X10091485Y-9549299D01*
X10051485Y-9509299D02*
X10131485Y-9509299D01*
X10091485Y-10231299D02*
X10091485Y-10311299D01*
X10051485Y-10271299D02*
X10131485Y-10271299D01*
X12478085Y-9930764D02*
X12478085Y-10010764D01*
X12438085Y-9970764D02*
X12518085Y-9970764D01*
X12478085Y-10280764D02*
X12478085Y-10360764D01*
X12438085Y-10320764D02*
X12518085Y-10320764D01*
D16*
X7455305Y-9133219D02*
X7455305Y-9069579D01*
X7391665Y-9069579D01*
X7391665Y-9133219D01*
X7455305Y-9133219D01*
X7531505Y-12562719D02*
X7531505Y-12499079D01*
X7467865Y-12499079D01*
X7467865Y-12562719D01*
X7531505Y-12562719D01*
X7531505Y-12816719D02*
X7531505Y-12753079D01*
X7467865Y-12753079D01*
X7467865Y-12816719D01*
X7531505Y-12816719D01*
X7709305Y-9133219D02*
X7709305Y-9069579D01*
X7645665Y-9069579D01*
X7645665Y-9133219D01*
X7709305Y-9133219D01*
D17*
X10172685Y-8360099D02*
X10220185Y-8312599D01*
X10172685Y-8265099D01*
X10125185Y-8312599D01*
X10172685Y-8360099D01*
X10422685Y-8360099D02*
X10470185Y-8312599D01*
X10422685Y-8265099D01*
X10375185Y-8312599D01*
X10422685Y-8360099D01*
X10672685Y-8360099D02*
X10720185Y-8312599D01*
X10672685Y-8265099D01*
X10625185Y-8312599D01*
X10672685Y-8360099D01*
X10922685Y-8360099D02*
X10970185Y-8312599D01*
X10922685Y-8265099D01*
X10875185Y-8312599D01*
X10922685Y-8360099D01*
X13311685Y-8992499D02*
X13359185Y-8944999D01*
X13311685Y-8897499D01*
X13264185Y-8944999D01*
X13311685Y-8992499D01*
X13311685Y-9246499D02*
X13359185Y-9198999D01*
X13311685Y-9151499D01*
X13264185Y-9198999D01*
X13311685Y-9246499D01*
X13311685Y-9500499D02*
X13359185Y-9452999D01*
X13311685Y-9405499D01*
X13264185Y-9452999D01*
X13311685Y-9500499D01*
D18*
X10628685Y-10850199D02*
X10728685Y-10950199D01*
X10728685Y-10850199D02*
X10628685Y-10950199D01*
X10728685Y-10900199D02*
G75*
G03*
X10728685Y-10900199I-50000J0D01*
G01*
X10878685Y-10850199D02*
X10978685Y-10950199D01*
X10978685Y-10850199D02*
X10878685Y-10950199D01*
X10978685Y-10900199D02*
G75*
G03*
X10978685Y-10900199I-50000J0D01*
G01*
D19*
X13320685Y-9913999D02*
X13422685Y-10015999D01*
X13422685Y-9913999D02*
X13320685Y-10015999D01*
X13371685Y-9913999D02*
X13371685Y-10015999D01*
X13320685Y-9964999D02*
X13422685Y-9964999D01*
X13320685Y-10167999D02*
X13422685Y-10269999D01*
X13422685Y-10167999D02*
X13320685Y-10269999D01*
X13371685Y-10167999D02*
X13371685Y-10269999D01*
X13320685Y-10218999D02*
X13422685Y-10218999D01*
X13320685Y-10421999D02*
X13422685Y-10523999D01*
X13422685Y-10421999D02*
X13320685Y-10523999D01*
X13371685Y-10421999D02*
X13371685Y-10523999D01*
X13320685Y-10472999D02*
X13422685Y-10472999D01*
X13320685Y-10675999D02*
X13422685Y-10777999D01*
X13422685Y-10675999D02*
X13320685Y-10777999D01*
X13371685Y-10675999D02*
X13371685Y-10777999D01*
X13320685Y-10726999D02*
X13422685Y-10726999D01*
D20*
X7978585Y-13921849D02*
X8103585Y-14046849D01*
X8103585Y-13921849D02*
X7978585Y-14046849D01*
X8085280Y-14028543D02*
X8085280Y-13940154D01*
X7996890Y-13940154D01*
X7996890Y-14028543D01*
X8085280Y-14028543D01*
X8478585Y-13921849D02*
X8603585Y-14046849D01*
X8603585Y-13921849D02*
X8478585Y-14046849D01*
X8585280Y-14028543D02*
X8585280Y-13940154D01*
X8496891Y-13940154D01*
X8496891Y-14028543D01*
X8585280Y-14028543D01*
X8978585Y-13921849D02*
X9103585Y-14046849D01*
X9103585Y-13921849D02*
X8978585Y-14046849D01*
X9085280Y-14028543D02*
X9085280Y-13940154D01*
X8996891Y-13940154D01*
X8996891Y-14028543D01*
X9085280Y-14028543D01*
D21*
X8118185Y-8223999D02*
X8298185Y-8403999D01*
X8298185Y-8223999D02*
X8118185Y-8403999D01*
X8208185Y-8403999D02*
X8298185Y-8313999D01*
X8208185Y-8223999D01*
X8118185Y-8313999D01*
X8208185Y-8403999D01*
X8668185Y-8223999D02*
X8848185Y-8403999D01*
X8848185Y-8223999D02*
X8668185Y-8403999D01*
X8758185Y-8403999D02*
X8848185Y-8313999D01*
X8758185Y-8223999D01*
X8668185Y-8313999D01*
X8758185Y-8403999D01*
X12105685Y-8192999D02*
X12285685Y-8372999D01*
X12285685Y-8192999D02*
X12105685Y-8372999D01*
X12195685Y-8372999D02*
X12285685Y-8282999D01*
X12195685Y-8192999D01*
X12105685Y-8282999D01*
X12195685Y-8372999D01*
X12655685Y-8192999D02*
X12835685Y-8372999D01*
X12835685Y-8192999D02*
X12655685Y-8372999D01*
X12745685Y-8372999D02*
X12835685Y-8282999D01*
X12745685Y-8192999D01*
X12655685Y-8282999D01*
X12745685Y-8372999D01*
D12*
X7500804Y-14595975D02*
X7500804Y-14395975D01*
X7548423Y-14395975D01*
X7576995Y-14405499D01*
X7596042Y-14424546D01*
X7605566Y-14443594D01*
X7615090Y-14481689D01*
X7615090Y-14510261D01*
X7605566Y-14548356D01*
X7596042Y-14567403D01*
X7576995Y-14586451D01*
X7548423Y-14595975D01*
X7500804Y-14595975D01*
X7700804Y-14595975D02*
X7700804Y-14462641D01*
X7700804Y-14500737D02*
X7710328Y-14481689D01*
X7719852Y-14472165D01*
X7738899Y-14462641D01*
X7757947Y-14462641D01*
X7824614Y-14595975D02*
X7824614Y-14462641D01*
X7824614Y-14395975D02*
X7815090Y-14405499D01*
X7824614Y-14415022D01*
X7834137Y-14405499D01*
X7824614Y-14395975D01*
X7824614Y-14415022D01*
X7948423Y-14595975D02*
X7929375Y-14586451D01*
X7919852Y-14567403D01*
X7919852Y-14395975D01*
X8053185Y-14595975D02*
X8034137Y-14586451D01*
X8024614Y-14567403D01*
X8024614Y-14395975D01*
X8281756Y-14595975D02*
X8281756Y-14395975D01*
X8348423Y-14538832D01*
X8415090Y-14395975D01*
X8415090Y-14595975D01*
X8596042Y-14595975D02*
X8596042Y-14491213D01*
X8586518Y-14472165D01*
X8567471Y-14462641D01*
X8529376Y-14462641D01*
X8510328Y-14472165D01*
X8596042Y-14586451D02*
X8576995Y-14595975D01*
X8529376Y-14595975D01*
X8510328Y-14586451D01*
X8500804Y-14567403D01*
X8500804Y-14548356D01*
X8510328Y-14529308D01*
X8529376Y-14519784D01*
X8576995Y-14519784D01*
X8596042Y-14510261D01*
X8691280Y-14462641D02*
X8691280Y-14662641D01*
X8691280Y-14472165D02*
X8710328Y-14462641D01*
X8748423Y-14462641D01*
X8767471Y-14472165D01*
X8776995Y-14481689D01*
X8786518Y-14500737D01*
X8786518Y-14557880D01*
X8776995Y-14576927D01*
X8767471Y-14586451D01*
X8748423Y-14595975D01*
X8710328Y-14595975D01*
X8691280Y-14586451D01*
X8872233Y-14576927D02*
X8881757Y-14586451D01*
X8872233Y-14595975D01*
X8862709Y-14586451D01*
X8872233Y-14576927D01*
X8872233Y-14595975D01*
X8872233Y-14472165D02*
X8881757Y-14481689D01*
X8872233Y-14491213D01*
X8862709Y-14481689D01*
X8872233Y-14472165D01*
X8872233Y-14491213D01*
D13*
X7203185Y-14905499D02*
X7243185Y-14945499D01*
X7243185Y-14905499D02*
X7203185Y-14945499D01*
D12*
X7538899Y-14815975D02*
X7557947Y-14815975D01*
X7576995Y-14825499D01*
X7586518Y-14835022D01*
X7596042Y-14854070D01*
X7605566Y-14892165D01*
X7605566Y-14939784D01*
X7596042Y-14977880D01*
X7586518Y-14996927D01*
X7576995Y-15006451D01*
X7557947Y-15015975D01*
X7538899Y-15015975D01*
X7519852Y-15006451D01*
X7510328Y-14996927D01*
X7500804Y-14977880D01*
X7491280Y-14939784D01*
X7491280Y-14892165D01*
X7500804Y-14854070D01*
X7510328Y-14835022D01*
X7519852Y-14825499D01*
X7538899Y-14815975D01*
X7691280Y-14996927D02*
X7700804Y-15006451D01*
X7691280Y-15015975D01*
X7681756Y-15006451D01*
X7691280Y-14996927D01*
X7691280Y-15015975D01*
X7872233Y-14882641D02*
X7872233Y-15015975D01*
X7824614Y-14806451D02*
X7776995Y-14949308D01*
X7900804Y-14949308D01*
X8015090Y-14815975D02*
X8034137Y-14815975D01*
X8053185Y-14825499D01*
X8062709Y-14835022D01*
X8072233Y-14854070D01*
X8081756Y-14892165D01*
X8081756Y-14939784D01*
X8072233Y-14977880D01*
X8062709Y-14996927D01*
X8053185Y-15006451D01*
X8034137Y-15015975D01*
X8015090Y-15015975D01*
X7996042Y-15006451D01*
X7986518Y-14996927D01*
X7976995Y-14977880D01*
X7967471Y-14939784D01*
X7967471Y-14892165D01*
X7976995Y-14854070D01*
X7986518Y-14835022D01*
X7996042Y-14825499D01*
X8015090Y-14815975D01*
X8205566Y-14815975D02*
X8224614Y-14815975D01*
X8243661Y-14825499D01*
X8253185Y-14835022D01*
X8262709Y-14854070D01*
X8272233Y-14892165D01*
X8272233Y-14939784D01*
X8262709Y-14977880D01*
X8253185Y-14996927D01*
X8243661Y-15006451D01*
X8224614Y-15015975D01*
X8205566Y-15015975D01*
X8186518Y-15006451D01*
X8176995Y-14996927D01*
X8167471Y-14977880D01*
X8157947Y-14939784D01*
X8157947Y-14892165D01*
X8167471Y-14854070D01*
X8176995Y-14835022D01*
X8186518Y-14825499D01*
X8205566Y-14815975D01*
X8357947Y-15015975D02*
X8357947Y-14882641D01*
X8357947Y-14901689D02*
X8367471Y-14892165D01*
X8386518Y-14882641D01*
X8415090Y-14882641D01*
X8434137Y-14892165D01*
X8443661Y-14911213D01*
X8443661Y-15015975D01*
X8443661Y-14911213D02*
X8453185Y-14892165D01*
X8472233Y-14882641D01*
X8500804Y-14882641D01*
X8519852Y-14892165D01*
X8529376Y-14911213D01*
X8529376Y-15015975D01*
X8624614Y-15015975D02*
X8624614Y-14882641D01*
X8624614Y-14901689D02*
X8634137Y-14892165D01*
X8653185Y-14882641D01*
X8681757Y-14882641D01*
X8700804Y-14892165D01*
X8710328Y-14911213D01*
X8710328Y-15015975D01*
X8710328Y-14911213D02*
X8719852Y-14892165D01*
X8738899Y-14882641D01*
X8767471Y-14882641D01*
X8786518Y-14892165D01*
X8796042Y-14911213D01*
X8796042Y-15015975D01*
X9186518Y-14806451D02*
X9015090Y-15063594D01*
X9443661Y-14815975D02*
X9462709Y-14815975D01*
X9481757Y-14825499D01*
X9491280Y-14835022D01*
X9500804Y-14854070D01*
X9510328Y-14892165D01*
X9510328Y-14939784D01*
X9500804Y-14977880D01*
X9491280Y-14996927D01*
X9481757Y-15006451D01*
X9462709Y-15015975D01*
X9443661Y-15015975D01*
X9424614Y-15006451D01*
X9415090Y-14996927D01*
X9405566Y-14977880D01*
X9396042Y-14939784D01*
X9396042Y-14892165D01*
X9405566Y-14854070D01*
X9415090Y-14835022D01*
X9424614Y-14825499D01*
X9443661Y-14815975D01*
X9596042Y-14996927D02*
X9605566Y-15006451D01*
X9596042Y-15015975D01*
X9586518Y-15006451D01*
X9596042Y-14996927D01*
X9596042Y-15015975D01*
X9729376Y-14815975D02*
X9748423Y-14815975D01*
X9767471Y-14825499D01*
X9776995Y-14835022D01*
X9786518Y-14854070D01*
X9796042Y-14892165D01*
X9796042Y-14939784D01*
X9786518Y-14977880D01*
X9776995Y-14996927D01*
X9767471Y-15006451D01*
X9748423Y-15015975D01*
X9729376Y-15015975D01*
X9710328Y-15006451D01*
X9700804Y-14996927D01*
X9691280Y-14977880D01*
X9681757Y-14939784D01*
X9681757Y-14892165D01*
X9691280Y-14854070D01*
X9700804Y-14835022D01*
X9710328Y-14825499D01*
X9729376Y-14815975D01*
X9986518Y-15015975D02*
X9872233Y-15015975D01*
X9929376Y-15015975D02*
X9929376Y-14815975D01*
X9910328Y-14844546D01*
X9891280Y-14863594D01*
X9872233Y-14873118D01*
X10167471Y-14815975D02*
X10072233Y-14815975D01*
X10062709Y-14911213D01*
X10072233Y-14901689D01*
X10091280Y-14892165D01*
X10138899Y-14892165D01*
X10157947Y-14901689D01*
X10167471Y-14911213D01*
X10176995Y-14930261D01*
X10176995Y-14977880D01*
X10167471Y-14996927D01*
X10157947Y-15006451D01*
X10138899Y-15015975D01*
X10091280Y-15015975D01*
X10072233Y-15006451D01*
X10062709Y-14996927D01*
X10243661Y-14815975D02*
X10376995Y-14815975D01*
X10291280Y-15015975D01*
X10443661Y-14815975D02*
X10443661Y-14854070D01*
X10519852Y-14815975D02*
X10519852Y-14854070D01*
X10815090Y-15092165D02*
X10805566Y-15082641D01*
X10786518Y-15054070D01*
X10776995Y-15035022D01*
X10767471Y-15006451D01*
X10757947Y-14958832D01*
X10757947Y-14920737D01*
X10767471Y-14873118D01*
X10776995Y-14844546D01*
X10786518Y-14825499D01*
X10805566Y-14796927D01*
X10815090Y-14787403D01*
X10976995Y-14815975D02*
X10938899Y-14815975D01*
X10919852Y-14825499D01*
X10910328Y-14835022D01*
X10891280Y-14863594D01*
X10881757Y-14901689D01*
X10881757Y-14977880D01*
X10891280Y-14996927D01*
X10900804Y-15006451D01*
X10919852Y-15015975D01*
X10957947Y-15015975D01*
X10976995Y-15006451D01*
X10986518Y-14996927D01*
X10996042Y-14977880D01*
X10996042Y-14930261D01*
X10986518Y-14911213D01*
X10976995Y-14901689D01*
X10957947Y-14892165D01*
X10919852Y-14892165D01*
X10900804Y-14901689D01*
X10891280Y-14911213D01*
X10881757Y-14930261D01*
X11167471Y-14882641D02*
X11167471Y-15015975D01*
X11119852Y-14806451D02*
X11072233Y-14949308D01*
X11196042Y-14949308D01*
X11424614Y-15015975D02*
X11424614Y-14815975D01*
X11510328Y-15015975D02*
X11510328Y-14911213D01*
X11500804Y-14892165D01*
X11481756Y-14882641D01*
X11453185Y-14882641D01*
X11434137Y-14892165D01*
X11424614Y-14901689D01*
X11634137Y-15015975D02*
X11615090Y-15006451D01*
X11605566Y-14996927D01*
X11596042Y-14977880D01*
X11596042Y-14920737D01*
X11605566Y-14901689D01*
X11615090Y-14892165D01*
X11634137Y-14882641D01*
X11662709Y-14882641D01*
X11681756Y-14892165D01*
X11691280Y-14901689D01*
X11700804Y-14920737D01*
X11700804Y-14977880D01*
X11691280Y-14996927D01*
X11681756Y-15006451D01*
X11662709Y-15015975D01*
X11634137Y-15015975D01*
X11815090Y-15015975D02*
X11796042Y-15006451D01*
X11786518Y-14987403D01*
X11786518Y-14815975D01*
X11967471Y-15006451D02*
X11948423Y-15015975D01*
X11910328Y-15015975D01*
X11891280Y-15006451D01*
X11881756Y-14987403D01*
X11881756Y-14911213D01*
X11891280Y-14892165D01*
X11910328Y-14882641D01*
X11948423Y-14882641D01*
X11967471Y-14892165D01*
X11976995Y-14911213D01*
X11976995Y-14930261D01*
X11881756Y-14949308D01*
X12053185Y-15006451D02*
X12072233Y-15015975D01*
X12110328Y-15015975D01*
X12129375Y-15006451D01*
X12138899Y-14987403D01*
X12138899Y-14977880D01*
X12129375Y-14958832D01*
X12110328Y-14949308D01*
X12081756Y-14949308D01*
X12062709Y-14939784D01*
X12053185Y-14920737D01*
X12053185Y-14911213D01*
X12062709Y-14892165D01*
X12081756Y-14882641D01*
X12110328Y-14882641D01*
X12129375Y-14892165D01*
X12205566Y-15092165D02*
X12215090Y-15082641D01*
X12234137Y-15054070D01*
X12243661Y-15035022D01*
X12253185Y-15006451D01*
X12262709Y-14958832D01*
X12262709Y-14920737D01*
X12253185Y-14873118D01*
X12243661Y-14844546D01*
X12234137Y-14825499D01*
X12215090Y-14796927D01*
X12205566Y-14787403D01*
D14*
X7243185Y-15189499D02*
G75*
G03*
X7243185Y-15189499I-37500J0D01*
G01*
D12*
X7538899Y-15079975D02*
X7557947Y-15079975D01*
X7576995Y-15089499D01*
X7586518Y-15099022D01*
X7596042Y-15118070D01*
X7605566Y-15156165D01*
X7605566Y-15203784D01*
X7596042Y-15241880D01*
X7586518Y-15260927D01*
X7576995Y-15270451D01*
X7557947Y-15279975D01*
X7538899Y-15279975D01*
X7519852Y-15270451D01*
X7510328Y-15260927D01*
X7500804Y-15241880D01*
X7491280Y-15203784D01*
X7491280Y-15156165D01*
X7500804Y-15118070D01*
X7510328Y-15099022D01*
X7519852Y-15089499D01*
X7538899Y-15079975D01*
X7691280Y-15260927D02*
X7700804Y-15270451D01*
X7691280Y-15279975D01*
X7681756Y-15270451D01*
X7691280Y-15260927D01*
X7691280Y-15279975D01*
X7767471Y-15079975D02*
X7900804Y-15079975D01*
X7815090Y-15279975D01*
X8072233Y-15079975D02*
X7976995Y-15079975D01*
X7967471Y-15175213D01*
X7976995Y-15165689D01*
X7996042Y-15156165D01*
X8043661Y-15156165D01*
X8062709Y-15165689D01*
X8072233Y-15175213D01*
X8081756Y-15194261D01*
X8081756Y-15241880D01*
X8072233Y-15260927D01*
X8062709Y-15270451D01*
X8043661Y-15279975D01*
X7996042Y-15279975D01*
X7976995Y-15270451D01*
X7967471Y-15260927D01*
X8205566Y-15079975D02*
X8224614Y-15079975D01*
X8243661Y-15089499D01*
X8253185Y-15099022D01*
X8262709Y-15118070D01*
X8272233Y-15156165D01*
X8272233Y-15203784D01*
X8262709Y-15241880D01*
X8253185Y-15260927D01*
X8243661Y-15270451D01*
X8224614Y-15279975D01*
X8205566Y-15279975D01*
X8186518Y-15270451D01*
X8176995Y-15260927D01*
X8167471Y-15241880D01*
X8157947Y-15203784D01*
X8157947Y-15156165D01*
X8167471Y-15118070D01*
X8176995Y-15099022D01*
X8186518Y-15089499D01*
X8205566Y-15079975D01*
X8357947Y-15279975D02*
X8357947Y-15146641D01*
X8357947Y-15165689D02*
X8367471Y-15156165D01*
X8386518Y-15146641D01*
X8415090Y-15146641D01*
X8434137Y-15156165D01*
X8443661Y-15175213D01*
X8443661Y-15279975D01*
X8443661Y-15175213D02*
X8453185Y-15156165D01*
X8472233Y-15146641D01*
X8500804Y-15146641D01*
X8519852Y-15156165D01*
X8529376Y-15175213D01*
X8529376Y-15279975D01*
X8624614Y-15279975D02*
X8624614Y-15146641D01*
X8624614Y-15165689D02*
X8634137Y-15156165D01*
X8653185Y-15146641D01*
X8681757Y-15146641D01*
X8700804Y-15156165D01*
X8710328Y-15175213D01*
X8710328Y-15279975D01*
X8710328Y-15175213D02*
X8719852Y-15156165D01*
X8738899Y-15146641D01*
X8767471Y-15146641D01*
X8786518Y-15156165D01*
X8796042Y-15175213D01*
X8796042Y-15279975D01*
X9186518Y-15070451D02*
X9015090Y-15327594D01*
X9443661Y-15079975D02*
X9462709Y-15079975D01*
X9481757Y-15089499D01*
X9491280Y-15099022D01*
X9500804Y-15118070D01*
X9510328Y-15156165D01*
X9510328Y-15203784D01*
X9500804Y-15241880D01*
X9491280Y-15260927D01*
X9481757Y-15270451D01*
X9462709Y-15279975D01*
X9443661Y-15279975D01*
X9424614Y-15270451D01*
X9415090Y-15260927D01*
X9405566Y-15241880D01*
X9396042Y-15203784D01*
X9396042Y-15156165D01*
X9405566Y-15118070D01*
X9415090Y-15099022D01*
X9424614Y-15089499D01*
X9443661Y-15079975D01*
X9596042Y-15260927D02*
X9605566Y-15270451D01*
X9596042Y-15279975D01*
X9586518Y-15270451D01*
X9596042Y-15260927D01*
X9596042Y-15279975D01*
X9729376Y-15079975D02*
X9748423Y-15079975D01*
X9767471Y-15089499D01*
X9776995Y-15099022D01*
X9786518Y-15118070D01*
X9796042Y-15156165D01*
X9796042Y-15203784D01*
X9786518Y-15241880D01*
X9776995Y-15260927D01*
X9767471Y-15270451D01*
X9748423Y-15279975D01*
X9729376Y-15279975D01*
X9710328Y-15270451D01*
X9700804Y-15260927D01*
X9691280Y-15241880D01*
X9681757Y-15203784D01*
X9681757Y-15156165D01*
X9691280Y-15118070D01*
X9700804Y-15099022D01*
X9710328Y-15089499D01*
X9729376Y-15079975D01*
X9872233Y-15099022D02*
X9881757Y-15089499D01*
X9900804Y-15079975D01*
X9948423Y-15079975D01*
X9967471Y-15089499D01*
X9976995Y-15099022D01*
X9986518Y-15118070D01*
X9986518Y-15137118D01*
X9976995Y-15165689D01*
X9862709Y-15279975D01*
X9986518Y-15279975D01*
X10081757Y-15279975D02*
X10119852Y-15279975D01*
X10138899Y-15270451D01*
X10148423Y-15260927D01*
X10167471Y-15232356D01*
X10176995Y-15194261D01*
X10176995Y-15118070D01*
X10167471Y-15099022D01*
X10157947Y-15089499D01*
X10138899Y-15079975D01*
X10100804Y-15079975D01*
X10081757Y-15089499D01*
X10072233Y-15099022D01*
X10062709Y-15118070D01*
X10062709Y-15165689D01*
X10072233Y-15184737D01*
X10081757Y-15194261D01*
X10100804Y-15203784D01*
X10138899Y-15203784D01*
X10157947Y-15194261D01*
X10167471Y-15184737D01*
X10176995Y-15165689D01*
X10357947Y-15079975D02*
X10262709Y-15079975D01*
X10253185Y-15175213D01*
X10262709Y-15165689D01*
X10281757Y-15156165D01*
X10329376Y-15156165D01*
X10348423Y-15165689D01*
X10357947Y-15175213D01*
X10367471Y-15194261D01*
X10367471Y-15241880D01*
X10357947Y-15260927D01*
X10348423Y-15270451D01*
X10329376Y-15279975D01*
X10281757Y-15279975D01*
X10262709Y-15270451D01*
X10253185Y-15260927D01*
X10443661Y-15079975D02*
X10443661Y-15118070D01*
X10519852Y-15079975D02*
X10519852Y-15118070D01*
X10815090Y-15356165D02*
X10805566Y-15346641D01*
X10786518Y-15318070D01*
X10776995Y-15299022D01*
X10767471Y-15270451D01*
X10757947Y-15222832D01*
X10757947Y-15184737D01*
X10767471Y-15137118D01*
X10776995Y-15108546D01*
X10786518Y-15089499D01*
X10805566Y-15060927D01*
X10815090Y-15051403D01*
X10976995Y-15079975D02*
X10938899Y-15079975D01*
X10919852Y-15089499D01*
X10910328Y-15099022D01*
X10891280Y-15127594D01*
X10881757Y-15165689D01*
X10881757Y-15241880D01*
X10891280Y-15260927D01*
X10900804Y-15270451D01*
X10919852Y-15279975D01*
X10957947Y-15279975D01*
X10976995Y-15270451D01*
X10986518Y-15260927D01*
X10996042Y-15241880D01*
X10996042Y-15194261D01*
X10986518Y-15175213D01*
X10976995Y-15165689D01*
X10957947Y-15156165D01*
X10919852Y-15156165D01*
X10900804Y-15165689D01*
X10891280Y-15175213D01*
X10881757Y-15194261D01*
X11234137Y-15279975D02*
X11234137Y-15079975D01*
X11319852Y-15279975D02*
X11319852Y-15175213D01*
X11310328Y-15156165D01*
X11291280Y-15146641D01*
X11262709Y-15146641D01*
X11243661Y-15156165D01*
X11234137Y-15165689D01*
X11443661Y-15279975D02*
X11424614Y-15270451D01*
X11415090Y-15260927D01*
X11405566Y-15241880D01*
X11405566Y-15184737D01*
X11415090Y-15165689D01*
X11424614Y-15156165D01*
X11443661Y-15146641D01*
X11472233Y-15146641D01*
X11491280Y-15156165D01*
X11500804Y-15165689D01*
X11510328Y-15184737D01*
X11510328Y-15241880D01*
X11500804Y-15260927D01*
X11491280Y-15270451D01*
X11472233Y-15279975D01*
X11443661Y-15279975D01*
X11624614Y-15279975D02*
X11605566Y-15270451D01*
X11596042Y-15251403D01*
X11596042Y-15079975D01*
X11776995Y-15270451D02*
X11757947Y-15279975D01*
X11719852Y-15279975D01*
X11700804Y-15270451D01*
X11691280Y-15251403D01*
X11691280Y-15175213D01*
X11700804Y-15156165D01*
X11719852Y-15146641D01*
X11757947Y-15146641D01*
X11776995Y-15156165D01*
X11786518Y-15175213D01*
X11786518Y-15194261D01*
X11691280Y-15213308D01*
X11862709Y-15270451D02*
X11881756Y-15279975D01*
X11919852Y-15279975D01*
X11938899Y-15270451D01*
X11948423Y-15251403D01*
X11948423Y-15241880D01*
X11938899Y-15222832D01*
X11919852Y-15213308D01*
X11891280Y-15213308D01*
X11872233Y-15203784D01*
X11862709Y-15184737D01*
X11862709Y-15175213D01*
X11872233Y-15156165D01*
X11891280Y-15146641D01*
X11919852Y-15146641D01*
X11938899Y-15156165D01*
X12015090Y-15356165D02*
X12024614Y-15346641D01*
X12043661Y-15318070D01*
X12053185Y-15299022D01*
X12062709Y-15270451D01*
X12072233Y-15222832D01*
X12072233Y-15184737D01*
X12062709Y-15137118D01*
X12053185Y-15108546D01*
X12043661Y-15089499D01*
X12024614Y-15060927D01*
X12015090Y-15051403D01*
D15*
X7203185Y-15413499D02*
X7203185Y-15493499D01*
X7163185Y-15453499D02*
X7243185Y-15453499D01*
D12*
X7538899Y-15343975D02*
X7557947Y-15343975D01*
X7576995Y-15353499D01*
X7586518Y-15363022D01*
X7596042Y-15382070D01*
X7605566Y-15420165D01*
X7605566Y-15467784D01*
X7596042Y-15505880D01*
X7586518Y-15524927D01*
X7576995Y-15534451D01*
X7557947Y-15543975D01*
X7538899Y-15543975D01*
X7519852Y-15534451D01*
X7510328Y-15524927D01*
X7500804Y-15505880D01*
X7491280Y-15467784D01*
X7491280Y-15420165D01*
X7500804Y-15382070D01*
X7510328Y-15363022D01*
X7519852Y-15353499D01*
X7538899Y-15343975D01*
X7691280Y-15524927D02*
X7700804Y-15534451D01*
X7691280Y-15543975D01*
X7681756Y-15534451D01*
X7691280Y-15524927D01*
X7691280Y-15543975D01*
X7815090Y-15429689D02*
X7796042Y-15420165D01*
X7786518Y-15410641D01*
X7776995Y-15391594D01*
X7776995Y-15382070D01*
X7786518Y-15363022D01*
X7796042Y-15353499D01*
X7815090Y-15343975D01*
X7853185Y-15343975D01*
X7872233Y-15353499D01*
X7881756Y-15363022D01*
X7891280Y-15382070D01*
X7891280Y-15391594D01*
X7881756Y-15410641D01*
X7872233Y-15420165D01*
X7853185Y-15429689D01*
X7815090Y-15429689D01*
X7796042Y-15439213D01*
X7786518Y-15448737D01*
X7776995Y-15467784D01*
X7776995Y-15505880D01*
X7786518Y-15524927D01*
X7796042Y-15534451D01*
X7815090Y-15543975D01*
X7853185Y-15543975D01*
X7872233Y-15534451D01*
X7881756Y-15524927D01*
X7891280Y-15505880D01*
X7891280Y-15467784D01*
X7881756Y-15448737D01*
X7872233Y-15439213D01*
X7853185Y-15429689D01*
X8015090Y-15343975D02*
X8034137Y-15343975D01*
X8053185Y-15353499D01*
X8062709Y-15363022D01*
X8072233Y-15382070D01*
X8081756Y-15420165D01*
X8081756Y-15467784D01*
X8072233Y-15505880D01*
X8062709Y-15524927D01*
X8053185Y-15534451D01*
X8034137Y-15543975D01*
X8015090Y-15543975D01*
X7996042Y-15534451D01*
X7986518Y-15524927D01*
X7976995Y-15505880D01*
X7967471Y-15467784D01*
X7967471Y-15420165D01*
X7976995Y-15382070D01*
X7986518Y-15363022D01*
X7996042Y-15353499D01*
X8015090Y-15343975D01*
X8205566Y-15343975D02*
X8224614Y-15343975D01*
X8243661Y-15353499D01*
X8253185Y-15363022D01*
X8262709Y-15382070D01*
X8272233Y-15420165D01*
X8272233Y-15467784D01*
X8262709Y-15505880D01*
X8253185Y-15524927D01*
X8243661Y-15534451D01*
X8224614Y-15543975D01*
X8205566Y-15543975D01*
X8186518Y-15534451D01*
X8176995Y-15524927D01*
X8167471Y-15505880D01*
X8157947Y-15467784D01*
X8157947Y-15420165D01*
X8167471Y-15382070D01*
X8176995Y-15363022D01*
X8186518Y-15353499D01*
X8205566Y-15343975D01*
X8357947Y-15543975D02*
X8357947Y-15410641D01*
X8357947Y-15429689D02*
X8367471Y-15420165D01*
X8386518Y-15410641D01*
X8415090Y-15410641D01*
X8434137Y-15420165D01*
X8443661Y-15439213D01*
X8443661Y-15543975D01*
X8443661Y-15439213D02*
X8453185Y-15420165D01*
X8472233Y-15410641D01*
X8500804Y-15410641D01*
X8519852Y-15420165D01*
X8529376Y-15439213D01*
X8529376Y-15543975D01*
X8624614Y-15543975D02*
X8624614Y-15410641D01*
X8624614Y-15429689D02*
X8634137Y-15420165D01*
X8653185Y-15410641D01*
X8681757Y-15410641D01*
X8700804Y-15420165D01*
X8710328Y-15439213D01*
X8710328Y-15543975D01*
X8710328Y-15439213D02*
X8719852Y-15420165D01*
X8738899Y-15410641D01*
X8767471Y-15410641D01*
X8786518Y-15420165D01*
X8796042Y-15439213D01*
X8796042Y-15543975D01*
X9186518Y-15334451D02*
X9015090Y-15591594D01*
X9443661Y-15343975D02*
X9462709Y-15343975D01*
X9481757Y-15353499D01*
X9491280Y-15363022D01*
X9500804Y-15382070D01*
X9510328Y-15420165D01*
X9510328Y-15467784D01*
X9500804Y-15505880D01*
X9491280Y-15524927D01*
X9481757Y-15534451D01*
X9462709Y-15543975D01*
X9443661Y-15543975D01*
X9424614Y-15534451D01*
X9415090Y-15524927D01*
X9405566Y-15505880D01*
X9396042Y-15467784D01*
X9396042Y-15420165D01*
X9405566Y-15382070D01*
X9415090Y-15363022D01*
X9424614Y-15353499D01*
X9443661Y-15343975D01*
X9596042Y-15524927D02*
X9605566Y-15534451D01*
X9596042Y-15543975D01*
X9586518Y-15534451D01*
X9596042Y-15524927D01*
X9596042Y-15543975D01*
X9729376Y-15343975D02*
X9748423Y-15343975D01*
X9767471Y-15353499D01*
X9776995Y-15363022D01*
X9786518Y-15382070D01*
X9796042Y-15420165D01*
X9796042Y-15467784D01*
X9786518Y-15505880D01*
X9776995Y-15524927D01*
X9767471Y-15534451D01*
X9748423Y-15543975D01*
X9729376Y-15543975D01*
X9710328Y-15534451D01*
X9700804Y-15524927D01*
X9691280Y-15505880D01*
X9681757Y-15467784D01*
X9681757Y-15420165D01*
X9691280Y-15382070D01*
X9700804Y-15363022D01*
X9710328Y-15353499D01*
X9729376Y-15343975D01*
X9862709Y-15343975D02*
X9986518Y-15343975D01*
X9919852Y-15420165D01*
X9948423Y-15420165D01*
X9967471Y-15429689D01*
X9976995Y-15439213D01*
X9986518Y-15458261D01*
X9986518Y-15505880D01*
X9976995Y-15524927D01*
X9967471Y-15534451D01*
X9948423Y-15543975D01*
X9891280Y-15543975D01*
X9872233Y-15534451D01*
X9862709Y-15524927D01*
X10176995Y-15543975D02*
X10062709Y-15543975D01*
X10119852Y-15543975D02*
X10119852Y-15343975D01*
X10100804Y-15372546D01*
X10081757Y-15391594D01*
X10062709Y-15401118D01*
X10357947Y-15343975D02*
X10262709Y-15343975D01*
X10253185Y-15439213D01*
X10262709Y-15429689D01*
X10281757Y-15420165D01*
X10329376Y-15420165D01*
X10348423Y-15429689D01*
X10357947Y-15439213D01*
X10367471Y-15458261D01*
X10367471Y-15505880D01*
X10357947Y-15524927D01*
X10348423Y-15534451D01*
X10329376Y-15543975D01*
X10281757Y-15543975D01*
X10262709Y-15534451D01*
X10253185Y-15524927D01*
X10443661Y-15343975D02*
X10443661Y-15382070D01*
X10519852Y-15343975D02*
X10519852Y-15382070D01*
X10815090Y-15620165D02*
X10805566Y-15610641D01*
X10786518Y-15582070D01*
X10776995Y-15563022D01*
X10767471Y-15534451D01*
X10757947Y-15486832D01*
X10757947Y-15448737D01*
X10767471Y-15401118D01*
X10776995Y-15372546D01*
X10786518Y-15353499D01*
X10805566Y-15324927D01*
X10815090Y-15315403D01*
X10996042Y-15543975D02*
X10881757Y-15543975D01*
X10938899Y-15543975D02*
X10938899Y-15343975D01*
X10919852Y-15372546D01*
X10900804Y-15391594D01*
X10881757Y-15401118D01*
X11119852Y-15343975D02*
X11138899Y-15343975D01*
X11157947Y-15353499D01*
X11167471Y-15363022D01*
X11176995Y-15382070D01*
X11186518Y-15420165D01*
X11186518Y-15467784D01*
X11176995Y-15505880D01*
X11167471Y-15524927D01*
X11157947Y-15534451D01*
X11138899Y-15543975D01*
X11119852Y-15543975D01*
X11100804Y-15534451D01*
X11091280Y-15524927D01*
X11081757Y-15505880D01*
X11072233Y-15467784D01*
X11072233Y-15420165D01*
X11081757Y-15382070D01*
X11091280Y-15363022D01*
X11100804Y-15353499D01*
X11119852Y-15343975D01*
X11424614Y-15543975D02*
X11424614Y-15343975D01*
X11510328Y-15543975D02*
X11510328Y-15439213D01*
X11500804Y-15420165D01*
X11481756Y-15410641D01*
X11453185Y-15410641D01*
X11434137Y-15420165D01*
X11424614Y-15429689D01*
X11634137Y-15543975D02*
X11615090Y-15534451D01*
X11605566Y-15524927D01*
X11596042Y-15505880D01*
X11596042Y-15448737D01*
X11605566Y-15429689D01*
X11615090Y-15420165D01*
X11634137Y-15410641D01*
X11662709Y-15410641D01*
X11681756Y-15420165D01*
X11691280Y-15429689D01*
X11700804Y-15448737D01*
X11700804Y-15505880D01*
X11691280Y-15524927D01*
X11681756Y-15534451D01*
X11662709Y-15543975D01*
X11634137Y-15543975D01*
X11815090Y-15543975D02*
X11796042Y-15534451D01*
X11786518Y-15515403D01*
X11786518Y-15343975D01*
X11967471Y-15534451D02*
X11948423Y-15543975D01*
X11910328Y-15543975D01*
X11891280Y-15534451D01*
X11881756Y-15515403D01*
X11881756Y-15439213D01*
X11891280Y-15420165D01*
X11910328Y-15410641D01*
X11948423Y-15410641D01*
X11967471Y-15420165D01*
X11976995Y-15439213D01*
X11976995Y-15458261D01*
X11881756Y-15477308D01*
X12053185Y-15534451D02*
X12072233Y-15543975D01*
X12110328Y-15543975D01*
X12129375Y-15534451D01*
X12138899Y-15515403D01*
X12138899Y-15505880D01*
X12129375Y-15486832D01*
X12110328Y-15477308D01*
X12081756Y-15477308D01*
X12062709Y-15467784D01*
X12053185Y-15448737D01*
X12053185Y-15439213D01*
X12062709Y-15420165D01*
X12081756Y-15410641D01*
X12110328Y-15410641D01*
X12129375Y-15420165D01*
X12205566Y-15620165D02*
X12215090Y-15610641D01*
X12234137Y-15582070D01*
X12243661Y-15563022D01*
X12253185Y-15534451D01*
X12262709Y-15486832D01*
X12262709Y-15448737D01*
X12253185Y-15401118D01*
X12243661Y-15372546D01*
X12234137Y-15353499D01*
X12215090Y-15324927D01*
X12205566Y-15315403D01*
D16*
X7230005Y-15749319D02*
X7230005Y-15685679D01*
X7166365Y-15685679D01*
X7166365Y-15749319D01*
X7230005Y-15749319D01*
D12*
X7538899Y-15607975D02*
X7557947Y-15607975D01*
X7576995Y-15617499D01*
X7586518Y-15627022D01*
X7596042Y-15646070D01*
X7605566Y-15684165D01*
X7605566Y-15731784D01*
X7596042Y-15769880D01*
X7586518Y-15788927D01*
X7576995Y-15798451D01*
X7557947Y-15807975D01*
X7538899Y-15807975D01*
X7519852Y-15798451D01*
X7510328Y-15788927D01*
X7500804Y-15769880D01*
X7491280Y-15731784D01*
X7491280Y-15684165D01*
X7500804Y-15646070D01*
X7510328Y-15627022D01*
X7519852Y-15617499D01*
X7538899Y-15607975D01*
X7691280Y-15788927D02*
X7700804Y-15798451D01*
X7691280Y-15807975D01*
X7681756Y-15798451D01*
X7691280Y-15788927D01*
X7691280Y-15807975D01*
X7796042Y-15807975D02*
X7834137Y-15807975D01*
X7853185Y-15798451D01*
X7862709Y-15788927D01*
X7881756Y-15760356D01*
X7891280Y-15722261D01*
X7891280Y-15646070D01*
X7881756Y-15627022D01*
X7872233Y-15617499D01*
X7853185Y-15607975D01*
X7815090Y-15607975D01*
X7796042Y-15617499D01*
X7786518Y-15627022D01*
X7776995Y-15646070D01*
X7776995Y-15693689D01*
X7786518Y-15712737D01*
X7796042Y-15722261D01*
X7815090Y-15731784D01*
X7853185Y-15731784D01*
X7872233Y-15722261D01*
X7881756Y-15712737D01*
X7891280Y-15693689D01*
X8015090Y-15607975D02*
X8034137Y-15607975D01*
X8053185Y-15617499D01*
X8062709Y-15627022D01*
X8072233Y-15646070D01*
X8081756Y-15684165D01*
X8081756Y-15731784D01*
X8072233Y-15769880D01*
X8062709Y-15788927D01*
X8053185Y-15798451D01*
X8034137Y-15807975D01*
X8015090Y-15807975D01*
X7996042Y-15798451D01*
X7986518Y-15788927D01*
X7976995Y-15769880D01*
X7967471Y-15731784D01*
X7967471Y-15684165D01*
X7976995Y-15646070D01*
X7986518Y-15627022D01*
X7996042Y-15617499D01*
X8015090Y-15607975D01*
X8205566Y-15607975D02*
X8224614Y-15607975D01*
X8243661Y-15617499D01*
X8253185Y-15627022D01*
X8262709Y-15646070D01*
X8272233Y-15684165D01*
X8272233Y-15731784D01*
X8262709Y-15769880D01*
X8253185Y-15788927D01*
X8243661Y-15798451D01*
X8224614Y-15807975D01*
X8205566Y-15807975D01*
X8186518Y-15798451D01*
X8176995Y-15788927D01*
X8167471Y-15769880D01*
X8157947Y-15731784D01*
X8157947Y-15684165D01*
X8167471Y-15646070D01*
X8176995Y-15627022D01*
X8186518Y-15617499D01*
X8205566Y-15607975D01*
X8357947Y-15807975D02*
X8357947Y-15674641D01*
X8357947Y-15693689D02*
X8367471Y-15684165D01*
X8386518Y-15674641D01*
X8415090Y-15674641D01*
X8434137Y-15684165D01*
X8443661Y-15703213D01*
X8443661Y-15807975D01*
X8443661Y-15703213D02*
X8453185Y-15684165D01*
X8472233Y-15674641D01*
X8500804Y-15674641D01*
X8519852Y-15684165D01*
X8529376Y-15703213D01*
X8529376Y-15807975D01*
X8624614Y-15807975D02*
X8624614Y-15674641D01*
X8624614Y-15693689D02*
X8634137Y-15684165D01*
X8653185Y-15674641D01*
X8681757Y-15674641D01*
X8700804Y-15684165D01*
X8710328Y-15703213D01*
X8710328Y-15807975D01*
X8710328Y-15703213D02*
X8719852Y-15684165D01*
X8738899Y-15674641D01*
X8767471Y-15674641D01*
X8786518Y-15684165D01*
X8796042Y-15703213D01*
X8796042Y-15807975D01*
X9186518Y-15598451D02*
X9015090Y-15855594D01*
X9443661Y-15607975D02*
X9462709Y-15607975D01*
X9481757Y-15617499D01*
X9491280Y-15627022D01*
X9500804Y-15646070D01*
X9510328Y-15684165D01*
X9510328Y-15731784D01*
X9500804Y-15769880D01*
X9491280Y-15788927D01*
X9481757Y-15798451D01*
X9462709Y-15807975D01*
X9443661Y-15807975D01*
X9424614Y-15798451D01*
X9415090Y-15788927D01*
X9405566Y-15769880D01*
X9396042Y-15731784D01*
X9396042Y-15684165D01*
X9405566Y-15646070D01*
X9415090Y-15627022D01*
X9424614Y-15617499D01*
X9443661Y-15607975D01*
X9596042Y-15788927D02*
X9605566Y-15798451D01*
X9596042Y-15807975D01*
X9586518Y-15798451D01*
X9596042Y-15788927D01*
X9596042Y-15807975D01*
X9729376Y-15607975D02*
X9748423Y-15607975D01*
X9767471Y-15617499D01*
X9776995Y-15627022D01*
X9786518Y-15646070D01*
X9796042Y-15684165D01*
X9796042Y-15731784D01*
X9786518Y-15769880D01*
X9776995Y-15788927D01*
X9767471Y-15798451D01*
X9748423Y-15807975D01*
X9729376Y-15807975D01*
X9710328Y-15798451D01*
X9700804Y-15788927D01*
X9691280Y-15769880D01*
X9681757Y-15731784D01*
X9681757Y-15684165D01*
X9691280Y-15646070D01*
X9700804Y-15627022D01*
X9710328Y-15617499D01*
X9729376Y-15607975D01*
X9862709Y-15607975D02*
X9986518Y-15607975D01*
X9919852Y-15684165D01*
X9948423Y-15684165D01*
X9967471Y-15693689D01*
X9976995Y-15703213D01*
X9986518Y-15722261D01*
X9986518Y-15769880D01*
X9976995Y-15788927D01*
X9967471Y-15798451D01*
X9948423Y-15807975D01*
X9891280Y-15807975D01*
X9872233Y-15798451D01*
X9862709Y-15788927D01*
X10167471Y-15607975D02*
X10072233Y-15607975D01*
X10062709Y-15703213D01*
X10072233Y-15693689D01*
X10091280Y-15684165D01*
X10138899Y-15684165D01*
X10157947Y-15693689D01*
X10167471Y-15703213D01*
X10176995Y-15722261D01*
X10176995Y-15769880D01*
X10167471Y-15788927D01*
X10157947Y-15798451D01*
X10138899Y-15807975D01*
X10091280Y-15807975D01*
X10072233Y-15798451D01*
X10062709Y-15788927D01*
X10348423Y-15674641D02*
X10348423Y-15807975D01*
X10300804Y-15598451D02*
X10253185Y-15741308D01*
X10376995Y-15741308D01*
X10443661Y-15607975D02*
X10443661Y-15646070D01*
X10519852Y-15607975D02*
X10519852Y-15646070D01*
X10815090Y-15884165D02*
X10805566Y-15874641D01*
X10786518Y-15846070D01*
X10776995Y-15827022D01*
X10767471Y-15798451D01*
X10757947Y-15750832D01*
X10757947Y-15712737D01*
X10767471Y-15665118D01*
X10776995Y-15636546D01*
X10786518Y-15617499D01*
X10805566Y-15588927D01*
X10815090Y-15579403D01*
X10976995Y-15674641D02*
X10976995Y-15807975D01*
X10929376Y-15598451D02*
X10881757Y-15741308D01*
X11005566Y-15741308D01*
X11234137Y-15807975D02*
X11234137Y-15607975D01*
X11319852Y-15807975D02*
X11319852Y-15703213D01*
X11310328Y-15684165D01*
X11291280Y-15674641D01*
X11262709Y-15674641D01*
X11243661Y-15684165D01*
X11234137Y-15693689D01*
X11443661Y-15807975D02*
X11424614Y-15798451D01*
X11415090Y-15788927D01*
X11405566Y-15769880D01*
X11405566Y-15712737D01*
X11415090Y-15693689D01*
X11424614Y-15684165D01*
X11443661Y-15674641D01*
X11472233Y-15674641D01*
X11491280Y-15684165D01*
X11500804Y-15693689D01*
X11510328Y-15712737D01*
X11510328Y-15769880D01*
X11500804Y-15788927D01*
X11491280Y-15798451D01*
X11472233Y-15807975D01*
X11443661Y-15807975D01*
X11624614Y-15807975D02*
X11605566Y-15798451D01*
X11596042Y-15779403D01*
X11596042Y-15607975D01*
X11776995Y-15798451D02*
X11757947Y-15807975D01*
X11719852Y-15807975D01*
X11700804Y-15798451D01*
X11691280Y-15779403D01*
X11691280Y-15703213D01*
X11700804Y-15684165D01*
X11719852Y-15674641D01*
X11757947Y-15674641D01*
X11776995Y-15684165D01*
X11786518Y-15703213D01*
X11786518Y-15722261D01*
X11691280Y-15741308D01*
X11862709Y-15798451D02*
X11881756Y-15807975D01*
X11919852Y-15807975D01*
X11938899Y-15798451D01*
X11948423Y-15779403D01*
X11948423Y-15769880D01*
X11938899Y-15750832D01*
X11919852Y-15741308D01*
X11891280Y-15741308D01*
X11872233Y-15731784D01*
X11862709Y-15712737D01*
X11862709Y-15703213D01*
X11872233Y-15684165D01*
X11891280Y-15674641D01*
X11919852Y-15674641D01*
X11938899Y-15684165D01*
X12015090Y-15884165D02*
X12024614Y-15874641D01*
X12043661Y-15846070D01*
X12053185Y-15827022D01*
X12062709Y-15798451D01*
X12072233Y-15750832D01*
X12072233Y-15712737D01*
X12062709Y-15665118D01*
X12053185Y-15636546D01*
X12043661Y-15617499D01*
X12024614Y-15588927D01*
X12015090Y-15579403D01*
D17*
X7195685Y-16028999D02*
X7243185Y-15981499D01*
X7195685Y-15933999D01*
X7148185Y-15981499D01*
X7195685Y-16028999D01*
D12*
X7538899Y-15871975D02*
X7557947Y-15871975D01*
X7576995Y-15881499D01*
X7586518Y-15891022D01*
X7596042Y-15910070D01*
X7605566Y-15948165D01*
X7605566Y-15995784D01*
X7596042Y-16033880D01*
X7586518Y-16052927D01*
X7576995Y-16062451D01*
X7557947Y-16071975D01*
X7538899Y-16071975D01*
X7519852Y-16062451D01*
X7510328Y-16052927D01*
X7500804Y-16033880D01*
X7491280Y-15995784D01*
X7491280Y-15948165D01*
X7500804Y-15910070D01*
X7510328Y-15891022D01*
X7519852Y-15881499D01*
X7538899Y-15871975D01*
X7691280Y-16052927D02*
X7700804Y-16062451D01*
X7691280Y-16071975D01*
X7681756Y-16062451D01*
X7691280Y-16052927D01*
X7691280Y-16071975D01*
X7796042Y-16071975D02*
X7834137Y-16071975D01*
X7853185Y-16062451D01*
X7862709Y-16052927D01*
X7881756Y-16024356D01*
X7891280Y-15986261D01*
X7891280Y-15910070D01*
X7881756Y-15891022D01*
X7872233Y-15881499D01*
X7853185Y-15871975D01*
X7815090Y-15871975D01*
X7796042Y-15881499D01*
X7786518Y-15891022D01*
X7776995Y-15910070D01*
X7776995Y-15957689D01*
X7786518Y-15976737D01*
X7796042Y-15986261D01*
X7815090Y-15995784D01*
X7853185Y-15995784D01*
X7872233Y-15986261D01*
X7881756Y-15976737D01*
X7891280Y-15957689D01*
X8072233Y-15871975D02*
X7976995Y-15871975D01*
X7967471Y-15967213D01*
X7976995Y-15957689D01*
X7996042Y-15948165D01*
X8043661Y-15948165D01*
X8062709Y-15957689D01*
X8072233Y-15967213D01*
X8081756Y-15986261D01*
X8081756Y-16033880D01*
X8072233Y-16052927D01*
X8062709Y-16062451D01*
X8043661Y-16071975D01*
X7996042Y-16071975D01*
X7976995Y-16062451D01*
X7967471Y-16052927D01*
X8205566Y-15871975D02*
X8224614Y-15871975D01*
X8243661Y-15881499D01*
X8253185Y-15891022D01*
X8262709Y-15910070D01*
X8272233Y-15948165D01*
X8272233Y-15995784D01*
X8262709Y-16033880D01*
X8253185Y-16052927D01*
X8243661Y-16062451D01*
X8224614Y-16071975D01*
X8205566Y-16071975D01*
X8186518Y-16062451D01*
X8176995Y-16052927D01*
X8167471Y-16033880D01*
X8157947Y-15995784D01*
X8157947Y-15948165D01*
X8167471Y-15910070D01*
X8176995Y-15891022D01*
X8186518Y-15881499D01*
X8205566Y-15871975D01*
X8357947Y-16071975D02*
X8357947Y-15938641D01*
X8357947Y-15957689D02*
X8367471Y-15948165D01*
X8386518Y-15938641D01*
X8415090Y-15938641D01*
X8434137Y-15948165D01*
X8443661Y-15967213D01*
X8443661Y-16071975D01*
X8443661Y-15967213D02*
X8453185Y-15948165D01*
X8472233Y-15938641D01*
X8500804Y-15938641D01*
X8519852Y-15948165D01*
X8529376Y-15967213D01*
X8529376Y-16071975D01*
X8624614Y-16071975D02*
X8624614Y-15938641D01*
X8624614Y-15957689D02*
X8634137Y-15948165D01*
X8653185Y-15938641D01*
X8681757Y-15938641D01*
X8700804Y-15948165D01*
X8710328Y-15967213D01*
X8710328Y-16071975D01*
X8710328Y-15967213D02*
X8719852Y-15948165D01*
X8738899Y-15938641D01*
X8767471Y-15938641D01*
X8786518Y-15948165D01*
X8796042Y-15967213D01*
X8796042Y-16071975D01*
X9186518Y-15862451D02*
X9015090Y-16119594D01*
X9443661Y-15871975D02*
X9462709Y-15871975D01*
X9481757Y-15881499D01*
X9491280Y-15891022D01*
X9500804Y-15910070D01*
X9510328Y-15948165D01*
X9510328Y-15995784D01*
X9500804Y-16033880D01*
X9491280Y-16052927D01*
X9481757Y-16062451D01*
X9462709Y-16071975D01*
X9443661Y-16071975D01*
X9424614Y-16062451D01*
X9415090Y-16052927D01*
X9405566Y-16033880D01*
X9396042Y-15995784D01*
X9396042Y-15948165D01*
X9405566Y-15910070D01*
X9415090Y-15891022D01*
X9424614Y-15881499D01*
X9443661Y-15871975D01*
X9596042Y-16052927D02*
X9605566Y-16062451D01*
X9596042Y-16071975D01*
X9586518Y-16062451D01*
X9596042Y-16052927D01*
X9596042Y-16071975D01*
X9729376Y-15871975D02*
X9748423Y-15871975D01*
X9767471Y-15881499D01*
X9776995Y-15891022D01*
X9786518Y-15910070D01*
X9796042Y-15948165D01*
X9796042Y-15995784D01*
X9786518Y-16033880D01*
X9776995Y-16052927D01*
X9767471Y-16062451D01*
X9748423Y-16071975D01*
X9729376Y-16071975D01*
X9710328Y-16062451D01*
X9700804Y-16052927D01*
X9691280Y-16033880D01*
X9681757Y-15995784D01*
X9681757Y-15948165D01*
X9691280Y-15910070D01*
X9700804Y-15891022D01*
X9710328Y-15881499D01*
X9729376Y-15871975D01*
X9862709Y-15871975D02*
X9986518Y-15871975D01*
X9919852Y-15948165D01*
X9948423Y-15948165D01*
X9967471Y-15957689D01*
X9976995Y-15967213D01*
X9986518Y-15986261D01*
X9986518Y-16033880D01*
X9976995Y-16052927D01*
X9967471Y-16062451D01*
X9948423Y-16071975D01*
X9891280Y-16071975D01*
X9872233Y-16062451D01*
X9862709Y-16052927D01*
X10053185Y-15871975D02*
X10186518Y-15871975D01*
X10100804Y-16071975D01*
X10348423Y-15938641D02*
X10348423Y-16071975D01*
X10300804Y-15862451D02*
X10253185Y-16005308D01*
X10376995Y-16005308D01*
X10443661Y-15871975D02*
X10443661Y-15910070D01*
X10519852Y-15871975D02*
X10519852Y-15910070D01*
X10815090Y-16148165D02*
X10805566Y-16138641D01*
X10786518Y-16110070D01*
X10776995Y-16091022D01*
X10767471Y-16062451D01*
X10757947Y-16014832D01*
X10757947Y-15976737D01*
X10767471Y-15929118D01*
X10776995Y-15900546D01*
X10786518Y-15881499D01*
X10805566Y-15852927D01*
X10815090Y-15843403D01*
X10872233Y-15871975D02*
X11005566Y-15871975D01*
X10919852Y-16071975D01*
X11234137Y-16071975D02*
X11234137Y-15871975D01*
X11319852Y-16071975D02*
X11319852Y-15967213D01*
X11310328Y-15948165D01*
X11291280Y-15938641D01*
X11262709Y-15938641D01*
X11243661Y-15948165D01*
X11234137Y-15957689D01*
X11443661Y-16071975D02*
X11424614Y-16062451D01*
X11415090Y-16052927D01*
X11405566Y-16033880D01*
X11405566Y-15976737D01*
X11415090Y-15957689D01*
X11424614Y-15948165D01*
X11443661Y-15938641D01*
X11472233Y-15938641D01*
X11491280Y-15948165D01*
X11500804Y-15957689D01*
X11510328Y-15976737D01*
X11510328Y-16033880D01*
X11500804Y-16052927D01*
X11491280Y-16062451D01*
X11472233Y-16071975D01*
X11443661Y-16071975D01*
X11624614Y-16071975D02*
X11605566Y-16062451D01*
X11596042Y-16043403D01*
X11596042Y-15871975D01*
X11776995Y-16062451D02*
X11757947Y-16071975D01*
X11719852Y-16071975D01*
X11700804Y-16062451D01*
X11691280Y-16043403D01*
X11691280Y-15967213D01*
X11700804Y-15948165D01*
X11719852Y-15938641D01*
X11757947Y-15938641D01*
X11776995Y-15948165D01*
X11786518Y-15967213D01*
X11786518Y-15986261D01*
X11691280Y-16005308D01*
X11862709Y-16062451D02*
X11881756Y-16071975D01*
X11919852Y-16071975D01*
X11938899Y-16062451D01*
X11948423Y-16043403D01*
X11948423Y-16033880D01*
X11938899Y-16014832D01*
X11919852Y-16005308D01*
X11891280Y-16005308D01*
X11872233Y-15995784D01*
X11862709Y-15976737D01*
X11862709Y-15967213D01*
X11872233Y-15948165D01*
X11891280Y-15938641D01*
X11919852Y-15938641D01*
X11938899Y-15948165D01*
X12015090Y-16148165D02*
X12024614Y-16138641D01*
X12043661Y-16110070D01*
X12053185Y-16091022D01*
X12062709Y-16062451D01*
X12072233Y-16014832D01*
X12072233Y-15976737D01*
X12062709Y-15929118D01*
X12053185Y-15900546D01*
X12043661Y-15881499D01*
X12024614Y-15852927D01*
X12015090Y-15843403D01*
D18*
X7143185Y-16195499D02*
X7243185Y-16295499D01*
X7243185Y-16195499D02*
X7143185Y-16295499D01*
X7243185Y-16245499D02*
G75*
G03*
X7243185Y-16245499I-50000J0D01*
G01*
D12*
X7605566Y-16335975D02*
X7491280Y-16335975D01*
X7548423Y-16335975D02*
X7548423Y-16135975D01*
X7529375Y-16164546D01*
X7510328Y-16183594D01*
X7491280Y-16193118D01*
X7691280Y-16316927D02*
X7700804Y-16326451D01*
X7691280Y-16335975D01*
X7681756Y-16326451D01*
X7691280Y-16316927D01*
X7691280Y-16335975D01*
X7824614Y-16135975D02*
X7843661Y-16135975D01*
X7862709Y-16145499D01*
X7872233Y-16155022D01*
X7881756Y-16174070D01*
X7891280Y-16212165D01*
X7891280Y-16259784D01*
X7881756Y-16297880D01*
X7872233Y-16316927D01*
X7862709Y-16326451D01*
X7843661Y-16335975D01*
X7824614Y-16335975D01*
X7805566Y-16326451D01*
X7796042Y-16316927D01*
X7786518Y-16297880D01*
X7776995Y-16259784D01*
X7776995Y-16212165D01*
X7786518Y-16174070D01*
X7796042Y-16155022D01*
X7805566Y-16145499D01*
X7824614Y-16135975D01*
X8015090Y-16135975D02*
X8034137Y-16135975D01*
X8053185Y-16145499D01*
X8062709Y-16155022D01*
X8072233Y-16174070D01*
X8081756Y-16212165D01*
X8081756Y-16259784D01*
X8072233Y-16297880D01*
X8062709Y-16316927D01*
X8053185Y-16326451D01*
X8034137Y-16335975D01*
X8015090Y-16335975D01*
X7996042Y-16326451D01*
X7986518Y-16316927D01*
X7976995Y-16297880D01*
X7967471Y-16259784D01*
X7967471Y-16212165D01*
X7976995Y-16174070D01*
X7986518Y-16155022D01*
X7996042Y-16145499D01*
X8015090Y-16135975D01*
X8205566Y-16135975D02*
X8224614Y-16135975D01*
X8243661Y-16145499D01*
X8253185Y-16155022D01*
X8262709Y-16174070D01*
X8272233Y-16212165D01*
X8272233Y-16259784D01*
X8262709Y-16297880D01*
X8253185Y-16316927D01*
X8243661Y-16326451D01*
X8224614Y-16335975D01*
X8205566Y-16335975D01*
X8186518Y-16326451D01*
X8176995Y-16316927D01*
X8167471Y-16297880D01*
X8157947Y-16259784D01*
X8157947Y-16212165D01*
X8167471Y-16174070D01*
X8176995Y-16155022D01*
X8186518Y-16145499D01*
X8205566Y-16135975D01*
X8357947Y-16335975D02*
X8357947Y-16202641D01*
X8357947Y-16221689D02*
X8367471Y-16212165D01*
X8386518Y-16202641D01*
X8415090Y-16202641D01*
X8434137Y-16212165D01*
X8443661Y-16231213D01*
X8443661Y-16335975D01*
X8443661Y-16231213D02*
X8453185Y-16212165D01*
X8472233Y-16202641D01*
X8500804Y-16202641D01*
X8519852Y-16212165D01*
X8529376Y-16231213D01*
X8529376Y-16335975D01*
X8624614Y-16335975D02*
X8624614Y-16202641D01*
X8624614Y-16221689D02*
X8634137Y-16212165D01*
X8653185Y-16202641D01*
X8681757Y-16202641D01*
X8700804Y-16212165D01*
X8710328Y-16231213D01*
X8710328Y-16335975D01*
X8710328Y-16231213D02*
X8719852Y-16212165D01*
X8738899Y-16202641D01*
X8767471Y-16202641D01*
X8786518Y-16212165D01*
X8796042Y-16231213D01*
X8796042Y-16335975D01*
X9186518Y-16126451D02*
X9015090Y-16383594D01*
X9443661Y-16135975D02*
X9462709Y-16135975D01*
X9481757Y-16145499D01*
X9491280Y-16155022D01*
X9500804Y-16174070D01*
X9510328Y-16212165D01*
X9510328Y-16259784D01*
X9500804Y-16297880D01*
X9491280Y-16316927D01*
X9481757Y-16326451D01*
X9462709Y-16335975D01*
X9443661Y-16335975D01*
X9424614Y-16326451D01*
X9415090Y-16316927D01*
X9405566Y-16297880D01*
X9396042Y-16259784D01*
X9396042Y-16212165D01*
X9405566Y-16174070D01*
X9415090Y-16155022D01*
X9424614Y-16145499D01*
X9443661Y-16135975D01*
X9596042Y-16316927D02*
X9605566Y-16326451D01*
X9596042Y-16335975D01*
X9586518Y-16326451D01*
X9596042Y-16316927D01*
X9596042Y-16335975D01*
X9729376Y-16135975D02*
X9748423Y-16135975D01*
X9767471Y-16145499D01*
X9776995Y-16155022D01*
X9786518Y-16174070D01*
X9796042Y-16212165D01*
X9796042Y-16259784D01*
X9786518Y-16297880D01*
X9776995Y-16316927D01*
X9767471Y-16326451D01*
X9748423Y-16335975D01*
X9729376Y-16335975D01*
X9710328Y-16326451D01*
X9700804Y-16316927D01*
X9691280Y-16297880D01*
X9681757Y-16259784D01*
X9681757Y-16212165D01*
X9691280Y-16174070D01*
X9700804Y-16155022D01*
X9710328Y-16145499D01*
X9729376Y-16135975D01*
X9862709Y-16135975D02*
X9986518Y-16135975D01*
X9919852Y-16212165D01*
X9948423Y-16212165D01*
X9967471Y-16221689D01*
X9976995Y-16231213D01*
X9986518Y-16250261D01*
X9986518Y-16297880D01*
X9976995Y-16316927D01*
X9967471Y-16326451D01*
X9948423Y-16335975D01*
X9891280Y-16335975D01*
X9872233Y-16326451D01*
X9862709Y-16316927D01*
X10081757Y-16335975D02*
X10119852Y-16335975D01*
X10138899Y-16326451D01*
X10148423Y-16316927D01*
X10167471Y-16288356D01*
X10176995Y-16250261D01*
X10176995Y-16174070D01*
X10167471Y-16155022D01*
X10157947Y-16145499D01*
X10138899Y-16135975D01*
X10100804Y-16135975D01*
X10081757Y-16145499D01*
X10072233Y-16155022D01*
X10062709Y-16174070D01*
X10062709Y-16221689D01*
X10072233Y-16240737D01*
X10081757Y-16250261D01*
X10100804Y-16259784D01*
X10138899Y-16259784D01*
X10157947Y-16250261D01*
X10167471Y-16240737D01*
X10176995Y-16221689D01*
X10348423Y-16202641D02*
X10348423Y-16335975D01*
X10300804Y-16126451D02*
X10253185Y-16269308D01*
X10376995Y-16269308D01*
X10443661Y-16135975D02*
X10443661Y-16174070D01*
X10519852Y-16135975D02*
X10519852Y-16174070D01*
X10815090Y-16412165D02*
X10805566Y-16402641D01*
X10786518Y-16374070D01*
X10776995Y-16355022D01*
X10767471Y-16326451D01*
X10757947Y-16278832D01*
X10757947Y-16240737D01*
X10767471Y-16193118D01*
X10776995Y-16164546D01*
X10786518Y-16145499D01*
X10805566Y-16116927D01*
X10815090Y-16107403D01*
X10881757Y-16155022D02*
X10891280Y-16145499D01*
X10910328Y-16135975D01*
X10957947Y-16135975D01*
X10976995Y-16145499D01*
X10986518Y-16155022D01*
X10996042Y-16174070D01*
X10996042Y-16193118D01*
X10986518Y-16221689D01*
X10872233Y-16335975D01*
X10996042Y-16335975D01*
X11234137Y-16335975D02*
X11234137Y-16135975D01*
X11319852Y-16335975D02*
X11319852Y-16231213D01*
X11310328Y-16212165D01*
X11291280Y-16202641D01*
X11262709Y-16202641D01*
X11243661Y-16212165D01*
X11234137Y-16221689D01*
X11443661Y-16335975D02*
X11424614Y-16326451D01*
X11415090Y-16316927D01*
X11405566Y-16297880D01*
X11405566Y-16240737D01*
X11415090Y-16221689D01*
X11424614Y-16212165D01*
X11443661Y-16202641D01*
X11472233Y-16202641D01*
X11491280Y-16212165D01*
X11500804Y-16221689D01*
X11510328Y-16240737D01*
X11510328Y-16297880D01*
X11500804Y-16316927D01*
X11491280Y-16326451D01*
X11472233Y-16335975D01*
X11443661Y-16335975D01*
X11624614Y-16335975D02*
X11605566Y-16326451D01*
X11596042Y-16307403D01*
X11596042Y-16135975D01*
X11776995Y-16326451D02*
X11757947Y-16335975D01*
X11719852Y-16335975D01*
X11700804Y-16326451D01*
X11691280Y-16307403D01*
X11691280Y-16231213D01*
X11700804Y-16212165D01*
X11719852Y-16202641D01*
X11757947Y-16202641D01*
X11776995Y-16212165D01*
X11786518Y-16231213D01*
X11786518Y-16250261D01*
X11691280Y-16269308D01*
X11862709Y-16326451D02*
X11881756Y-16335975D01*
X11919852Y-16335975D01*
X11938899Y-16326451D01*
X11948423Y-16307403D01*
X11948423Y-16297880D01*
X11938899Y-16278832D01*
X11919852Y-16269308D01*
X11891280Y-16269308D01*
X11872233Y-16259784D01*
X11862709Y-16240737D01*
X11862709Y-16231213D01*
X11872233Y-16212165D01*
X11891280Y-16202641D01*
X11919852Y-16202641D01*
X11938899Y-16212165D01*
X12015090Y-16412165D02*
X12024614Y-16402641D01*
X12043661Y-16374070D01*
X12053185Y-16355022D01*
X12062709Y-16326451D01*
X12072233Y-16278832D01*
X12072233Y-16240737D01*
X12062709Y-16193118D01*
X12053185Y-16164546D01*
X12043661Y-16145499D01*
X12024614Y-16116927D01*
X12015090Y-16107403D01*
D19*
X7141185Y-16458499D02*
X7243185Y-16560499D01*
X7243185Y-16458499D02*
X7141185Y-16560499D01*
X7192185Y-16458499D02*
X7192185Y-16560499D01*
X7141185Y-16509499D02*
X7243185Y-16509499D01*
D12*
X7605566Y-16599975D02*
X7491280Y-16599975D01*
X7548423Y-16599975D02*
X7548423Y-16399975D01*
X7529375Y-16428546D01*
X7510328Y-16447594D01*
X7491280Y-16457118D01*
X7691280Y-16580927D02*
X7700804Y-16590451D01*
X7691280Y-16599975D01*
X7681756Y-16590451D01*
X7691280Y-16580927D01*
X7691280Y-16599975D01*
X7824614Y-16399975D02*
X7843661Y-16399975D01*
X7862709Y-16409499D01*
X7872233Y-16419022D01*
X7881756Y-16438070D01*
X7891280Y-16476165D01*
X7891280Y-16523784D01*
X7881756Y-16561880D01*
X7872233Y-16580927D01*
X7862709Y-16590451D01*
X7843661Y-16599975D01*
X7824614Y-16599975D01*
X7805566Y-16590451D01*
X7796042Y-16580927D01*
X7786518Y-16561880D01*
X7776995Y-16523784D01*
X7776995Y-16476165D01*
X7786518Y-16438070D01*
X7796042Y-16419022D01*
X7805566Y-16409499D01*
X7824614Y-16399975D01*
X7967471Y-16419022D02*
X7976995Y-16409499D01*
X7996042Y-16399975D01*
X8043661Y-16399975D01*
X8062709Y-16409499D01*
X8072233Y-16419022D01*
X8081756Y-16438070D01*
X8081756Y-16457118D01*
X8072233Y-16485689D01*
X7957947Y-16599975D01*
X8081756Y-16599975D01*
X8205566Y-16399975D02*
X8224614Y-16399975D01*
X8243661Y-16409499D01*
X8253185Y-16419022D01*
X8262709Y-16438070D01*
X8272233Y-16476165D01*
X8272233Y-16523784D01*
X8262709Y-16561880D01*
X8253185Y-16580927D01*
X8243661Y-16590451D01*
X8224614Y-16599975D01*
X8205566Y-16599975D01*
X8186518Y-16590451D01*
X8176995Y-16580927D01*
X8167471Y-16561880D01*
X8157947Y-16523784D01*
X8157947Y-16476165D01*
X8167471Y-16438070D01*
X8176995Y-16419022D01*
X8186518Y-16409499D01*
X8205566Y-16399975D01*
X8357947Y-16599975D02*
X8357947Y-16466641D01*
X8357947Y-16485689D02*
X8367471Y-16476165D01*
X8386518Y-16466641D01*
X8415090Y-16466641D01*
X8434137Y-16476165D01*
X8443661Y-16495213D01*
X8443661Y-16599975D01*
X8443661Y-16495213D02*
X8453185Y-16476165D01*
X8472233Y-16466641D01*
X8500804Y-16466641D01*
X8519852Y-16476165D01*
X8529376Y-16495213D01*
X8529376Y-16599975D01*
X8624614Y-16599975D02*
X8624614Y-16466641D01*
X8624614Y-16485689D02*
X8634137Y-16476165D01*
X8653185Y-16466641D01*
X8681757Y-16466641D01*
X8700804Y-16476165D01*
X8710328Y-16495213D01*
X8710328Y-16599975D01*
X8710328Y-16495213D02*
X8719852Y-16476165D01*
X8738899Y-16466641D01*
X8767471Y-16466641D01*
X8786518Y-16476165D01*
X8796042Y-16495213D01*
X8796042Y-16599975D01*
X9186518Y-16390451D02*
X9015090Y-16647594D01*
X9443661Y-16399975D02*
X9462709Y-16399975D01*
X9481757Y-16409499D01*
X9491280Y-16419022D01*
X9500804Y-16438070D01*
X9510328Y-16476165D01*
X9510328Y-16523784D01*
X9500804Y-16561880D01*
X9491280Y-16580927D01*
X9481757Y-16590451D01*
X9462709Y-16599975D01*
X9443661Y-16599975D01*
X9424614Y-16590451D01*
X9415090Y-16580927D01*
X9405566Y-16561880D01*
X9396042Y-16523784D01*
X9396042Y-16476165D01*
X9405566Y-16438070D01*
X9415090Y-16419022D01*
X9424614Y-16409499D01*
X9443661Y-16399975D01*
X9596042Y-16580927D02*
X9605566Y-16590451D01*
X9596042Y-16599975D01*
X9586518Y-16590451D01*
X9596042Y-16580927D01*
X9596042Y-16599975D01*
X9729376Y-16399975D02*
X9748423Y-16399975D01*
X9767471Y-16409499D01*
X9776995Y-16419022D01*
X9786518Y-16438070D01*
X9796042Y-16476165D01*
X9796042Y-16523784D01*
X9786518Y-16561880D01*
X9776995Y-16580927D01*
X9767471Y-16590451D01*
X9748423Y-16599975D01*
X9729376Y-16599975D01*
X9710328Y-16590451D01*
X9700804Y-16580927D01*
X9691280Y-16561880D01*
X9681757Y-16523784D01*
X9681757Y-16476165D01*
X9691280Y-16438070D01*
X9700804Y-16419022D01*
X9710328Y-16409499D01*
X9729376Y-16399975D01*
X9967471Y-16466641D02*
X9967471Y-16599975D01*
X9919852Y-16390451D02*
X9872233Y-16533308D01*
X9996042Y-16533308D01*
X10110328Y-16399975D02*
X10129376Y-16399975D01*
X10148423Y-16409499D01*
X10157947Y-16419022D01*
X10167471Y-16438070D01*
X10176995Y-16476165D01*
X10176995Y-16523784D01*
X10167471Y-16561880D01*
X10157947Y-16580927D01*
X10148423Y-16590451D01*
X10129376Y-16599975D01*
X10110328Y-16599975D01*
X10091280Y-16590451D01*
X10081757Y-16580927D01*
X10072233Y-16561880D01*
X10062709Y-16523784D01*
X10062709Y-16476165D01*
X10072233Y-16438070D01*
X10081757Y-16419022D01*
X10091280Y-16409499D01*
X10110328Y-16399975D01*
X10253185Y-16419022D02*
X10262709Y-16409499D01*
X10281757Y-16399975D01*
X10329376Y-16399975D01*
X10348423Y-16409499D01*
X10357947Y-16419022D01*
X10367471Y-16438070D01*
X10367471Y-16457118D01*
X10357947Y-16485689D01*
X10243661Y-16599975D01*
X10367471Y-16599975D01*
X10443661Y-16399975D02*
X10443661Y-16438070D01*
X10519852Y-16399975D02*
X10519852Y-16438070D01*
X10815090Y-16676165D02*
X10805566Y-16666641D01*
X10786518Y-16638070D01*
X10776995Y-16619022D01*
X10767471Y-16590451D01*
X10757947Y-16542832D01*
X10757947Y-16504737D01*
X10767471Y-16457118D01*
X10776995Y-16428546D01*
X10786518Y-16409499D01*
X10805566Y-16380927D01*
X10815090Y-16371403D01*
X10976995Y-16466641D02*
X10976995Y-16599975D01*
X10929376Y-16390451D02*
X10881757Y-16533308D01*
X11005566Y-16533308D01*
X11234137Y-16599975D02*
X11234137Y-16399975D01*
X11319852Y-16599975D02*
X11319852Y-16495213D01*
X11310328Y-16476165D01*
X11291280Y-16466641D01*
X11262709Y-16466641D01*
X11243661Y-16476165D01*
X11234137Y-16485689D01*
X11443661Y-16599975D02*
X11424614Y-16590451D01*
X11415090Y-16580927D01*
X11405566Y-16561880D01*
X11405566Y-16504737D01*
X11415090Y-16485689D01*
X11424614Y-16476165D01*
X11443661Y-16466641D01*
X11472233Y-16466641D01*
X11491280Y-16476165D01*
X11500804Y-16485689D01*
X11510328Y-16504737D01*
X11510328Y-16561880D01*
X11500804Y-16580927D01*
X11491280Y-16590451D01*
X11472233Y-16599975D01*
X11443661Y-16599975D01*
X11624614Y-16599975D02*
X11605566Y-16590451D01*
X11596042Y-16571403D01*
X11596042Y-16399975D01*
X11776995Y-16590451D02*
X11757947Y-16599975D01*
X11719852Y-16599975D01*
X11700804Y-16590451D01*
X11691280Y-16571403D01*
X11691280Y-16495213D01*
X11700804Y-16476165D01*
X11719852Y-16466641D01*
X11757947Y-16466641D01*
X11776995Y-16476165D01*
X11786518Y-16495213D01*
X11786518Y-16514261D01*
X11691280Y-16533308D01*
X11862709Y-16590451D02*
X11881756Y-16599975D01*
X11919852Y-16599975D01*
X11938899Y-16590451D01*
X11948423Y-16571403D01*
X11948423Y-16561880D01*
X11938899Y-16542832D01*
X11919852Y-16533308D01*
X11891280Y-16533308D01*
X11872233Y-16523784D01*
X11862709Y-16504737D01*
X11862709Y-16495213D01*
X11872233Y-16476165D01*
X11891280Y-16466641D01*
X11919852Y-16466641D01*
X11938899Y-16476165D01*
X12015090Y-16676165D02*
X12024614Y-16666641D01*
X12043661Y-16638070D01*
X12053185Y-16619022D01*
X12062709Y-16590451D01*
X12072233Y-16542832D01*
X12072233Y-16504737D01*
X12062709Y-16457118D01*
X12053185Y-16428546D01*
X12043661Y-16409499D01*
X12024614Y-16380927D01*
X12015090Y-16371403D01*
D20*
X7118185Y-16710999D02*
X7243185Y-16835999D01*
X7243185Y-16710999D02*
X7118185Y-16835999D01*
X7224880Y-16817693D02*
X7224880Y-16729304D01*
X7136490Y-16729304D01*
X7136490Y-16817693D01*
X7224880Y-16817693D01*
D12*
X7605566Y-16863975D02*
X7491280Y-16863975D01*
X7548423Y-16863975D02*
X7548423Y-16663975D01*
X7529375Y-16692546D01*
X7510328Y-16711594D01*
X7491280Y-16721118D01*
X7691280Y-16844927D02*
X7700804Y-16854451D01*
X7691280Y-16863975D01*
X7681756Y-16854451D01*
X7691280Y-16844927D01*
X7691280Y-16863975D01*
X7776995Y-16683022D02*
X7786518Y-16673499D01*
X7805566Y-16663975D01*
X7853185Y-16663975D01*
X7872233Y-16673499D01*
X7881756Y-16683022D01*
X7891280Y-16702070D01*
X7891280Y-16721118D01*
X7881756Y-16749689D01*
X7767471Y-16863975D01*
X7891280Y-16863975D01*
X8072233Y-16663975D02*
X7976995Y-16663975D01*
X7967471Y-16759213D01*
X7976995Y-16749689D01*
X7996042Y-16740165D01*
X8043661Y-16740165D01*
X8062709Y-16749689D01*
X8072233Y-16759213D01*
X8081756Y-16778261D01*
X8081756Y-16825880D01*
X8072233Y-16844927D01*
X8062709Y-16854451D01*
X8043661Y-16863975D01*
X7996042Y-16863975D01*
X7976995Y-16854451D01*
X7967471Y-16844927D01*
X8205566Y-16663975D02*
X8224614Y-16663975D01*
X8243661Y-16673499D01*
X8253185Y-16683022D01*
X8262709Y-16702070D01*
X8272233Y-16740165D01*
X8272233Y-16787784D01*
X8262709Y-16825880D01*
X8253185Y-16844927D01*
X8243661Y-16854451D01*
X8224614Y-16863975D01*
X8205566Y-16863975D01*
X8186518Y-16854451D01*
X8176995Y-16844927D01*
X8167471Y-16825880D01*
X8157947Y-16787784D01*
X8157947Y-16740165D01*
X8167471Y-16702070D01*
X8176995Y-16683022D01*
X8186518Y-16673499D01*
X8205566Y-16663975D01*
X8357947Y-16863975D02*
X8357947Y-16730641D01*
X8357947Y-16749689D02*
X8367471Y-16740165D01*
X8386518Y-16730641D01*
X8415090Y-16730641D01*
X8434137Y-16740165D01*
X8443661Y-16759213D01*
X8443661Y-16863975D01*
X8443661Y-16759213D02*
X8453185Y-16740165D01*
X8472233Y-16730641D01*
X8500804Y-16730641D01*
X8519852Y-16740165D01*
X8529376Y-16759213D01*
X8529376Y-16863975D01*
X8624614Y-16863975D02*
X8624614Y-16730641D01*
X8624614Y-16749689D02*
X8634137Y-16740165D01*
X8653185Y-16730641D01*
X8681757Y-16730641D01*
X8700804Y-16740165D01*
X8710328Y-16759213D01*
X8710328Y-16863975D01*
X8710328Y-16759213D02*
X8719852Y-16740165D01*
X8738899Y-16730641D01*
X8767471Y-16730641D01*
X8786518Y-16740165D01*
X8796042Y-16759213D01*
X8796042Y-16863975D01*
X9186518Y-16654451D02*
X9015090Y-16911594D01*
X9443661Y-16663975D02*
X9462709Y-16663975D01*
X9481757Y-16673499D01*
X9491280Y-16683022D01*
X9500804Y-16702070D01*
X9510328Y-16740165D01*
X9510328Y-16787784D01*
X9500804Y-16825880D01*
X9491280Y-16844927D01*
X9481757Y-16854451D01*
X9462709Y-16863975D01*
X9443661Y-16863975D01*
X9424614Y-16854451D01*
X9415090Y-16844927D01*
X9405566Y-16825880D01*
X9396042Y-16787784D01*
X9396042Y-16740165D01*
X9405566Y-16702070D01*
X9415090Y-16683022D01*
X9424614Y-16673499D01*
X9443661Y-16663975D01*
X9596042Y-16844927D02*
X9605566Y-16854451D01*
X9596042Y-16863975D01*
X9586518Y-16854451D01*
X9596042Y-16844927D01*
X9596042Y-16863975D01*
X9729376Y-16663975D02*
X9748423Y-16663975D01*
X9767471Y-16673499D01*
X9776995Y-16683022D01*
X9786518Y-16702070D01*
X9796042Y-16740165D01*
X9796042Y-16787784D01*
X9786518Y-16825880D01*
X9776995Y-16844927D01*
X9767471Y-16854451D01*
X9748423Y-16863975D01*
X9729376Y-16863975D01*
X9710328Y-16854451D01*
X9700804Y-16844927D01*
X9691280Y-16825880D01*
X9681757Y-16787784D01*
X9681757Y-16740165D01*
X9691280Y-16702070D01*
X9700804Y-16683022D01*
X9710328Y-16673499D01*
X9729376Y-16663975D01*
X9967471Y-16730641D02*
X9967471Y-16863975D01*
X9919852Y-16654451D02*
X9872233Y-16797308D01*
X9996042Y-16797308D01*
X10081757Y-16863975D02*
X10119852Y-16863975D01*
X10138899Y-16854451D01*
X10148423Y-16844927D01*
X10167471Y-16816356D01*
X10176995Y-16778261D01*
X10176995Y-16702070D01*
X10167471Y-16683022D01*
X10157947Y-16673499D01*
X10138899Y-16663975D01*
X10100804Y-16663975D01*
X10081757Y-16673499D01*
X10072233Y-16683022D01*
X10062709Y-16702070D01*
X10062709Y-16749689D01*
X10072233Y-16768737D01*
X10081757Y-16778261D01*
X10100804Y-16787784D01*
X10138899Y-16787784D01*
X10157947Y-16778261D01*
X10167471Y-16768737D01*
X10176995Y-16749689D01*
X10253185Y-16683022D02*
X10262709Y-16673499D01*
X10281757Y-16663975D01*
X10329376Y-16663975D01*
X10348423Y-16673499D01*
X10357947Y-16683022D01*
X10367471Y-16702070D01*
X10367471Y-16721118D01*
X10357947Y-16749689D01*
X10243661Y-16863975D01*
X10367471Y-16863975D01*
X10443661Y-16663975D02*
X10443661Y-16702070D01*
X10519852Y-16663975D02*
X10519852Y-16702070D01*
X10815090Y-16940165D02*
X10805566Y-16930642D01*
X10786518Y-16902070D01*
X10776995Y-16883023D01*
X10767471Y-16854451D01*
X10757947Y-16806832D01*
X10757947Y-16768737D01*
X10767471Y-16721118D01*
X10776995Y-16692546D01*
X10786518Y-16673499D01*
X10805566Y-16644927D01*
X10815090Y-16635403D01*
X10872233Y-16663975D02*
X10996042Y-16663975D01*
X10929376Y-16740165D01*
X10957947Y-16740165D01*
X10976995Y-16749689D01*
X10986518Y-16759213D01*
X10996042Y-16778261D01*
X10996042Y-16825880D01*
X10986518Y-16844927D01*
X10976995Y-16854451D01*
X10957947Y-16863975D01*
X10900804Y-16863975D01*
X10881757Y-16854451D01*
X10872233Y-16844927D01*
X11234137Y-16863975D02*
X11234137Y-16663975D01*
X11319852Y-16863975D02*
X11319852Y-16759213D01*
X11310328Y-16740165D01*
X11291280Y-16730641D01*
X11262709Y-16730641D01*
X11243661Y-16740165D01*
X11234137Y-16749689D01*
X11443661Y-16863975D02*
X11424614Y-16854451D01*
X11415090Y-16844927D01*
X11405566Y-16825880D01*
X11405566Y-16768737D01*
X11415090Y-16749689D01*
X11424614Y-16740165D01*
X11443661Y-16730641D01*
X11472233Y-16730641D01*
X11491280Y-16740165D01*
X11500804Y-16749689D01*
X11510328Y-16768737D01*
X11510328Y-16825880D01*
X11500804Y-16844927D01*
X11491280Y-16854451D01*
X11472233Y-16863975D01*
X11443661Y-16863975D01*
X11624614Y-16863975D02*
X11605566Y-16854451D01*
X11596042Y-16835403D01*
X11596042Y-16663975D01*
X11776995Y-16854451D02*
X11757947Y-16863975D01*
X11719852Y-16863975D01*
X11700804Y-16854451D01*
X11691280Y-16835403D01*
X11691280Y-16759213D01*
X11700804Y-16740165D01*
X11719852Y-16730641D01*
X11757947Y-16730641D01*
X11776995Y-16740165D01*
X11786518Y-16759213D01*
X11786518Y-16778261D01*
X11691280Y-16797308D01*
X11862709Y-16854451D02*
X11881756Y-16863975D01*
X11919852Y-16863975D01*
X11938899Y-16854451D01*
X11948423Y-16835403D01*
X11948423Y-16825880D01*
X11938899Y-16806832D01*
X11919852Y-16797308D01*
X11891280Y-16797308D01*
X11872233Y-16787784D01*
X11862709Y-16768737D01*
X11862709Y-16759213D01*
X11872233Y-16740165D01*
X11891280Y-16730641D01*
X11919852Y-16730641D01*
X11938899Y-16740165D01*
X12015090Y-16940165D02*
X12024614Y-16930642D01*
X12043661Y-16902070D01*
X12053185Y-16883023D01*
X12062709Y-16854451D01*
X12072233Y-16806832D01*
X12072233Y-16768737D01*
X12062709Y-16721118D01*
X12053185Y-16692546D01*
X12043661Y-16673499D01*
X12024614Y-16644927D01*
X12015090Y-16635403D01*
D21*
X7063185Y-16947499D02*
X7243185Y-17127499D01*
X7243185Y-16947499D02*
X7063185Y-17127499D01*
X7153185Y-17127499D02*
X7243185Y-17037499D01*
X7153185Y-16947499D01*
X7063185Y-17037499D01*
X7153185Y-17127499D01*
D12*
X7605566Y-17127975D02*
X7491280Y-17127975D01*
X7548423Y-17127975D02*
X7548423Y-16927975D01*
X7529375Y-16956546D01*
X7510328Y-16975594D01*
X7491280Y-16985118D01*
X7691280Y-17108927D02*
X7700804Y-17118451D01*
X7691280Y-17127975D01*
X7681756Y-17118451D01*
X7691280Y-17108927D01*
X7691280Y-17127975D01*
X7815090Y-17013689D02*
X7796042Y-17004165D01*
X7786518Y-16994642D01*
X7776995Y-16975594D01*
X7776995Y-16966070D01*
X7786518Y-16947023D01*
X7796042Y-16937499D01*
X7815090Y-16927975D01*
X7853185Y-16927975D01*
X7872233Y-16937499D01*
X7881756Y-16947023D01*
X7891280Y-16966070D01*
X7891280Y-16975594D01*
X7881756Y-16994642D01*
X7872233Y-17004165D01*
X7853185Y-17013689D01*
X7815090Y-17013689D01*
X7796042Y-17023213D01*
X7786518Y-17032737D01*
X7776995Y-17051784D01*
X7776995Y-17089880D01*
X7786518Y-17108927D01*
X7796042Y-17118451D01*
X7815090Y-17127975D01*
X7853185Y-17127975D01*
X7872233Y-17118451D01*
X7881756Y-17108927D01*
X7891280Y-17089880D01*
X7891280Y-17051784D01*
X7881756Y-17032737D01*
X7872233Y-17023213D01*
X7853185Y-17013689D01*
X8015090Y-16927975D02*
X8034137Y-16927975D01*
X8053185Y-16937499D01*
X8062709Y-16947023D01*
X8072233Y-16966070D01*
X8081756Y-17004165D01*
X8081756Y-17051784D01*
X8072233Y-17089880D01*
X8062709Y-17108927D01*
X8053185Y-17118451D01*
X8034137Y-17127975D01*
X8015090Y-17127975D01*
X7996042Y-17118451D01*
X7986518Y-17108927D01*
X7976995Y-17089880D01*
X7967471Y-17051784D01*
X7967471Y-17004165D01*
X7976995Y-16966070D01*
X7986518Y-16947023D01*
X7996042Y-16937499D01*
X8015090Y-16927975D01*
X8205566Y-16927975D02*
X8224614Y-16927975D01*
X8243661Y-16937499D01*
X8253185Y-16947023D01*
X8262709Y-16966070D01*
X8272233Y-17004165D01*
X8272233Y-17051784D01*
X8262709Y-17089880D01*
X8253185Y-17108927D01*
X8243661Y-17118451D01*
X8224614Y-17127975D01*
X8205566Y-17127975D01*
X8186518Y-17118451D01*
X8176995Y-17108927D01*
X8167471Y-17089880D01*
X8157947Y-17051784D01*
X8157947Y-17004165D01*
X8167471Y-16966070D01*
X8176995Y-16947023D01*
X8186518Y-16937499D01*
X8205566Y-16927975D01*
X8357947Y-17127975D02*
X8357947Y-16994642D01*
X8357947Y-17013689D02*
X8367471Y-17004165D01*
X8386518Y-16994642D01*
X8415090Y-16994642D01*
X8434137Y-17004165D01*
X8443661Y-17023213D01*
X8443661Y-17127975D01*
X8443661Y-17023213D02*
X8453185Y-17004165D01*
X8472233Y-16994642D01*
X8500804Y-16994642D01*
X8519852Y-17004165D01*
X8529376Y-17023213D01*
X8529376Y-17127975D01*
X8624614Y-17127975D02*
X8624614Y-16994642D01*
X8624614Y-17013689D02*
X8634137Y-17004165D01*
X8653185Y-16994642D01*
X8681757Y-16994642D01*
X8700804Y-17004165D01*
X8710328Y-17023213D01*
X8710328Y-17127975D01*
X8710328Y-17023213D02*
X8719852Y-17004165D01*
X8738899Y-16994642D01*
X8767471Y-16994642D01*
X8786518Y-17004165D01*
X8796042Y-17023213D01*
X8796042Y-17127975D01*
X9186518Y-16918451D02*
X9015090Y-17175594D01*
X9443661Y-16927975D02*
X9462709Y-16927975D01*
X9481757Y-16937499D01*
X9491280Y-16947023D01*
X9500804Y-16966070D01*
X9510328Y-17004165D01*
X9510328Y-17051784D01*
X9500804Y-17089880D01*
X9491280Y-17108927D01*
X9481757Y-17118451D01*
X9462709Y-17127975D01*
X9443661Y-17127975D01*
X9424614Y-17118451D01*
X9415090Y-17108927D01*
X9405566Y-17089880D01*
X9396042Y-17051784D01*
X9396042Y-17004165D01*
X9405566Y-16966070D01*
X9415090Y-16947023D01*
X9424614Y-16937499D01*
X9443661Y-16927975D01*
X9596042Y-17108927D02*
X9605566Y-17118451D01*
X9596042Y-17127975D01*
X9586518Y-17118451D01*
X9596042Y-17108927D01*
X9596042Y-17127975D01*
X9729376Y-16927975D02*
X9748423Y-16927975D01*
X9767471Y-16937499D01*
X9776995Y-16947023D01*
X9786518Y-16966070D01*
X9796042Y-17004165D01*
X9796042Y-17051784D01*
X9786518Y-17089880D01*
X9776995Y-17108927D01*
X9767471Y-17118451D01*
X9748423Y-17127975D01*
X9729376Y-17127975D01*
X9710328Y-17118451D01*
X9700804Y-17108927D01*
X9691280Y-17089880D01*
X9681757Y-17051784D01*
X9681757Y-17004165D01*
X9691280Y-16966070D01*
X9700804Y-16947023D01*
X9710328Y-16937499D01*
X9729376Y-16927975D01*
X9862709Y-16927975D02*
X9996042Y-16927975D01*
X9910328Y-17127975D01*
X10110328Y-16927975D02*
X10129376Y-16927975D01*
X10148423Y-16937499D01*
X10157947Y-16947023D01*
X10167471Y-16966070D01*
X10176995Y-17004165D01*
X10176995Y-17051784D01*
X10167471Y-17089880D01*
X10157947Y-17108927D01*
X10148423Y-17118451D01*
X10129376Y-17127975D01*
X10110328Y-17127975D01*
X10091280Y-17118451D01*
X10081757Y-17108927D01*
X10072233Y-17089880D01*
X10062709Y-17051784D01*
X10062709Y-17004165D01*
X10072233Y-16966070D01*
X10081757Y-16947023D01*
X10091280Y-16937499D01*
X10110328Y-16927975D01*
X10272233Y-17127975D02*
X10310328Y-17127975D01*
X10329376Y-17118451D01*
X10338899Y-17108927D01*
X10357947Y-17080356D01*
X10367471Y-17042261D01*
X10367471Y-16966070D01*
X10357947Y-16947023D01*
X10348423Y-16937499D01*
X10329376Y-16927975D01*
X10291280Y-16927975D01*
X10272233Y-16937499D01*
X10262709Y-16947023D01*
X10253185Y-16966070D01*
X10253185Y-17013689D01*
X10262709Y-17032737D01*
X10272233Y-17042261D01*
X10291280Y-17051784D01*
X10329376Y-17051784D01*
X10348423Y-17042261D01*
X10357947Y-17032737D01*
X10367471Y-17013689D01*
X10443661Y-16927975D02*
X10443661Y-16966070D01*
X10519852Y-16927975D02*
X10519852Y-16966070D01*
X10815090Y-17204165D02*
X10805566Y-17194642D01*
X10786518Y-17166070D01*
X10776995Y-17147023D01*
X10767471Y-17118451D01*
X10757947Y-17070832D01*
X10757947Y-17032737D01*
X10767471Y-16985118D01*
X10776995Y-16956546D01*
X10786518Y-16937499D01*
X10805566Y-16908927D01*
X10815090Y-16899403D01*
X10976995Y-16994642D02*
X10976995Y-17127975D01*
X10929376Y-16918451D02*
X10881757Y-17061308D01*
X11005566Y-17061308D01*
X11234137Y-17127975D02*
X11234137Y-16927975D01*
X11319852Y-17127975D02*
X11319852Y-17023213D01*
X11310328Y-17004165D01*
X11291280Y-16994642D01*
X11262709Y-16994642D01*
X11243661Y-17004165D01*
X11234137Y-17013689D01*
X11443661Y-17127975D02*
X11424614Y-17118451D01*
X11415090Y-17108927D01*
X11405566Y-17089880D01*
X11405566Y-17032737D01*
X11415090Y-17013689D01*
X11424614Y-17004165D01*
X11443661Y-16994642D01*
X11472233Y-16994642D01*
X11491280Y-17004165D01*
X11500804Y-17013689D01*
X11510328Y-17032737D01*
X11510328Y-17089880D01*
X11500804Y-17108927D01*
X11491280Y-17118451D01*
X11472233Y-17127975D01*
X11443661Y-17127975D01*
X11624614Y-17127975D02*
X11605566Y-17118451D01*
X11596042Y-17099403D01*
X11596042Y-16927975D01*
X11776995Y-17118451D02*
X11757947Y-17127975D01*
X11719852Y-17127975D01*
X11700804Y-17118451D01*
X11691280Y-17099403D01*
X11691280Y-17023213D01*
X11700804Y-17004165D01*
X11719852Y-16994642D01*
X11757947Y-16994642D01*
X11776995Y-17004165D01*
X11786518Y-17023213D01*
X11786518Y-17042261D01*
X11691280Y-17061308D01*
X11862709Y-17118451D02*
X11881756Y-17127975D01*
X11919852Y-17127975D01*
X11938899Y-17118451D01*
X11948423Y-17099403D01*
X11948423Y-17089880D01*
X11938899Y-17070832D01*
X11919852Y-17061308D01*
X11891280Y-17061308D01*
X11872233Y-17051784D01*
X11862709Y-17032737D01*
X11862709Y-17023213D01*
X11872233Y-17004165D01*
X11891280Y-16994642D01*
X11919852Y-16994642D01*
X11938899Y-17004165D01*
X12015090Y-17204165D02*
X12024614Y-17194642D01*
X12043661Y-17166070D01*
X12053185Y-17147023D01*
X12062709Y-17118451D01*
X12072233Y-17070832D01*
X12072233Y-17032737D01*
X12062709Y-16985118D01*
X12053185Y-16956546D01*
X12043661Y-16937499D01*
X12024614Y-16908927D01*
X12015090Y-16899403D01*
M02*
